{"glyphs":{"0":{"ha":872,"x_min":60,"x_max":813,"o":"m 436 983 q 715 849 618 983 q 813 485 813 714 q 715 121 813 256 q 436 -14 618 -14 q 156 121 253 -14 q 60 485 60 256 q 156 849 60 714 q 436 983 253 983 m 436 103 q 622 204 557 103 q 686 485 686 306 q 622 764 686 663 q 436 865 557 865 q 251 764 315 865 q 186 485 186 663 q 251 204 186 306 q 436 103 315 103 z "},"1":{"ha":872,"x_min":178,"x_max":735,"o":"m 675 118 q 717 101 700 118 q 735 58 735 83 q 717 17 735 33 q 675 0 700 0 l 246 0 q 204 17 221 0 q 188 58 188 33 q 204 101 188 83 q 246 118 221 118 l 411 118 l 411 822 l 269 753 q 238 744 250 744 q 194 761 211 744 q 178 804 178 778 q 214 861 178 843 l 403 960 q 442 969 422 969 l 471 969 q 518 950 499 969 q 538 903 538 931 l 538 118 l 675 118 z "},"2":{"ha":872,"x_min":90,"x_max":768,"o":"m 700 118 q 742 101 725 118 q 760 58 760 83 q 742 17 760 33 q 700 0 725 0 l 164 0 q 111 20 132 0 q 90 72 90 40 q 133 206 90 144 q 235 313 175 267 q 394 424 296 360 q 529 515 479 478 q 613 597 579 553 q 646 692 646 642 q 594 817 646 771 q 426 864 542 864 q 189 814 301 864 q 163 807 175 807 q 125 822 140 807 q 110 861 110 838 q 140 913 110 896 q 449 983 282 983 q 610 948 538 983 q 726 849 683 913 q 768 701 768 785 q 720 549 768 619 q 606 426 672 479 q 432 304 539 374 q 285 199 335 239 q 217 118 236 160 l 700 118 z "},"3":{"ha":872,"x_min":82,"x_max":768,"o":"m 565 501 q 706 426 644 483 q 768 254 768 368 q 667 56 768 126 q 408 -14 567 -14 q 118 42 254 -14 q 92 62 101 49 q 82 94 82 75 q 98 135 82 118 q 138 153 114 153 q 164 147 150 153 q 385 107 264 107 q 567 142 493 107 q 642 261 642 178 q 335 436 642 436 l 313 436 q 272 453 289 436 q 254 494 254 471 q 272 535 254 518 q 313 553 289 553 l 321 553 q 533 595 460 553 q 607 721 607 638 q 551 826 607 788 q 388 865 496 865 q 172 819 271 865 q 147 814 158 814 q 111 828 126 814 q 96 865 96 843 q 124 913 96 897 q 399 983 257 983 q 646 918 558 983 q 733 733 733 853 q 685 583 733 638 q 565 501 638 528 z "},"4":{"ha":872,"x_min":35,"x_max":828,"o":"m 771 357 q 811 340 794 357 q 828 300 828 324 q 811 260 828 276 q 771 244 794 244 l 665 244 l 665 56 q 647 11 665 29 q 601 -7 628 -7 q 557 11 575 -7 q 539 56 539 29 l 539 244 l 115 244 q 58 267 82 244 q 35 324 35 290 l 35 336 q 51 386 35 365 l 488 943 q 517 967 499 958 q 557 976 536 976 l 585 976 q 643 953 621 976 q 665 896 665 931 l 665 357 l 771 357 m 539 833 l 169 357 l 539 357 l 539 833 z "},"5":{"ha":872,"x_min":89,"x_max":793,"o":"m 469 614 q 645 574 572 614 q 756 463 718 533 q 793 300 793 392 q 697 73 793 160 q 413 -14 601 -14 q 117 67 243 -14 q 96 87 103 76 q 89 117 89 97 q 104 159 89 142 q 144 176 119 176 q 174 169 160 176 q 396 111 283 111 q 597 156 528 111 q 667 307 667 200 q 609 443 667 393 q 451 493 551 493 q 238 433 336 493 q 222 424 235 432 q 189 417 208 417 q 124 439 150 417 q 97 497 97 461 q 100 531 97 514 l 163 900 q 187 951 167 932 q 236 969 207 969 l 682 969 q 724 952 707 969 q 742 910 742 935 q 724 868 742 885 q 682 851 707 851 l 279 851 l 235 557 q 469 614 340 614 z "},"6":{"ha":872,"x_min":82,"x_max":806,"o":"m 488 628 q 653 588 582 628 q 765 474 725 547 q 806 301 806 400 q 764 142 806 214 q 644 28 722 69 q 463 -14 567 -14 q 82 483 82 -14 q 122 718 82 604 q 251 908 161 832 q 485 983 342 983 q 621 967 563 983 q 731 924 679 950 q 751 903 743 917 q 760 874 760 889 q 744 834 760 851 q 703 817 728 817 q 679 821 690 817 q 494 861 593 861 q 274 751 338 861 q 203 506 210 642 q 314 593 244 558 q 488 628 383 628 m 464 104 q 577 131 528 104 q 653 204 626 158 q 679 304 679 250 q 626 456 679 399 q 472 513 574 513 q 210 360 292 513 q 464 104 247 104 z "},"7":{"ha":872,"x_min":83,"x_max":788,"o":"m 788 896 q 774 835 788 865 l 379 28 q 354 3 371 13 q 319 -7 338 -7 q 275 11 293 -7 q 257 56 257 29 q 265 89 257 72 l 647 849 l 143 849 q 101 866 118 849 q 83 908 83 883 q 101 951 83 933 q 143 969 118 969 l 710 969 q 765 949 743 969 q 788 896 788 928 z "},"8":{"ha":872,"x_min":65,"x_max":807,"o":"m 761 731 q 716 597 761 650 q 600 519 671 543 q 807 257 807 450 q 769 128 807 189 q 649 26 732 67 q 436 -14 567 -14 q 223 26 306 -14 q 103 128 140 67 q 65 257 65 189 q 272 519 65 450 q 156 597 201 543 q 111 731 111 650 q 144 849 111 790 q 249 945 176 907 q 436 983 322 983 q 623 945 550 983 q 728 849 696 907 q 761 731 761 790 m 238 722 q 285 618 238 664 q 436 572 333 572 q 587 618 539 572 q 635 722 635 664 q 584 830 635 788 q 436 872 533 872 q 288 830 339 872 q 238 722 238 788 m 436 97 q 577 126 522 97 q 656 194 632 154 q 681 271 681 235 q 610 409 681 360 q 436 458 539 458 q 263 409 333 458 q 192 271 192 360 q 216 194 192 235 q 295 126 240 154 q 436 97 350 97 z "},"9":{"ha":872,"x_min":67,"x_max":790,"o":"m 385 342 q 219 382 290 342 q 107 496 147 422 q 67 668 67 569 q 108 828 67 756 q 228 942 150 900 q 410 983 306 983 q 790 486 790 983 q 751 251 790 365 q 621 62 711 138 q 388 -14 531 -14 q 251 3 310 -14 q 142 46 193 19 q 121 67 129 53 q 113 96 113 81 q 128 135 113 118 q 169 153 144 153 q 193 149 182 153 q 378 108 279 108 q 599 218 535 108 q 669 464 663 328 q 558 376 628 411 q 385 342 489 342 m 408 865 q 295 838 344 865 q 219 765 246 811 q 193 665 193 719 q 246 514 193 571 q 400 457 299 457 q 663 610 581 457 q 408 865 625 865 z "}," ":{"ha":361,"x_min":0,"x_max":0,"o":""},"!":{"ha":390,"x_min":114,"x_max":279,"o":"m 196 268 q 163 279 175 268 q 149 308 150 290 l 124 767 l 124 904 q 144 956 124 935 q 196 976 165 976 q 247 956 226 976 q 267 904 267 935 l 267 767 l 242 308 q 228 279 240 290 q 196 268 217 268 m 196 160 q 255 135 231 160 q 279 78 279 111 q 255 19 279 43 q 196 -6 231 -6 q 138 19 163 -6 q 114 78 114 43 q 138 135 114 111 q 196 160 163 160 z "},"\"":{"ha":571,"x_min":79,"x_max":492,"o":"m 83 968 q 106 1017 85 997 q 154 1038 126 1038 q 203 1017 182 1038 q 225 968 224 997 q 194 718 229 888 q 181 693 192 703 q 154 683 169 683 q 128 693 139 683 q 114 718 117 703 q 83 968 79 888 m 346 968 q 368 1017 347 997 q 417 1038 389 1038 q 465 1017 444 1038 q 488 968 486 997 q 457 718 492 888 q 443 693 454 703 q 417 683 432 683 q 390 693 401 683 q 376 718 379 703 q 346 968 342 888 z "},"#":{"ha":850,"x_min":50,"x_max":799,"o":"m 750 658 q 784 644 769 658 q 799 610 799 629 q 784 576 799 590 q 750 561 769 561 l 628 561 l 594 350 l 701 350 q 735 335 721 350 q 750 301 750 321 q 735 267 750 282 q 701 253 721 253 l 579 253 l 544 33 q 528 5 542 17 q 496 -7 514 -7 q 462 7 476 -7 q 447 42 447 21 q 481 253 447 47 l 304 253 l 269 33 q 253 5 267 17 q 221 -7 239 -7 q 187 7 201 -7 q 172 42 172 21 q 206 253 172 47 l 99 253 q 65 267 79 253 q 50 301 50 282 q 65 335 50 321 q 99 350 79 350 l 221 350 l 254 561 l 147 561 q 113 576 128 561 q 99 610 99 590 q 113 644 99 629 q 147 658 128 658 l 269 658 l 304 878 q 320 906 307 894 q 353 917 333 917 q 388 903 375 917 q 401 868 401 889 q 368 658 401 858 l 544 658 l 579 878 q 595 906 582 894 q 628 917 608 917 q 663 903 650 917 q 676 868 676 889 q 643 658 676 858 l 750 658 m 353 561 l 319 350 l 496 350 l 529 561 l 353 561 z "},"$":{"ha":850,"x_min":65,"x_max":790,"o":"m 464 538 q 632 486 565 514 q 744 403 699 458 q 790 257 790 349 q 750 123 790 182 q 636 28 710 64 q 464 -14 563 -8 l 464 -122 q 455 -144 464 -136 q 432 -153 446 -153 q 410 -144 418 -153 q 401 -122 401 -136 l 401 -14 q 104 53 242 -7 q 76 74 88 60 q 65 107 65 89 q 81 147 65 131 q 122 164 97 164 q 149 158 136 164 q 401 104 261 108 l 401 422 q 233 477 300 449 q 121 559 167 506 q 75 699 75 613 q 113 836 75 774 q 224 938 150 899 q 401 982 297 976 l 401 1090 q 410 1113 401 1104 q 432 1122 418 1122 q 455 1113 446 1122 q 464 1090 464 1104 l 464 983 q 711 938 597 979 q 750 882 750 924 q 735 842 750 860 q 694 825 719 825 q 672 831 686 825 q 464 868 571 867 l 464 538 m 200 708 q 251 611 200 644 q 401 553 303 578 l 401 865 q 256 816 311 857 q 200 708 200 775 m 464 106 q 665 265 665 119 q 615 350 665 319 q 464 407 564 381 l 464 106 z "},"%":{"ha":1131,"x_min":60,"x_max":1071,"o":"m 283 993 q 449 923 390 993 q 507 744 507 853 q 449 566 507 636 q 283 496 390 496 q 118 566 176 496 q 60 744 60 636 q 118 923 60 853 q 283 993 176 993 m 896 940 q 886 910 896 925 l 325 11 q 307 -7 318 0 q 283 -14 296 -14 q 251 -1 265 -14 q 238 32 238 13 q 244 56 238 44 l 810 960 q 849 982 824 982 q 883 971 869 982 q 896 940 896 960 m 283 586 q 376 631 343 586 q 410 744 410 675 q 376 858 410 814 q 283 903 343 903 q 190 858 224 903 q 157 744 157 814 q 190 631 157 675 q 283 586 224 586 m 847 472 q 1013 402 954 472 q 1071 224 1071 332 q 1013 45 1071 115 q 847 -25 954 -25 q 682 45 740 -25 q 624 224 624 115 q 682 402 624 332 q 847 472 740 472 m 847 65 q 940 110 907 65 q 974 224 974 154 q 940 338 974 293 q 847 382 907 382 q 754 338 788 382 q 721 224 721 293 q 754 110 721 154 q 847 65 788 65 z "},"&":{"ha":1017,"x_min":99,"x_max":917,"o":"m 894 90 q 911 71 906 81 q 917 46 917 61 q 901 6 917 22 q 860 -11 886 -11 q 817 6 835 -11 l 724 94 q 592 15 664 44 q 439 -14 519 -14 q 246 27 322 -14 q 134 133 169 68 q 99 272 99 199 q 148 434 99 367 q 256 539 197 501 q 192 635 214 589 q 171 740 171 681 q 202 863 171 807 q 292 951 233 918 q 431 983 351 983 q 615 922 524 983 q 633 905 625 917 q 640 881 640 893 q 626 847 640 861 q 592 832 613 832 q 567 839 581 832 q 436 875 500 875 q 327 837 367 875 q 288 747 288 799 q 301 676 288 707 q 340 617 314 646 q 426 532 367 588 l 717 258 q 763 343 736 286 q 784 368 769 358 q 817 378 799 378 q 858 362 842 378 q 875 321 875 346 q 868 293 875 307 q 801 179 840 233 l 894 90 m 332 461 q 251 382 285 431 q 218 268 218 333 q 278 142 218 192 q 428 93 339 93 q 642 171 546 93 l 332 461 z "},"'":{"ha":331,"x_min":88,"x_max":265,"o":"m 188 1032 q 242 1009 219 1032 q 265 954 265 986 l 265 872 q 151 669 265 739 q 128 663 140 663 q 99 675 111 663 q 88 704 88 688 q 108 739 88 726 q 161 788 143 760 q 179 868 179 815 l 174 868 q 119 891 142 868 q 96 946 96 914 l 96 954 q 119 1009 96 986 q 174 1032 142 1032 l 188 1032 z "},"(":{"ha":433,"x_min":71,"x_max":368,"o":"m 368 -160 q 351 -199 368 -183 q 313 -214 335 -214 q 287 -208 296 -214 q 267 -189 278 -203 q 120 87 169 -74 q 71 426 71 247 q 120 766 71 606 q 267 1042 169 926 q 287 1061 278 1056 q 313 1067 296 1067 q 351 1051 335 1067 q 368 1013 368 1036 q 360 982 368 997 q 240 715 283 856 q 197 426 197 574 q 240 138 197 279 q 360 -129 283 -3 q 368 -160 368 -144 z "},")":{"ha":433,"x_min":67,"x_max":364,"o":"m 67 -160 q 75 -129 67 -144 q 194 138 151 -3 q 238 426 238 279 q 194 715 238 574 q 75 982 151 856 q 67 1013 67 997 q 83 1051 67 1036 q 122 1067 100 1067 q 148 1061 139 1067 q 168 1042 157 1056 q 315 766 265 926 q 364 426 364 606 q 315 87 364 247 q 168 -189 265 -74 q 148 -208 157 -203 q 122 -214 139 -214 q 83 -199 100 -214 q 67 -160 67 -183 z "},"*":{"ha":579,"x_min":92,"x_max":486,"o":"m 467 700 q 486 665 486 689 q 481 644 486 656 q 443 624 467 624 q 425 628 433 624 q 308 721 419 631 q 331 574 331 579 q 318 545 331 557 q 289 533 306 533 q 260 545 272 533 q 247 574 247 557 q 269 721 247 579 q 153 628 158 631 q 135 624 144 624 q 97 644 111 624 q 92 667 92 654 q 111 700 92 690 l 250 754 l 111 808 q 92 843 92 819 q 97 865 92 856 q 133 886 111 886 q 153 881 143 886 q 269 788 158 878 q 247 935 247 929 q 260 963 247 951 q 289 975 272 975 q 318 963 306 975 q 331 935 331 951 q 308 788 331 929 q 425 881 419 878 q 444 886 432 886 q 481 865 467 886 q 486 844 486 854 q 467 808 486 821 l 328 754 l 467 700 z "},"+":{"ha":781,"x_min":56,"x_max":725,"o":"m 671 533 q 710 518 694 533 q 725 479 725 503 q 710 442 725 457 q 671 426 694 426 l 444 426 l 444 199 q 429 160 444 176 q 390 144 414 144 q 352 160 368 144 q 336 199 336 176 l 336 426 l 108 426 q 71 442 86 426 q 56 479 56 457 q 71 518 56 503 q 108 533 86 533 l 336 533 l 336 761 q 352 800 336 785 q 390 815 368 815 q 429 800 414 815 q 444 761 444 785 l 444 533 l 671 533 z "},",":{"ha":361,"x_min":88,"x_max":265,"o":"m 188 160 q 242 137 219 160 q 265 82 265 114 l 265 0 q 151 -203 265 -133 q 128 -210 140 -210 q 99 -197 111 -210 q 88 -168 88 -185 q 108 -133 88 -146 q 161 -85 143 -112 q 179 -4 179 -57 l 174 -4 q 119 19 142 -4 q 96 74 96 42 l 96 82 q 119 137 96 114 q 174 160 142 160 l 188 160 z "},"-":{"ha":567,"x_min":96,"x_max":471,"o":"m 414 446 q 454 429 438 446 q 471 389 471 413 q 454 349 471 365 q 414 333 438 333 l 151 333 q 112 349 128 333 q 96 389 96 365 q 112 429 96 413 q 151 446 128 446 l 414 446 z "},".":{"ha":361,"x_min":96,"x_max":265,"o":"m 188 160 q 242 137 219 160 q 265 82 265 114 l 265 74 q 242 19 265 42 q 188 -4 219 -4 l 174 -4 q 119 19 142 -4 q 96 74 96 42 l 96 82 q 119 137 96 114 q 174 160 142 160 l 188 160 z "},"/":{"ha":615,"x_min":67,"x_max":550,"o":"m 493 1061 q 534 1044 518 1061 q 550 1004 550 1028 q 546 983 550 996 l 178 -93 q 158 -121 172 -110 q 124 -132 144 -132 q 83 -115 99 -132 q 67 -75 67 -99 q 71 -54 67 -67 l 439 1022 q 458 1050 444 1039 q 493 1061 472 1061 z "},":":{"ha":361,"x_min":96,"x_max":265,"o":"m 188 713 q 242 690 219 713 q 265 635 265 667 l 265 626 q 242 572 265 594 q 188 549 219 549 l 174 549 q 119 572 142 549 q 96 626 96 594 l 96 635 q 119 690 96 667 q 174 713 142 713 l 188 713 m 188 160 q 242 137 219 160 q 265 82 265 114 l 265 74 q 242 19 265 42 q 188 -4 219 -4 l 174 -4 q 119 19 142 -4 q 96 74 96 42 l 96 82 q 119 137 96 114 q 174 160 142 160 l 188 160 z "},";":{"ha":361,"x_min":88,"x_max":265,"o":"m 188 713 q 242 690 219 713 q 265 635 265 667 l 265 626 q 242 572 265 594 q 188 549 219 549 l 174 549 q 119 572 142 549 q 96 626 96 594 l 96 635 q 119 690 96 667 q 174 713 142 713 l 188 713 m 188 160 q 242 137 219 160 q 265 82 265 114 l 265 0 q 151 -203 265 -133 q 128 -210 140 -210 q 99 -197 111 -210 q 88 -168 88 -185 q 108 -133 88 -146 q 161 -85 143 -112 q 179 -4 179 -57 l 174 -4 q 119 19 142 -4 q 96 74 96 42 l 96 82 q 119 137 96 114 q 174 160 142 160 l 188 160 z "},"<":{"ha":806,"x_min":49,"x_max":731,"o":"m 675 81 q 653 85 664 81 l 99 333 q 62 363 75 344 q 49 406 49 382 l 49 417 q 62 459 49 440 q 99 489 75 478 l 653 738 q 675 742 664 742 q 715 726 699 742 q 731 686 731 710 q 720 655 731 669 q 693 633 710 640 l 193 411 l 693 189 q 720 167 710 182 q 731 136 731 153 q 715 97 731 113 q 675 81 699 81 z "},"=":{"ha":989,"x_min":101,"x_max":888,"o":"m 156 561 q 117 577 133 561 q 101 615 101 593 q 117 654 101 639 q 156 669 133 669 l 833 669 q 872 654 857 669 q 888 615 888 639 q 872 577 888 593 q 833 561 857 561 l 156 561 m 833 358 q 872 343 857 358 q 888 304 888 328 q 872 266 888 282 q 833 250 857 250 l 156 250 q 117 266 133 250 q 101 304 101 282 q 117 343 101 328 q 156 358 133 358 l 833 358 z "},">":{"ha":806,"x_min":75,"x_max":757,"o":"m 131 81 q 91 97 107 81 q 75 136 75 113 q 85 167 75 153 q 113 189 96 182 l 613 411 l 113 633 q 85 655 96 640 q 75 686 75 669 q 91 726 75 710 q 131 742 107 742 q 153 738 143 742 l 707 489 q 744 459 731 478 q 757 417 757 440 l 757 406 q 744 363 757 382 q 707 333 731 344 l 153 85 q 131 81 143 81 z "},"?":{"ha":690,"x_min":36,"x_max":628,"o":"m 315 983 q 542 913 457 983 q 628 721 628 842 q 608 626 628 667 q 561 556 589 585 q 488 492 533 528 q 398 406 428 444 q 368 313 368 368 q 350 274 368 290 q 307 258 332 258 q 263 274 281 258 q 246 313 246 290 q 268 422 246 375 q 320 501 290 469 q 400 572 350 532 q 478 644 453 614 q 503 714 503 675 q 304 865 503 865 q 209 853 256 865 q 126 819 163 842 q 92 808 110 808 q 53 825 69 808 q 36 864 36 842 q 71 917 36 896 q 186 968 128 953 q 315 983 244 983 m 304 160 q 363 135 339 160 q 388 78 388 111 q 363 19 388 43 q 304 -6 339 -6 q 247 19 271 -6 q 222 78 222 43 q 247 135 222 111 q 304 160 271 160 z "},"@":{"ha":1247,"x_min":68,"x_max":1186,"o":"m 657 956 q 922 894 800 956 q 1115 723 1043 832 q 1186 475 1186 614 q 1159 310 1186 388 q 1074 182 1132 232 q 928 132 1017 132 q 819 163 858 132 q 772 235 781 193 q 669 156 729 182 q 543 131 610 131 q 369 199 432 131 q 307 375 307 267 q 353 556 307 479 q 476 672 400 632 q 636 713 551 713 q 814 642 740 713 l 818 665 q 835 696 821 683 q 869 708 850 708 q 905 694 890 708 q 919 657 919 679 l 918 642 l 872 378 q 863 288 863 326 q 880 223 863 249 q 932 197 897 197 q 1065 272 1018 197 q 1111 475 1111 347 q 1046 695 1111 603 q 876 835 981 788 q 657 882 771 882 q 401 811 519 882 q 211 621 282 740 q 140 364 140 501 q 190 167 140 261 q 333 15 239 74 q 556 -43 426 -43 q 703 -27 640 -43 q 846 21 765 -11 q 861 24 854 24 q 886 14 876 24 q 896 -10 896 4 q 890 -28 896 -19 q 876 -42 885 -37 q 556 -115 729 -115 q 300 -49 411 -115 q 128 127 189 17 q 68 364 68 238 q 149 657 68 521 q 365 874 229 793 q 657 956 500 956 m 799 550 q 642 614 738 614 q 530 588 582 614 q 446 510 478 561 q 414 389 414 460 q 458 267 414 308 q 574 226 503 226 q 776 421 743 226 l 799 550 z "},"A":{"ha":968,"x_min":36,"x_max":933,"o":"m 926 83 q 933 56 933 67 q 916 11 933 29 q 871 -7 899 -7 q 835 3 851 -7 q 811 32 819 14 l 721 249 l 249 249 l 158 32 q 134 3 150 14 q 99 -7 118 -7 q 53 11 71 -7 q 36 56 36 29 q 43 83 36 67 l 397 919 q 428 960 408 944 q 478 976 449 976 l 492 976 q 541 960 521 976 q 572 919 561 944 l 926 83 m 485 815 l 297 364 l 672 364 l 485 815 z "},"B":{"ha":963,"x_min":135,"x_max":890,"o":"m 700 504 q 837 419 783 478 q 890 272 890 361 q 804 72 890 144 q 533 0 718 0 l 197 0 q 153 18 171 0 q 135 63 135 36 l 135 906 q 153 951 135 932 q 197 969 171 969 l 525 969 q 755 901 674 969 q 836 718 836 833 q 798 584 836 638 q 700 504 760 531 m 715 708 q 662 813 715 774 q 515 851 608 851 l 261 851 l 261 550 l 492 550 q 665 592 615 550 q 715 708 715 633 m 521 118 q 712 160 656 118 q 768 278 768 201 q 522 436 768 436 l 261 436 l 261 118 l 521 118 z "},"C":{"ha":969,"x_min":78,"x_max":911,"o":"m 856 178 q 896 163 881 178 q 911 125 911 147 q 881 72 911 89 q 733 8 807 31 q 564 -14 658 -14 q 315 47 425 -14 q 141 220 204 107 q 78 485 78 333 q 141 749 78 636 q 315 923 204 863 q 564 983 425 983 q 733 961 658 983 q 881 897 807 939 q 911 844 911 881 q 896 808 911 824 q 856 792 881 792 q 831 797 842 792 q 711 846 769 829 q 576 863 653 863 q 373 813 457 863 q 247 678 289 764 q 204 485 204 593 q 247 291 204 376 q 373 156 289 206 q 576 107 457 107 q 711 124 653 107 q 831 172 769 140 q 856 178 842 178 z "},"D":{"ha":1042,"x_min":135,"x_max":967,"o":"m 476 969 q 745 899 635 969 q 911 718 856 829 q 967 485 967 607 q 911 251 967 363 q 745 70 856 140 q 476 0 635 0 l 197 0 q 153 18 171 0 q 135 63 135 36 l 135 906 q 153 951 135 932 q 197 969 171 969 l 476 969 m 461 118 q 661 165 575 118 q 794 294 747 211 q 842 485 842 376 q 794 676 842 593 q 661 805 747 758 q 461 851 575 851 l 261 851 l 261 118 l 461 118 z "},"E":{"ha":886,"x_min":135,"x_max":814,"o":"m 754 118 q 797 101 779 118 q 814 58 814 83 q 797 17 814 33 q 754 0 779 0 l 197 0 q 153 18 171 0 q 135 63 135 36 l 135 906 q 153 951 135 932 q 197 969 171 969 l 754 969 q 797 952 779 969 q 814 910 814 935 q 797 868 814 885 q 754 851 779 851 l 261 851 l 261 544 l 704 544 q 747 527 729 544 q 764 485 764 510 q 747 443 764 460 q 704 426 729 426 l 261 426 l 261 118 l 754 118 z "},"F":{"ha":847,"x_min":135,"x_max":797,"o":"m 261 544 l 689 544 q 731 527 714 544 q 749 485 749 510 q 731 443 749 460 q 689 426 714 426 l 261 426 l 261 56 q 242 11 261 29 q 197 -7 224 -7 q 153 11 171 -7 q 135 56 135 29 l 135 906 q 153 951 135 932 q 197 969 171 969 l 738 969 q 780 952 763 969 q 797 910 797 935 q 780 868 797 885 q 738 851 763 851 l 261 851 l 261 544 z "},"G":{"ha":1033,"x_min":76,"x_max":935,"o":"m 868 532 q 915 513 896 532 q 935 465 935 493 l 935 150 q 920 98 935 121 q 882 64 906 75 q 564 -14 726 -14 q 310 49 421 -14 q 138 226 199 113 q 76 483 76 339 q 140 744 76 631 q 315 921 204 858 q 560 983 425 983 q 749 957 668 983 q 906 883 831 931 q 925 864 917 878 q 933 833 933 850 q 917 793 933 810 q 875 776 901 776 q 846 783 860 776 q 715 842 781 822 q 574 861 650 861 q 383 817 468 861 q 251 687 299 772 q 203 483 203 601 q 248 290 203 375 q 378 155 293 204 q 581 106 464 106 q 824 167 711 106 l 824 418 l 594 418 q 554 435 571 418 q 538 475 538 451 q 554 515 538 499 q 594 532 571 532 l 868 532 z "},"H":{"ha":1049,"x_min":135,"x_max":914,"o":"m 850 976 q 895 958 876 976 q 914 913 914 939 l 914 56 q 895 11 914 29 q 850 -7 876 -7 q 806 11 824 -7 q 788 56 788 29 l 788 425 l 261 425 l 261 56 q 242 11 261 29 q 197 -7 224 -7 q 153 11 171 -7 q 135 56 135 29 l 135 913 q 153 958 135 939 q 197 976 171 976 q 242 958 224 976 q 261 913 261 939 l 261 543 l 788 543 l 788 913 q 806 958 788 939 q 850 976 824 976 z "},"I":{"ha":396,"x_min":135,"x_max":261,"o":"m 197 976 q 242 958 224 976 q 261 913 261 939 l 261 56 q 242 11 261 29 q 197 -7 224 -7 q 153 11 171 -7 q 135 56 135 29 l 135 913 q 153 958 135 939 q 197 976 171 976 z "},"J":{"ha":647,"x_min":17,"x_max":518,"o":"m 454 976 q 499 958 481 976 q 518 913 518 939 l 518 319 q 437 62 518 138 q 232 -14 356 -14 q 47 33 131 -14 q 17 85 17 51 q 31 124 17 107 q 69 142 46 142 q 94 136 83 142 q 224 106 158 106 q 345 149 299 106 q 392 311 392 192 l 392 913 q 410 958 392 939 q 454 976 428 976 z "},"K":{"ha":931,"x_min":135,"x_max":890,"o":"m 874 94 q 889 54 889 75 q 872 11 890 29 q 828 -7 854 -7 q 778 18 796 -7 l 419 475 l 261 315 l 261 56 q 242 11 261 29 q 197 -7 224 -7 q 153 11 171 -7 q 135 56 135 29 l 135 913 q 153 958 135 939 q 197 976 171 976 q 242 958 224 976 q 261 913 261 939 l 261 471 l 736 954 q 783 976 756 976 q 824 960 807 976 q 842 921 842 944 q 826 878 842 893 l 506 558 l 874 94 z "},"L":{"ha":800,"x_min":135,"x_max":779,"o":"m 715 126 q 760 108 742 126 q 779 63 779 89 q 760 18 779 36 q 715 0 742 0 l 222 0 q 160 26 186 0 q 135 88 135 51 l 135 913 q 153 958 135 939 q 197 976 171 976 q 242 958 224 976 q 261 913 261 939 l 261 126 l 715 126 z "},"M":{"ha":1342,"x_min":135,"x_max":1207,"o":"m 1117 976 q 1181 949 1154 976 q 1207 885 1207 922 l 1207 56 q 1189 11 1207 29 q 1144 -7 1171 -7 q 1099 11 1118 -7 q 1081 56 1081 29 l 1081 844 l 760 51 q 724 9 749 25 q 671 -7 700 -7 q 617 9 642 -7 q 582 51 593 25 l 261 844 l 261 56 q 242 11 261 29 q 197 -7 224 -7 q 153 11 171 -7 q 135 56 135 29 l 135 885 q 161 949 135 922 q 225 976 188 976 l 271 976 q 322 960 299 976 q 356 918 344 943 l 671 132 l 986 918 q 1020 960 997 943 q 1071 976 1043 976 l 1117 976 z "},"N":{"ha":1115,"x_min":135,"x_max":981,"o":"m 917 976 q 962 958 943 976 q 981 913 981 939 l 981 83 q 953 19 981 46 q 889 -7 926 -7 l 872 -7 q 831 3 850 -7 q 799 31 811 14 l 261 807 l 261 56 q 242 11 261 29 q 197 -7 224 -7 q 153 11 171 -7 q 135 56 135 29 l 135 885 q 161 949 135 922 q 225 976 188 976 l 243 976 q 319 935 288 976 l 854 163 l 854 913 q 872 958 854 939 q 917 976 890 976 z "},"O":{"ha":1126,"x_min":76,"x_max":1051,"o":"m 564 983 q 819 919 710 983 q 988 742 928 856 q 1051 485 1049 629 q 988 227 1049 340 q 819 50 928 114 q 564 -14 710 -14 q 308 50 418 -14 q 139 226 199 114 q 76 485 79 339 q 139 743 79 631 q 308 919 199 856 q 564 983 418 983 m 564 104 q 757 154 675 104 q 882 290 839 204 q 925 485 925 376 q 882 679 925 593 q 757 815 839 765 q 564 865 675 865 q 370 815 451 865 q 246 679 289 765 q 203 485 203 593 q 246 290 203 376 q 370 154 289 204 q 564 104 451 104 z "},"P":{"ha":929,"x_min":135,"x_max":885,"o":"m 514 969 q 729 925 646 969 q 849 811 813 881 q 885 661 885 742 q 849 511 885 581 q 729 397 813 442 q 514 353 646 353 l 261 353 l 261 56 q 242 11 261 29 q 197 -7 224 -7 q 153 11 171 -7 q 135 56 135 29 l 135 906 q 153 951 135 932 q 197 969 171 969 l 514 969 m 501 472 q 701 526 643 472 q 758 661 758 581 q 701 796 758 742 q 501 850 643 850 l 261 850 l 261 472 l 501 472 z "},"Q":{"ha":1128,"x_min":76,"x_max":1051,"o":"m 1051 485 q 973 201 1049 322 q 764 24 897 79 l 886 -111 q 903 -151 903 -128 q 886 -193 904 -175 q 843 -211 868 -211 q 799 -189 817 -211 l 647 -8 q 564 -14 613 -14 q 308 50 418 -14 q 139 226 199 114 q 76 485 79 339 q 139 743 79 631 q 308 919 199 856 q 564 983 418 983 q 819 919 710 983 q 988 742 928 856 q 1051 485 1049 629 m 564 104 q 757 154 675 104 q 882 290 839 204 q 925 485 925 376 q 882 679 925 593 q 757 815 839 765 q 564 865 675 865 q 370 815 451 865 q 246 679 289 765 q 203 485 203 593 q 246 290 203 376 q 370 154 289 204 q 564 104 451 104 z "},"R":{"ha":989,"x_min":135,"x_max":899,"o":"m 890 56 q 872 11 890 29 q 828 -7 854 -7 q 781 10 799 -7 q 764 56 764 28 l 764 97 q 751 226 764 167 q 692 331 739 285 q 549 378 644 378 l 261 378 l 261 56 q 242 11 261 29 q 197 -7 224 -7 q 153 11 171 -7 q 135 56 135 29 l 135 906 q 153 951 135 932 q 197 969 171 969 l 521 969 q 804 892 710 969 q 899 688 899 814 q 852 535 899 604 q 717 436 806 467 q 853 312 817 410 q 890 119 890 214 l 890 56 m 513 497 q 702 544 632 497 q 772 678 772 592 q 712 806 772 761 q 506 850 651 850 l 261 850 l 261 497 l 513 497 z "},"S":{"ha":856,"x_min":71,"x_max":796,"o":"m 207 708 q 240 627 207 658 q 322 578 272 596 q 456 542 371 561 q 633 489 565 515 q 748 407 700 463 q 796 257 796 351 q 751 117 796 179 q 626 21 707 56 q 440 -14 546 -14 q 110 53 264 -14 q 82 76 93 60 q 71 110 71 92 q 87 151 71 133 q 128 168 103 168 q 154 163 142 168 q 428 106 282 106 q 671 265 671 106 q 640 335 671 307 q 563 378 608 363 q 432 417 517 394 q 250 473 319 446 q 131 554 181 500 q 81 699 81 608 q 122 842 81 778 q 245 945 164 907 q 440 983 326 983 q 717 938 593 983 q 756 882 756 924 q 740 842 756 860 q 700 824 725 824 q 678 829 692 824 q 454 867 569 867 q 276 825 344 867 q 207 708 207 783 z "},"T":{"ha":849,"x_min":19,"x_max":829,"o":"m 769 969 q 812 952 794 969 q 829 910 829 935 q 812 868 829 885 q 769 851 794 851 l 488 851 l 488 56 q 469 11 488 29 q 424 -7 450 -7 q 379 11 397 -7 q 361 56 361 29 l 361 851 l 78 851 q 36 868 53 851 q 19 910 19 885 q 36 952 19 935 q 78 969 53 969 l 769 969 z "},"U":{"ha":1053,"x_min":128,"x_max":925,"o":"m 861 976 q 906 958 888 976 q 925 913 925 939 l 925 364 q 867 155 925 240 q 717 28 808 69 q 526 -14 625 -14 q 336 28 428 -14 q 186 155 244 69 q 128 364 128 240 l 128 913 q 146 958 128 939 q 190 976 164 976 q 235 958 217 976 q 254 913 254 939 l 254 360 q 292 218 254 276 q 393 131 331 160 q 526 101 456 101 q 660 131 597 101 q 760 218 722 160 q 799 360 799 276 l 799 913 q 817 958 799 939 q 861 976 835 976 z "},"V":{"ha":964,"x_min":33,"x_max":931,"o":"m 808 933 q 833 965 817 953 q 868 976 849 976 q 914 959 897 976 q 931 913 931 942 q 926 889 931 900 l 583 57 q 497 -7 554 -7 l 467 -7 q 381 57 410 -7 l 38 889 q 33 913 33 900 q 50 959 33 942 q 96 976 67 976 q 131 965 115 976 q 156 933 147 953 l 482 119 l 808 933 z "},"W":{"ha":1399,"x_min":35,"x_max":1365,"o":"m 700 976 q 745 962 725 976 q 772 924 765 947 l 1007 160 l 1240 926 q 1264 963 1247 949 q 1303 976 1281 976 q 1348 959 1331 976 q 1364 915 1365 942 q 1360 892 1364 907 l 1088 56 q 1055 9 1076 25 q 1006 -7 1033 -7 q 955 10 978 -7 q 924 56 932 28 l 700 764 l 476 56 q 445 10 468 28 q 394 -7 422 -7 q 345 9 367 -7 q 313 56 324 25 l 40 892 q 36 915 36 907 q 52 959 35 942 q 97 976 69 976 q 136 963 119 976 q 160 926 153 949 l 393 160 l 628 924 q 655 962 635 947 q 700 976 675 976 z "},"X":{"ha":929,"x_min":60,"x_max":869,"o":"m 857 92 q 869 56 869 78 q 852 11 869 29 q 807 -7 835 -7 q 757 19 776 -7 l 460 393 l 167 18 q 118 -7 146 -7 q 77 10 94 -7 q 60 51 60 28 q 72 90 60 74 l 393 485 l 75 876 q 63 915 63 893 q 80 959 63 942 q 124 976 97 976 q 153 969 139 976 q 175 951 167 963 l 468 579 l 761 954 q 807 976 776 976 q 850 959 832 976 q 868 917 868 942 q 857 882 868 897 l 536 486 l 857 92 z "},"Y":{"ha":896,"x_min":40,"x_max":857,"o":"m 739 944 q 794 976 760 976 q 839 958 821 976 q 856 913 857 939 q 844 875 856 893 l 511 410 l 511 56 q 493 11 511 29 q 449 -7 475 -7 q 403 11 422 -7 q 385 56 385 29 l 385 410 l 53 875 q 42 913 42 893 q 58 958 40 939 q 103 976 76 976 q 158 944 138 976 l 449 522 l 739 944 z "},"Z":{"ha":886,"x_min":65,"x_max":824,"o":"m 764 118 q 806 101 789 118 q 824 58 824 83 q 806 17 824 33 q 764 0 789 0 l 146 0 q 89 24 113 0 q 65 81 65 47 q 82 132 65 111 l 663 849 l 128 849 q 85 866 103 849 q 68 908 68 883 q 85 951 68 933 q 128 969 103 969 l 731 969 q 792 944 769 969 q 815 883 815 919 q 809 854 815 869 q 793 828 803 839 l 219 118 l 764 118 z "},"[":{"ha":447,"x_min":121,"x_max":408,"o":"m 358 -85 q 394 -99 379 -85 q 408 -133 408 -114 q 394 -168 408 -153 q 358 -183 379 -183 l 182 -183 q 139 -165 157 -183 q 121 -122 121 -147 l 121 956 q 139 999 121 981 q 182 1017 157 1017 l 358 1017 q 394 1002 379 1017 q 408 967 408 988 q 394 931 408 946 q 358 917 379 917 l 231 917 l 231 -85 l 358 -85 z "},"\\":{"ha":615,"x_min":65,"x_max":549,"o":"m 122 1061 q 157 1050 143 1061 q 176 1022 171 1039 l 544 -54 q 549 -75 549 -67 q 533 -115 549 -99 q 492 -132 517 -132 q 457 -121 471 -132 q 438 -93 443 -110 l 69 983 q 65 1004 65 996 q 81 1044 65 1028 q 122 1061 97 1061 z "},"]":{"ha":447,"x_min":39,"x_max":326,"o":"m 217 917 l 89 917 q 53 931 68 917 q 39 967 39 946 q 53 1002 39 988 q 89 1017 68 1017 l 265 1017 q 308 999 290 1017 q 326 956 326 981 l 326 -122 q 308 -165 326 -147 q 265 -183 290 -183 l 89 -183 q 53 -168 68 -183 q 39 -133 39 -153 q 53 -99 39 -114 q 89 -85 68 -85 l 217 -85 l 217 917 z "},"^":{"ha":728,"x_min":114,"x_max":611,"o":"m 389 975 q 429 963 414 975 q 457 928 444 950 l 603 651 q 611 626 611 635 q 597 591 611 606 q 561 576 582 576 q 525 592 538 576 q 363 856 529 588 l 221 625 l 200 592 q 164 576 188 576 q 128 591 143 576 q 114 626 114 606 q 122 651 114 635 l 268 928 q 296 963 281 950 q 336 975 311 975 l 389 975 z "},"_":{"ha":921,"x_min":72,"x_max":849,"o":"m 803 -112 q 835 -126 822 -112 q 849 -158 849 -140 q 835 -191 849 -178 q 803 -204 822 -204 l 118 -204 q 86 -191 100 -204 q 72 -158 72 -178 q 86 -126 72 -140 q 118 -112 100 -112 l 803 -112 z "},"`":{"ha":342,"x_min":96,"x_max":274,"o":"m 147 1003 q 193 976 179 1003 l 264 851 q 274 825 274 838 q 263 798 274 808 q 236 788 253 788 q 206 803 218 788 l 110 917 q 96 951 96 932 q 110 989 96 975 q 147 1003 125 1003 z "},"a":{"ha":771,"x_min":53,"x_max":667,"o":"m 376 722 q 538 683 472 722 q 635 583 604 644 q 667 449 667 521 l 667 56 q 648 11 667 29 q 603 -7 629 -7 q 558 11 576 -7 q 540 56 540 29 l 540 92 q 279 -14 438 -14 q 166 11 218 -14 q 83 84 114 36 q 53 194 53 132 q 134 358 53 297 q 372 419 215 419 l 540 419 l 540 431 q 495 563 540 522 q 354 603 450 603 q 260 594 301 603 q 169 569 219 586 q 151 567 158 567 q 115 582 131 567 q 100 619 100 597 q 136 672 100 657 q 376 722 254 722 m 326 97 q 444 127 388 97 q 540 201 501 157 l 540 318 l 389 318 q 179 208 179 318 q 213 128 179 158 q 326 97 247 97 z "},"b":{"ha":876,"x_min":110,"x_max":810,"o":"m 474 722 q 637 678 560 722 q 762 551 714 635 q 810 354 810 467 q 762 158 810 242 q 637 30 714 74 q 474 -14 560 -14 q 236 92 338 -14 l 236 56 q 217 11 236 29 q 172 -7 199 -7 q 128 11 146 -7 q 110 56 110 29 l 110 957 q 128 1002 110 983 q 172 1021 146 1021 q 218 1003 200 1021 q 236 957 236 985 l 236 617 q 474 722 338 722 m 456 104 q 621 169 558 104 q 683 354 683 235 q 621 539 683 474 q 456 604 558 604 q 335 576 392 604 q 236 500 279 547 l 236 208 q 335 133 279 161 q 456 104 392 104 z "},"c":{"ha":744,"x_min":64,"x_max":689,"o":"m 636 157 q 673 140 657 157 q 689 101 689 122 q 661 53 689 71 q 562 5 615 24 q 435 -14 508 -14 q 250 31 335 -14 q 115 158 165 75 q 64 354 64 242 q 115 550 64 467 q 250 678 165 633 q 435 722 335 722 q 562 703 508 722 q 661 656 615 685 q 689 607 689 638 q 673 569 689 586 q 636 551 657 551 q 606 560 621 551 q 527 594 560 583 q 446 604 494 604 q 258 535 326 604 q 190 354 190 467 q 258 173 190 242 q 446 104 326 104 q 527 115 494 104 q 606 149 560 125 q 636 157 621 157 z "},"d":{"ha":876,"x_min":67,"x_max":767,"o":"m 403 722 q 640 617 539 722 l 640 957 q 659 1003 640 985 q 704 1021 678 1021 q 749 1002 731 1021 q 767 957 767 983 l 767 56 q 749 11 767 29 q 704 -7 731 -7 q 659 11 678 -7 q 640 56 640 29 l 640 92 q 403 -14 539 -14 q 240 30 317 -14 q 115 158 163 74 q 67 354 67 242 q 115 551 67 467 q 240 678 163 635 q 403 722 317 722 m 421 104 q 541 133 485 104 q 640 208 597 161 l 640 500 q 541 576 597 547 q 421 604 485 604 q 256 539 318 604 q 193 354 193 474 q 256 169 193 235 q 421 104 318 104 z "},"e":{"ha":792,"x_min":68,"x_max":731,"o":"m 651 153 q 690 138 674 153 q 707 99 707 122 q 671 47 707 68 q 564 1 617 17 q 428 -14 511 -14 q 163 83 258 -14 q 68 354 68 179 q 104 536 68 453 q 215 671 140 619 q 400 722 290 722 q 578 674 503 722 q 692 547 653 626 q 731 372 731 467 q 713 328 731 346 q 667 310 696 310 l 196 310 q 268 158 207 213 q 439 104 329 104 q 541 115 497 104 q 626 147 585 126 q 651 153 638 153 m 400 615 q 307 594 353 615 q 231 526 261 572 q 196 413 200 481 l 606 413 q 570 526 601 481 q 493 594 539 572 q 400 615 447 615 z "},"f":{"ha":528,"x_min":26,"x_max":524,"o":"m 403 907 q 317 881 346 907 q 289 785 289 854 l 289 708 l 463 708 q 501 693 486 708 q 517 654 517 678 q 501 616 517 632 q 463 600 486 600 l 289 600 l 289 56 q 270 11 289 29 q 225 -7 251 -7 q 181 11 199 -7 q 163 56 163 29 l 163 600 l 81 600 q 42 616 58 600 q 26 654 26 632 q 42 693 26 678 q 81 708 58 708 l 163 708 l 163 789 q 192 926 163 872 q 270 1003 222 979 q 371 1028 318 1028 q 492 1000 436 1028 q 515 980 506 993 q 524 951 524 967 q 508 915 524 931 q 472 899 493 899 q 440 903 457 899 q 403 907 407 907 z "},"g":{"ha":876,"x_min":67,"x_max":767,"o":"m 703 715 q 748 697 729 715 q 767 651 767 678 l 767 31 q 682 -239 767 -144 q 440 -333 597 -333 q 278 -312 360 -333 q 143 -261 196 -292 q 118 -212 118 -246 q 134 -173 118 -190 q 174 -156 150 -156 q 199 -161 185 -156 q 428 -214 304 -214 q 640 13 640 -214 l 640 106 q 403 0 542 0 q 244 41 321 0 q 117 163 167 82 q 67 361 67 244 q 117 559 67 478 q 244 681 167 640 q 403 722 321 722 q 640 617 542 722 l 640 651 q 658 697 640 678 q 703 715 676 715 m 640 504 q 544 579 594 551 q 429 607 494 607 q 259 544 325 607 q 193 361 193 481 q 259 178 193 242 q 429 115 325 115 q 544 143 494 115 q 640 218 594 171 l 640 504 z "},"h":{"ha":846,"x_min":110,"x_max":743,"o":"m 494 722 q 627 686 571 722 q 713 588 683 650 q 743 450 743 525 l 743 56 q 724 11 743 29 q 679 -7 706 -7 q 635 11 653 -7 q 617 56 617 29 l 617 436 q 464 606 617 606 q 340 569 394 606 q 236 472 285 533 l 236 56 q 217 11 236 29 q 172 -7 199 -7 q 128 11 146 -7 q 110 56 110 29 l 110 957 q 128 1002 110 983 q 172 1021 146 1021 q 217 1002 199 1021 q 236 957 236 983 l 236 594 q 350 688 289 653 q 494 722 411 722 z "},"i":{"ha":357,"x_min":104,"x_max":254,"o":"m 254 924 q 233 874 254 894 q 183 853 213 853 l 175 853 q 125 874 146 853 q 104 924 104 894 l 104 929 q 125 979 104 958 q 175 1000 146 1000 l 183 1000 q 233 979 213 1000 q 254 929 254 958 l 254 924 m 178 715 q 224 697 206 715 q 242 651 242 679 l 242 56 q 223 11 242 29 q 178 -7 204 -7 q 133 11 151 -7 q 115 56 115 29 l 115 651 q 133 697 115 678 q 178 715 151 715 z "},"j":{"ha":357,"x_min":-64,"x_max":254,"o":"m 254 924 q 233 874 254 894 q 183 853 213 853 l 175 853 q 125 874 146 853 q 104 924 104 894 l 104 929 q 125 979 104 958 q 175 1000 146 1000 l 183 1000 q 233 979 213 1000 q 254 929 254 958 l 254 924 m 178 714 q 224 696 206 714 q 242 650 242 678 l 242 -143 q 198 -281 242 -229 q 60 -333 154 -333 q -28 -321 10 -333 q -54 -302 -44 -315 q -64 -271 -64 -289 q -49 -234 -64 -250 q -11 -218 -33 -218 q 10 -220 -3 -218 q 31 -222 22 -222 q 94 -207 74 -222 q 115 -140 115 -192 l 115 650 q 133 695 115 676 q 178 714 151 714 z "},"k":{"ha":758,"x_min":110,"x_max":711,"o":"m 697 92 q 711 54 711 74 q 693 10 711 26 q 647 -7 675 -7 q 619 0 633 -7 q 596 19 606 7 l 357 344 l 236 235 l 236 56 q 217 11 236 29 q 172 -7 199 -7 q 128 11 146 -7 q 110 56 110 29 l 110 957 q 128 1002 110 983 q 172 1021 146 1021 q 217 1002 199 1021 q 236 957 236 983 l 236 389 l 567 694 q 608 713 588 713 q 655 694 640 713 q 669 651 669 676 q 646 604 669 628 l 446 425 l 697 92 z "},"l":{"ha":368,"x_min":121,"x_max":247,"o":"m 183 1021 q 229 1003 211 1021 q 247 957 247 985 l 247 56 q 228 11 247 29 q 183 -7 210 -7 q 139 11 157 -7 q 121 56 121 29 l 121 957 q 139 1002 121 983 q 183 1021 157 1021 z "},"m":{"ha":1276,"x_min":110,"x_max":1172,"o":"m 940 722 q 1070 683 1018 722 q 1147 583 1122 644 q 1172 456 1172 522 l 1172 56 q 1153 11 1172 29 q 1108 -7 1135 -7 q 1064 11 1082 -7 q 1046 56 1046 29 l 1046 431 q 1014 563 1046 521 q 904 606 982 606 q 787 569 833 606 q 704 472 740 532 l 704 56 q 685 11 704 29 q 640 -7 667 -7 q 596 11 614 -7 q 578 56 578 29 l 578 431 q 546 563 578 521 q 436 606 514 606 q 319 569 365 606 q 236 472 272 532 l 236 56 q 217 11 236 29 q 172 -7 199 -7 q 128 11 146 -7 q 110 56 110 29 l 110 651 q 128 697 110 678 q 172 715 146 715 q 217 697 199 715 q 236 651 236 678 l 236 594 q 330 686 275 650 q 472 722 385 722 q 606 681 550 722 q 685 579 661 639 q 940 722 771 722 z "},"n":{"ha":846,"x_min":110,"x_max":743,"o":"m 494 722 q 627 686 571 722 q 713 588 683 650 q 743 450 743 525 l 743 56 q 724 11 743 29 q 679 -7 706 -7 q 635 11 653 -7 q 617 56 617 29 l 617 436 q 464 606 617 606 q 340 569 394 606 q 236 472 285 533 l 236 56 q 217 11 236 29 q 172 -7 199 -7 q 128 11 146 -7 q 110 56 110 29 l 110 651 q 128 697 110 678 q 172 715 146 715 q 217 697 199 715 q 236 651 236 678 l 236 594 q 350 688 289 653 q 494 722 411 722 z "},"o":{"ha":844,"x_min":67,"x_max":778,"o":"m 422 722 q 608 676 528 722 q 733 547 689 631 q 778 354 778 463 q 733 162 778 246 q 608 32 689 78 q 422 -14 528 -14 q 235 32 315 -14 q 110 162 154 78 q 67 354 67 246 q 110 547 67 463 q 235 676 154 631 q 422 722 315 722 m 422 101 q 531 128 479 101 q 617 211 583 154 q 651 356 651 268 q 617 499 651 442 q 531 581 583 556 q 422 607 479 607 q 312 581 364 607 q 226 499 260 556 q 193 356 193 442 q 226 211 193 268 q 312 128 260 154 q 422 101 364 101 z "},"p":{"ha":876,"x_min":110,"x_max":810,"o":"m 474 -14 q 236 92 338 -14 l 236 -262 q 218 -308 236 -290 q 172 -326 200 -326 q 128 -308 146 -326 q 110 -262 110 -289 l 110 653 q 128 697 110 679 q 172 715 146 715 q 217 697 199 715 q 236 653 236 679 l 236 617 q 474 722 338 722 q 637 678 560 722 q 762 551 714 635 q 810 354 810 467 q 762 158 810 242 q 637 30 714 74 q 474 -14 560 -14 m 456 604 q 335 576 392 604 q 236 500 279 547 l 236 208 q 335 133 279 161 q 456 104 392 104 q 621 169 558 104 q 683 354 683 235 q 621 539 683 474 q 456 604 558 604 z "},"q":{"ha":876,"x_min":67,"x_max":767,"o":"m 403 -14 q 240 30 317 -14 q 115 158 163 74 q 67 354 67 242 q 115 551 67 467 q 240 678 163 635 q 403 722 317 722 q 640 617 539 722 l 640 653 q 659 697 640 679 q 704 715 678 715 q 749 697 731 715 q 767 653 767 679 l 767 -262 q 749 -308 767 -289 q 704 -326 731 -326 q 659 -308 678 -326 q 640 -262 640 -290 l 640 92 q 403 -14 539 -14 m 421 604 q 256 539 318 604 q 193 354 193 474 q 256 169 193 235 q 421 104 318 104 q 541 133 485 104 q 640 208 597 161 l 640 500 q 541 576 597 547 q 421 604 485 604 z "},"r":{"ha":538,"x_min":110,"x_max":522,"o":"m 461 722 q 505 704 488 722 q 522 660 522 686 q 504 617 522 633 q 458 600 486 600 l 451 600 q 329 567 385 600 q 236 478 274 535 l 236 56 q 217 11 236 29 q 172 -7 199 -7 q 128 11 146 -7 q 110 56 110 29 l 110 651 q 128 697 110 678 q 172 715 146 715 q 217 697 199 715 q 236 651 236 678 l 236 592 q 454 722 333 722 l 461 722 z "},"s":{"ha":667,"x_min":67,"x_max":611,"o":"m 193 510 q 232 449 193 468 q 353 411 271 429 q 486 370 435 390 q 574 307 538 350 q 611 192 611 264 q 541 44 611 103 q 343 -14 471 -14 q 90 49 204 -14 q 67 94 67 65 q 82 133 67 117 q 121 150 97 150 q 146 144 133 150 q 235 114 190 125 q 335 103 279 103 q 489 201 489 103 q 453 250 489 233 q 338 288 418 267 q 202 328 256 307 q 110 391 149 349 q 72 503 72 433 q 142 661 72 600 q 343 722 213 722 q 544 688 450 722 q 574 667 564 682 q 585 635 585 651 q 569 596 585 613 q 529 579 553 579 q 511 582 522 579 q 353 607 431 607 q 235 580 278 607 q 193 510 193 553 z "},"t":{"ha":533,"x_min":31,"x_max":506,"o":"m 456 110 q 490 95 475 110 q 506 60 506 81 q 474 11 506 28 q 358 -14 419 -14 q 156 169 156 -14 l 156 600 l 57 600 q 38 608 46 600 q 31 626 31 615 q 43 650 31 640 l 232 835 q 256 847 244 847 q 274 839 267 847 q 282 819 282 831 l 282 708 l 439 708 q 478 693 463 708 q 493 654 493 678 q 478 616 493 632 q 439 600 463 600 l 282 600 l 282 181 q 308 112 282 126 q 372 97 333 97 q 428 106 400 97 q 440 108 433 107 q 456 110 446 110 z "},"u":{"ha":847,"x_min":104,"x_max":738,"o":"m 353 -14 q 220 22 276 -14 q 134 121 164 58 q 104 258 104 183 l 104 653 q 123 697 104 679 q 168 715 142 715 q 213 697 194 715 q 231 653 231 679 l 231 272 q 383 103 231 103 q 508 139 453 103 q 611 236 563 175 l 611 653 q 630 697 611 679 q 675 715 649 715 q 719 697 701 715 q 738 653 738 679 l 738 57 q 719 12 738 31 q 675 -7 701 -7 q 630 12 649 -7 q 611 57 611 31 l 611 114 q 497 21 558 56 q 353 -14 436 -14 z "},"v":{"ha":736,"x_min":36,"x_max":700,"o":"m 638 715 q 682 697 664 715 q 700 651 700 678 q 693 622 700 639 l 451 44 q 421 8 442 22 q 375 -7 400 -7 l 361 -7 q 315 8 336 -7 q 285 44 294 22 l 43 622 q 36 651 36 639 q 54 697 36 678 q 99 715 72 715 q 133 705 117 715 q 156 679 149 694 l 368 140 l 581 679 q 603 705 588 694 q 638 715 619 715 z "},"w":{"ha":1090,"x_min":35,"x_max":1057,"o":"m 994 715 q 1039 697 1021 715 q 1057 653 1057 679 q 1053 629 1057 642 l 856 51 q 825 10 847 26 q 775 -7 803 -7 q 725 10 747 -7 q 693 53 703 26 l 546 513 l 399 53 q 367 10 389 26 q 317 -7 344 -7 q 267 10 289 -7 q 236 51 244 26 l 39 629 q 35 653 35 642 q 53 697 35 679 q 97 715 71 715 q 133 705 117 715 q 154 678 149 694 l 317 143 l 478 665 q 503 701 485 688 q 546 715 522 715 q 588 701 569 715 q 614 665 607 688 l 775 143 l 938 678 q 959 705 943 694 q 994 715 975 715 z "},"x":{"ha":753,"x_min":71,"x_max":683,"o":"m 667 97 q 682 57 682 81 q 665 12 682 31 q 618 -7 649 -7 q 569 18 588 -7 l 372 254 l 186 21 q 132 -7 165 -7 q 88 10 104 -7 q 72 57 72 28 q 86 96 72 78 l 301 350 l 86 613 q 71 653 71 632 q 89 698 71 681 q 133 715 107 715 q 183 692 167 715 l 378 451 l 571 692 q 619 715 588 715 q 665 698 647 715 q 683 656 683 681 q 669 617 683 635 l 450 358 l 667 97 z "},"y":{"ha":740,"x_min":33,"x_max":707,"o":"m 707 651 q 703 628 707 639 l 324 -283 q 265 -326 304 -326 q 223 -308 240 -326 q 206 -265 206 -290 q 210 -243 206 -254 l 300 -11 l 39 625 q 33 651 33 639 q 51 697 33 678 q 96 715 69 715 q 131 704 115 715 q 154 676 147 693 l 368 146 l 586 674 q 644 715 604 715 q 689 697 671 715 q 707 651 707 678 z "},"z":{"ha":693,"x_min":54,"x_max":635,"o":"m 635 58 q 617 17 635 33 q 575 0 600 0 l 142 0 q 79 19 104 0 q 54 74 54 39 q 76 131 54 106 l 476 590 l 125 590 q 83 607 100 590 q 67 649 67 624 q 83 691 67 674 q 125 708 100 708 l 546 708 q 604 686 582 708 q 626 629 626 664 q 607 574 626 597 l 218 118 l 575 118 q 617 101 600 118 q 635 58 635 83 z "},"{":{"ha":478,"x_min":4,"x_max":439,"o":"m 374 -201 q 230 -165 281 -201 q 179 -35 179 -129 l 179 258 q 172 307 179 288 q 138 344 165 326 q 51 371 110 361 q 16 390 28 375 q 4 426 4 404 q 16 463 4 449 q 51 482 28 478 q 138 509 110 492 q 172 546 165 526 q 179 594 179 565 l 179 888 q 230 1018 179 982 q 374 1054 281 1054 l 390 1054 q 424 1040 410 1054 q 439 1006 439 1025 q 424 972 439 986 q 390 957 410 957 l 369 957 q 302 940 317 957 q 288 899 288 924 l 288 590 q 163 426 288 472 q 288 263 288 381 l 288 -46 q 302 -87 288 -71 q 369 -104 317 -104 l 390 -104 q 424 -119 410 -104 q 439 -153 439 -133 q 424 -187 439 -172 q 390 -201 410 -201 l 374 -201 z "},"|":{"ha":351,"x_min":119,"x_max":232,"o":"m 175 1029 q 215 1013 199 1029 q 232 972 232 996 l 232 -217 q 215 -256 232 -240 q 175 -272 199 -272 q 135 -256 151 -272 q 119 -217 119 -240 l 119 972 q 135 1013 119 996 q 175 1029 151 1029 z "},"}":{"ha":478,"x_min":39,"x_max":474,"o":"m 88 -201 q 53 -187 68 -201 q 39 -153 39 -172 q 53 -119 39 -133 q 88 -104 68 -104 l 108 -104 q 176 -87 161 -104 q 190 -46 190 -71 l 190 263 q 315 426 190 381 q 190 590 190 472 l 190 899 q 176 940 190 924 q 108 957 161 957 l 88 957 q 53 972 68 957 q 39 1006 39 986 q 53 1040 39 1025 q 88 1054 68 1054 l 104 1054 q 248 1018 197 1054 q 299 888 299 982 l 299 594 q 306 546 299 565 q 340 509 313 526 q 426 482 368 492 q 462 463 450 478 q 474 426 474 449 q 462 390 474 404 q 426 371 450 375 q 340 344 368 361 q 306 307 313 326 q 299 258 299 288 l 299 -35 q 248 -165 299 -129 q 104 -201 197 -201 l 88 -201 z "},"~":{"ha":886,"x_min":103,"x_max":792,"o":"m 754 508 q 781 497 769 508 q 788 465 792 486 q 724 332 771 378 q 611 286 676 286 q 515 301 558 286 q 408 346 471 317 q 330 381 360 369 q 269 392 300 392 q 172 317 193 392 q 160 298 169 306 q 139 290 151 290 q 114 301 125 290 q 103 326 103 313 q 127 413 103 369 q 192 483 151 456 q 279 510 233 510 q 377 494 333 510 q 483 450 421 479 q 562 415 532 426 q 622 404 592 404 q 676 417 661 404 q 708 461 692 429 q 721 488 713 472 q 754 508 732 508 z "}," ":{"ha":361,"x_min":0,"x_max":0,"o":""},"¡":{"ha":360,"x_min":99,"x_max":264,"o":"m 181 549 q 123 573 147 549 q 99 631 99 597 q 123 690 99 665 q 181 714 147 714 q 240 690 215 714 q 264 631 264 665 q 240 573 264 597 q 181 549 215 549 m 181 440 q 213 429 201 440 q 226 400 225 418 l 251 -58 l 251 -196 q 231 -247 251 -226 q 181 -268 211 -268 q 129 -247 150 -268 q 108 -196 108 -226 l 108 -58 l 133 400 q 147 429 135 418 q 181 440 160 440 z "},"¢":{"ha":765,"x_min":61,"x_max":686,"o":"m 582 861 q 610 849 599 861 q 621 821 621 838 q 618 807 621 815 l 581 696 q 658 656 619 682 q 686 607 686 638 q 670 569 686 586 q 633 551 654 551 q 603 560 618 551 l 543 588 l 379 110 q 443 104 406 104 q 524 115 492 104 q 603 149 557 125 q 633 157 618 157 q 670 140 654 157 q 686 101 686 122 q 658 53 686 71 q 559 5 613 24 q 432 -14 506 -14 q 340 -3 388 -14 l 292 -146 q 277 -165 288 -158 q 254 -171 267 -171 q 226 -159 238 -171 q 215 -132 215 -147 q 219 -114 215 -122 l 265 21 q 117 149 172 63 q 61 354 61 235 q 112 550 61 467 q 247 678 163 633 q 432 722 332 722 q 504 717 460 722 l 544 835 q 559 853 549 846 q 582 861 569 861 m 188 354 q 218 223 188 279 q 306 136 249 167 l 465 603 q 443 604 458 604 q 256 535 324 604 q 188 354 188 467 z "},"£":{"ha":839,"x_min":54,"x_max":785,"o":"m 728 129 q 768 113 751 129 q 785 74 785 97 q 753 24 785 42 q 606 -14 685 -14 q 538 -6 567 -14 q 468 17 510 1 q 399 40 429 32 q 329 49 369 49 q 179 1 249 49 q 147 -10 164 -10 q 111 5 126 -10 q 96 39 96 19 q 115 82 96 65 q 206 204 168 132 q 243 354 243 276 q 235 426 243 392 l 85 426 q 63 435 71 426 q 54 457 54 443 q 63 480 54 471 q 85 489 71 489 l 218 489 l 210 515 q 183 609 192 568 q 174 697 174 650 q 266 907 174 831 q 511 983 358 983 q 711 943 614 983 q 753 888 753 926 q 736 846 753 863 q 694 829 719 829 q 668 835 685 829 q 517 861 586 861 q 349 815 399 861 q 300 703 300 769 q 308 626 300 664 q 335 535 317 589 l 349 489 l 594 489 q 617 480 608 489 q 626 457 626 471 q 617 435 626 443 q 594 426 608 426 l 363 426 q 368 363 368 399 q 310 164 368 256 l 344 165 q 409 158 381 165 q 488 136 438 151 q 556 115 526 122 q 618 108 586 108 q 706 124 663 108 q 728 129 722 129 z "},"¤":{"ha":928,"x_min":92,"x_max":836,"o":"m 143 113 q 106 128 121 113 q 92 164 92 143 q 107 200 92 185 l 197 290 q 135 485 135 379 q 197 679 135 590 l 107 769 q 92 806 92 785 q 106 842 92 826 q 143 857 121 857 q 179 842 161 857 l 271 751 q 464 814 358 814 q 657 751 569 814 l 749 842 q 785 857 767 857 q 822 842 807 857 q 836 806 836 826 q 821 769 836 785 l 731 679 q 793 485 793 590 q 731 290 793 379 l 821 200 q 836 164 836 185 q 822 128 836 143 q 785 113 807 113 q 749 128 767 113 l 657 218 q 464 156 569 156 q 271 218 358 156 l 179 128 q 143 113 161 113 m 464 701 q 356 672 406 701 q 276 593 306 643 q 247 485 247 543 q 276 376 247 426 q 356 297 306 326 q 464 268 406 268 q 572 297 522 268 q 651 376 622 326 q 681 485 681 426 q 651 593 681 543 q 572 672 622 643 q 464 701 522 701 z "},"¥":{"ha":914,"x_min":90,"x_max":824,"o":"m 697 950 q 757 989 719 989 q 804 971 785 989 q 824 924 824 953 q 813 888 824 906 l 579 507 l 715 507 q 752 492 738 507 q 767 454 767 476 q 752 417 767 432 q 715 403 738 403 l 519 403 l 519 276 l 715 276 q 752 261 738 276 q 767 224 767 246 q 752 187 767 201 q 715 172 738 172 l 519 172 l 519 54 q 501 10 519 28 q 457 -8 482 -8 q 413 10 432 -8 q 394 54 394 28 l 394 172 l 199 172 q 162 187 176 172 q 147 224 147 201 q 162 261 147 246 q 199 276 176 276 l 394 276 l 394 403 l 199 403 q 162 417 176 403 q 147 454 147 432 q 162 492 147 476 q 199 507 176 507 l 335 507 l 101 888 q 90 924 90 906 q 110 971 90 953 q 157 989 129 989 q 217 950 194 989 l 457 529 l 697 950 z "},"§":{"ha":735,"x_min":65,"x_max":665,"o":"m 528 229 q 618 63 618 168 q 548 -85 618 -26 q 350 -143 478 -143 q 88 -81 186 -143 q 72 -62 78 -75 q 65 -35 65 -49 q 81 5 65 -11 q 119 21 97 21 q 149 13 132 21 q 342 -26 226 -26 q 499 71 499 -26 q 460 134 499 110 q 338 190 421 158 q 205 247 257 221 q 116 320 153 274 q 79 435 79 367 q 215 610 79 564 q 126 778 126 675 q 197 925 126 867 q 394 983 267 983 q 603 946 511 983 q 630 925 619 939 q 640 892 640 911 q 623 853 640 869 q 583 836 606 836 q 563 840 574 836 q 403 867 492 867 q 246 769 246 867 q 285 706 246 731 q 407 650 324 682 q 540 592 489 618 q 628 519 592 565 q 665 406 665 474 q 528 229 665 274 m 444 275 q 549 397 549 300 q 526 456 549 432 q 468 497 503 481 q 372 536 433 513 q 340 549 358 542 q 299 565 321 556 q 196 443 196 540 q 219 384 196 408 q 276 344 242 360 q 371 304 310 328 l 444 275 z "},"¨":{"ha":556,"x_min":88,"x_max":464,"o":"m 158 940 q 208 919 188 940 q 229 869 229 899 q 208 819 229 840 q 158 799 188 799 q 108 819 129 799 q 88 869 88 840 q 108 919 88 899 q 158 940 129 940 m 393 940 q 443 919 422 940 q 464 869 464 899 q 443 819 464 840 q 393 799 422 799 q 343 819 364 799 q 322 869 322 840 q 343 919 322 899 q 393 940 364 940 z "},"©":{"ha":1138,"x_min":71,"x_max":1068,"o":"m 569 -12 q 320 55 435 -12 q 138 236 206 122 q 71 485 71 350 q 138 733 71 619 q 320 915 206 847 q 569 982 435 982 q 819 915 704 982 q 1001 733 933 847 q 1068 485 1068 619 q 1001 236 1068 350 q 819 55 933 122 q 569 -12 704 -12 m 568 910 q 356 852 453 910 q 201 697 258 794 q 143 485 143 600 q 201 272 143 369 q 356 117 258 175 q 568 60 453 60 q 783 117 685 60 q 938 272 881 175 q 996 485 996 369 q 938 697 996 600 q 783 852 881 794 q 568 910 685 910 m 813 349 q 718 241 778 279 q 578 203 658 203 q 438 238 499 203 q 344 336 378 272 q 310 485 310 400 q 344 633 310 569 q 438 732 378 697 q 578 767 499 767 q 718 728 658 767 q 813 621 778 690 q 817 603 817 613 q 804 572 817 585 q 772 558 792 558 q 729 589 746 558 q 578 682 676 682 q 449 625 494 682 q 403 485 403 568 q 449 344 403 401 q 578 288 494 288 q 729 381 676 288 q 772 411 746 411 q 804 399 792 411 q 817 367 817 386 q 813 349 817 357 z "},"ª":{"ha":674,"x_min":92,"x_max":563,"o":"m 442 771 q 413 861 442 833 q 324 889 383 889 q 197 867 258 889 q 183 864 189 864 q 152 877 165 864 q 139 908 139 890 q 148 933 139 922 q 171 950 157 944 q 339 983 258 983 q 490 926 439 983 q 542 790 542 869 l 542 525 q 527 490 542 504 q 492 475 513 475 q 456 490 471 475 q 442 525 442 504 l 442 538 q 374 490 417 508 q 274 471 332 471 q 160 511 207 471 q 113 619 113 551 q 169 729 113 690 q 336 768 225 768 l 442 768 l 442 771 m 306 561 q 380 580 344 561 q 442 626 415 599 l 442 693 l 347 693 q 247 678 282 693 q 213 628 213 663 q 306 561 213 561 m 524 396 q 551 384 539 396 q 563 357 563 372 q 551 330 563 342 q 524 318 539 318 l 131 318 q 103 330 115 318 q 92 357 92 342 q 103 384 92 372 q 131 396 115 396 l 524 396 z "},"«":{"ha":813,"x_min":75,"x_max":710,"o":"m 421 82 q 406 43 421 58 q 367 28 390 28 q 328 43 340 28 l 100 294 q 75 354 75 322 q 100 414 75 386 l 328 665 q 367 681 340 681 q 406 665 390 681 q 421 626 421 650 q 408 590 421 606 l 186 354 l 408 118 q 421 82 421 104 m 710 82 q 694 43 710 58 q 656 28 679 28 q 617 43 629 28 l 389 294 q 364 354 364 322 q 389 414 364 386 l 617 665 q 656 681 629 681 q 694 665 679 681 q 710 626 710 650 q 697 590 710 606 l 475 354 l 697 118 q 710 82 710 104 z "},"¬":{"ha":804,"x_min":101,"x_max":689,"o":"m 631 532 q 672 515 654 532 q 689 474 689 497 l 689 285 q 674 248 689 263 q 636 233 658 233 q 599 248 614 233 q 585 285 585 263 l 585 432 l 151 432 q 116 447 131 432 q 101 482 101 461 q 116 517 101 503 q 151 532 131 532 l 631 532 z "},"®":{"ha":1138,"x_min":71,"x_max":1068,"o":"m 569 983 q 819 916 704 983 q 1001 734 933 849 q 1068 485 1068 619 q 1001 235 1068 350 q 819 53 933 121 q 569 -14 704 -14 q 320 53 435 -14 q 138 235 206 121 q 71 485 71 350 q 138 734 71 619 q 320 916 206 849 q 569 983 435 983 m 568 58 q 783 116 685 58 q 938 272 881 174 q 996 486 996 369 q 938 699 996 601 q 783 853 881 796 q 568 911 685 911 q 356 853 453 911 q 201 699 258 796 q 143 486 143 601 q 201 272 143 369 q 356 116 258 174 q 568 58 453 58 m 810 594 q 781 510 810 544 q 707 460 751 476 q 774 403 746 446 q 803 286 803 361 l 803 249 q 789 215 803 229 q 756 201 775 201 q 722 215 736 201 q 708 249 708 229 l 708 274 q 691 374 708 333 q 607 415 674 415 l 456 415 l 456 247 q 442 215 456 228 q 408 201 428 201 q 376 215 389 201 q 363 247 363 228 l 363 697 q 381 742 363 724 q 425 761 399 761 l 592 761 q 756 715 701 761 q 810 594 810 669 m 588 497 q 683 522 647 497 q 718 592 718 546 q 688 658 718 635 q 585 681 657 681 l 456 681 l 456 497 l 588 497 z "},"¯":{"ha":433,"x_min":11,"x_max":419,"o":"m 378 900 q 408 888 396 900 q 419 858 419 876 q 408 828 419 840 q 378 817 396 817 l 53 817 q 23 828 35 817 q 11 858 11 840 q 23 888 11 876 q 53 900 35 900 l 378 900 z "},"°":{"ha":525,"x_min":72,"x_max":453,"o":"m 263 983 q 358 958 314 983 q 427 888 401 932 q 453 793 453 844 q 427 698 453 742 q 358 628 401 654 q 263 603 314 603 q 167 628 211 603 q 98 698 124 654 q 72 793 72 742 q 98 888 72 844 q 167 958 124 932 q 263 983 211 983 m 263 675 q 346 710 311 675 q 381 793 381 744 q 346 876 381 842 q 263 911 311 911 q 179 876 214 911 q 144 793 144 842 q 179 710 144 744 q 263 675 214 675 z "},"±":{"ha":842,"x_min":86,"x_max":756,"o":"m 139 475 q 101 490 117 475 q 86 528 86 506 q 101 567 86 551 q 139 582 117 582 l 367 582 l 367 801 q 383 840 367 825 q 421 856 399 856 q 460 840 444 856 q 475 801 475 825 l 475 582 l 701 582 q 740 567 725 582 q 756 528 756 551 q 740 490 756 506 q 701 475 725 475 l 475 475 l 475 256 q 460 217 475 233 q 421 201 444 201 q 383 217 399 201 q 367 256 367 233 l 367 475 l 139 475 m 701 107 q 740 92 725 107 q 756 53 756 76 q 740 15 756 31 q 701 0 725 0 l 139 0 q 101 15 117 0 q 86 53 86 31 q 101 92 86 76 q 139 107 117 107 l 701 107 z "},"²":{"ha":514,"x_min":53,"x_max":454,"o":"m 413 708 q 442 697 431 708 q 454 667 454 685 q 442 638 454 649 q 413 626 431 626 l 107 626 q 68 643 83 626 q 53 682 53 660 q 97 781 53 739 q 226 876 142 822 q 328 949 296 921 q 361 1013 361 978 q 335 1073 361 1050 q 253 1096 308 1096 q 121 1065 176 1096 q 103 1061 113 1061 q 75 1072 86 1061 q 64 1100 64 1082 q 83 1135 64 1124 q 264 1181 156 1181 q 397 1134 344 1181 q 449 1018 449 1088 q 420 930 449 971 q 353 859 392 889 q 253 789 314 829 q 185 743 210 761 q 149 708 161 725 l 413 708 z "},"³":{"ha":514,"x_min":50,"x_max":447,"o":"m 342 908 q 417 862 386 894 q 447 774 447 829 q 398 663 447 707 q 244 618 349 618 q 74 653 136 618 q 57 668 64 658 q 50 690 50 678 q 63 719 50 707 q 90 731 75 731 q 106 728 94 731 q 170 710 143 717 q 232 704 197 704 q 325 722 290 704 q 360 776 360 740 q 204 863 360 863 l 189 863 q 159 874 171 863 q 147 904 147 886 q 159 934 147 922 q 189 946 171 946 l 196 946 q 301 965 261 946 q 342 1026 342 983 q 310 1080 342 1064 q 233 1096 278 1096 q 114 1069 169 1096 q 96 1065 106 1065 q 69 1076 81 1065 q 57 1103 57 1086 q 83 1139 57 1125 q 239 1181 161 1181 q 381 1140 335 1181 q 428 1033 428 1099 q 403 953 428 983 q 342 908 378 922 z "},"´":{"ha":333,"x_min":67,"x_max":244,"o":"m 193 1003 q 231 989 217 1003 q 244 951 244 975 q 231 917 244 932 l 135 803 q 104 788 122 788 q 77 798 88 788 q 67 825 67 808 q 76 851 67 838 l 147 976 q 193 1003 161 1003 z "},"µ":{"ha":839,"x_min":117,"x_max":750,"o":"m 688 715 q 732 697 714 715 q 750 653 750 679 l 750 57 q 732 12 750 31 q 688 -7 714 -7 q 642 12 661 -7 q 624 57 624 31 l 624 114 q 512 20 568 54 q 372 -14 456 -14 q 243 24 299 -14 l 243 -240 q 224 -285 243 -267 q 179 -303 206 -303 q 135 -285 153 -303 q 117 -240 117 -267 l 117 653 q 135 697 117 679 q 181 715 154 715 q 225 697 207 715 q 243 653 243 679 l 243 272 q 396 103 243 103 q 520 139 465 103 q 624 236 575 175 l 624 653 q 642 697 624 679 q 688 715 661 715 z "},"¶":{"ha":1017,"x_min":54,"x_max":956,"o":"m 900 969 q 940 953 924 969 q 956 914 956 938 q 940 876 956 892 q 900 860 924 860 l 836 860 l 836 -256 q 820 -295 836 -279 q 781 -311 804 -311 q 742 -295 758 -311 q 726 -256 726 -279 l 726 860 l 571 860 l 571 -256 q 555 -295 571 -279 q 515 -311 539 -311 q 477 -295 493 -311 q 461 -256 461 -279 l 461 256 l 411 256 q 232 303 314 256 q 102 433 150 351 q 54 613 54 515 q 102 792 54 710 q 232 922 150 874 q 411 969 314 969 l 900 969 z "},"·":{"ha":361,"x_min":96,"x_max":265,"o":"m 188 478 q 242 455 219 478 q 265 400 265 432 l 265 392 q 242 337 265 360 q 188 314 219 314 l 174 314 q 119 337 142 314 q 96 392 96 360 l 96 400 q 119 455 96 432 q 174 478 142 478 l 188 478 z "},"¸":{"ha":426,"x_min":63,"x_max":357,"o":"m 250 -82 q 327 -109 297 -82 q 357 -179 357 -136 q 317 -275 357 -243 q 203 -307 278 -307 q 78 -271 136 -307 q 67 -260 72 -267 q 63 -247 63 -254 q 69 -228 63 -236 q 89 -219 76 -219 q 103 -224 94 -219 q 185 -247 146 -247 q 264 -183 264 -247 q 250 -151 264 -162 q 214 -140 236 -140 q 153 -156 183 -140 q 139 -160 144 -160 q 122 -153 129 -160 q 114 -137 114 -147 q 119 -118 114 -126 l 208 24 l 267 24 l 203 -87 q 250 -82 225 -82 z "},"¹":{"ha":514,"x_min":108,"x_max":433,"o":"m 392 708 q 422 697 410 708 q 433 667 433 685 q 422 638 433 649 q 392 626 410 626 l 150 626 q 121 638 132 626 q 110 667 110 649 q 121 697 110 685 q 150 708 132 708 l 233 708 l 233 1076 l 171 1046 q 150 1040 157 1040 q 121 1052 133 1040 q 108 1082 108 1064 q 115 1104 108 1093 q 135 1121 122 1115 l 235 1172 q 263 1179 249 1179 q 306 1162 289 1179 q 322 1119 322 1144 l 322 708 l 392 708 z "},"º":{"ha":714,"x_min":97,"x_max":617,"o":"m 357 983 q 537 913 469 983 q 604 728 604 843 q 537 542 604 613 q 357 471 469 471 q 177 542 244 471 q 110 728 110 613 q 177 913 110 843 q 357 983 244 983 m 357 560 q 460 602 415 560 q 504 729 504 644 q 460 854 504 813 q 357 896 415 896 q 254 854 299 896 q 210 729 210 813 q 254 602 210 644 q 357 560 299 560 m 578 396 q 605 384 593 396 q 617 357 617 372 q 605 330 617 342 q 578 318 593 318 l 136 318 q 109 330 121 318 q 97 357 97 342 q 109 384 97 372 q 136 396 121 396 l 578 396 z "},"»":{"ha":813,"x_min":103,"x_max":738,"o":"m 103 82 q 115 118 103 104 l 338 354 l 115 590 q 103 626 103 606 q 118 665 103 650 q 157 681 133 681 q 196 665 183 681 l 424 414 q 449 354 449 386 q 424 294 449 322 l 196 43 q 157 28 183 28 q 118 43 133 28 q 103 82 103 58 m 392 82 q 404 118 392 104 l 626 354 l 404 590 q 392 626 392 606 q 407 665 392 650 q 446 681 422 681 q 485 665 472 681 l 713 414 q 738 354 738 386 q 713 294 738 322 l 485 43 q 446 28 472 28 q 407 43 422 28 q 392 82 392 58 z "},"¼":{"ha":1306,"x_min":118,"x_max":1204,"o":"m 364 -33 q 331 -20 344 -33 q 317 14 317 -7 q 324 39 317 25 l 899 986 q 938 1006 910 1006 q 971 992 957 1006 q 985 958 985 979 q 978 933 985 947 l 403 -14 q 364 -33 392 -33 m 401 513 q 431 501 419 513 q 443 471 443 489 q 431 442 443 453 q 401 431 419 431 l 160 431 q 131 442 142 431 q 119 471 119 453 q 131 501 119 489 q 160 513 142 513 l 243 513 l 243 881 l 181 850 q 160 844 167 844 q 131 856 143 844 q 118 886 118 868 q 125 908 118 897 q 144 925 132 919 l 244 976 q 272 983 258 983 q 315 966 299 983 q 332 924 332 949 l 332 513 l 401 513 m 1163 215 q 1192 203 1181 215 q 1204 174 1204 192 q 1192 144 1204 156 q 1163 133 1181 133 l 1113 133 l 1113 38 q 1100 6 1113 19 q 1068 -7 1088 -7 q 1037 6 1050 -7 q 1024 38 1024 19 l 1024 133 l 807 133 q 766 151 783 133 q 749 192 749 168 q 764 232 749 213 l 993 521 q 1043 550 1017 550 l 1054 550 q 1096 533 1079 550 q 1113 492 1113 515 l 1113 215 l 1163 215 m 1024 440 l 847 215 l 1024 215 l 1024 440 z "},"½":{"ha":1306,"x_min":110,"x_max":1201,"o":"m 356 -33 q 322 -20 336 -33 q 308 14 308 -7 q 315 39 308 25 l 890 986 q 929 1006 901 1006 q 963 992 949 1006 q 976 958 976 979 q 969 933 976 947 l 394 -14 q 356 -33 383 -33 m 393 513 q 423 501 411 513 q 435 471 435 489 q 423 442 435 453 q 393 431 411 431 l 151 431 q 122 442 133 431 q 111 471 111 453 q 122 501 111 489 q 151 513 133 513 l 235 513 l 235 881 l 172 850 q 151 844 158 844 q 122 856 135 844 q 110 886 110 868 q 117 908 110 897 q 136 925 124 919 l 236 976 q 264 983 250 983 q 307 966 290 983 q 324 924 324 949 l 324 513 l 393 513 m 1160 82 q 1190 70 1178 82 q 1201 40 1201 58 q 1190 11 1201 22 q 1160 0 1178 0 l 854 0 q 815 17 831 0 q 800 56 800 33 q 844 154 800 113 q 974 250 889 196 q 1076 323 1043 294 q 1108 386 1108 351 q 1082 447 1108 424 q 1000 469 1056 469 q 868 439 924 469 q 850 435 860 435 q 822 445 833 435 q 811 474 811 456 q 831 508 811 497 q 1011 554 903 554 q 1144 508 1092 554 q 1196 392 1196 461 q 1167 303 1196 344 q 1100 233 1139 263 q 1000 163 1061 203 q 933 117 957 135 q 896 82 908 99 l 1160 82 z "},"¾":{"ha":1306,"x_min":88,"x_max":1224,"o":"m 383 -33 q 350 -20 364 -33 q 336 14 336 -7 q 343 39 336 25 l 918 986 q 957 1006 929 1006 q 990 992 976 1006 q 1004 958 1004 979 q 997 933 1004 947 l 422 -14 q 383 -33 411 -33 m 379 713 q 454 666 424 699 q 485 578 485 633 q 435 467 485 511 q 282 422 386 422 q 111 457 174 422 q 94 472 101 463 q 88 494 88 482 q 100 523 88 511 q 128 535 113 535 q 143 532 132 535 q 208 515 181 521 q 269 508 235 508 q 363 526 328 508 q 397 581 397 544 q 242 667 397 667 l 226 667 q 197 678 208 667 q 185 708 185 690 q 197 738 185 726 q 226 750 208 750 l 233 750 q 339 769 299 750 q 379 831 379 788 q 347 884 379 868 q 271 900 315 900 q 151 874 207 900 q 133 869 143 869 q 106 880 118 869 q 94 907 94 890 q 121 943 94 929 q 276 985 199 985 q 419 944 372 985 q 465 838 465 903 q 440 757 465 788 q 379 713 415 726 m 1182 215 q 1212 203 1200 215 q 1224 174 1224 192 q 1212 144 1224 156 q 1182 133 1200 133 l 1132 133 l 1132 38 q 1119 6 1132 19 q 1088 -7 1107 -7 q 1056 6 1069 -7 q 1043 38 1043 19 l 1043 133 l 826 133 q 785 151 803 133 q 768 192 768 168 q 783 232 768 213 l 1013 521 q 1063 550 1036 550 l 1074 550 q 1115 533 1099 550 q 1132 492 1132 515 l 1132 215 l 1182 215 m 1043 440 l 867 215 l 1043 215 l 1043 440 z "},"¿":{"ha":678,"x_min":56,"x_max":647,"o":"m 379 549 q 320 573 344 549 q 296 631 296 597 q 320 690 296 665 q 379 714 344 714 q 437 690 413 714 q 461 631 461 665 q 437 573 461 597 q 379 549 413 549 m 368 -275 q 141 -204 226 -275 q 56 -12 56 -133 q 75 83 56 42 q 122 152 94 124 q 196 217 150 181 q 285 302 256 264 q 315 396 315 340 q 333 434 315 418 q 376 450 351 450 q 420 434 403 450 q 438 396 438 418 q 415 286 438 333 q 363 208 393 239 q 283 136 333 176 q 206 64 231 94 q 181 -6 181 33 q 379 -157 181 -157 q 474 -145 428 -157 q 557 -111 521 -133 q 592 -100 574 -100 q 631 -117 615 -100 q 647 -156 647 -133 q 613 -208 647 -187 q 497 -260 556 -244 q 368 -275 439 -275 z "},"À":{"ha":968,"x_min":36,"x_max":933,"o":"m 408 1242 q 454 1215 440 1242 l 525 1090 q 535 1064 535 1076 q 524 1037 535 1047 q 497 1026 514 1026 q 467 1042 479 1026 l 371 1156 q 357 1190 357 1171 q 372 1228 357 1214 q 408 1242 386 1242 m 926 83 q 933 56 933 67 q 916 11 933 29 q 871 -7 899 -7 q 835 3 851 -7 q 811 32 819 14 l 721 249 l 249 249 l 158 32 q 134 3 150 14 q 99 -7 118 -7 q 53 11 71 -7 q 36 56 36 29 q 43 83 36 67 l 397 919 q 428 960 408 944 q 478 976 449 976 l 492 976 q 541 960 521 976 q 572 919 561 944 l 926 83 m 485 815 l 297 364 l 672 364 l 485 815 z "},"Á":{"ha":968,"x_min":36,"x_max":933,"o":"m 560 1242 q 597 1228 583 1242 q 611 1190 611 1214 q 597 1156 611 1171 l 501 1042 q 471 1026 489 1026 q 444 1037 454 1026 q 433 1064 433 1047 q 443 1090 433 1076 l 514 1215 q 560 1242 528 1242 m 926 83 q 933 56 933 67 q 916 11 933 29 q 871 -7 899 -7 q 835 3 851 -7 q 811 32 819 14 l 721 249 l 249 249 l 158 32 q 134 3 150 14 q 99 -7 118 -7 q 53 11 71 -7 q 36 56 36 29 q 43 83 36 67 l 397 919 q 428 960 408 944 q 478 976 449 976 l 492 976 q 541 960 521 976 q 572 919 561 944 l 926 83 m 485 815 l 297 364 l 672 364 l 485 815 z "},"Â":{"ha":968,"x_min":36,"x_max":933,"o":"m 672 1067 q 661 1038 674 1051 q 631 1025 649 1025 q 606 1035 615 1025 l 485 1138 l 364 1035 q 339 1025 354 1025 q 308 1038 321 1025 q 297 1067 296 1051 q 308 1093 297 1082 l 403 1190 q 428 1211 415 1204 q 458 1218 440 1218 l 511 1218 q 542 1211 529 1218 q 567 1190 554 1204 l 661 1093 q 672 1067 672 1082 m 926 83 q 933 56 933 67 q 916 11 933 29 q 871 -7 899 -7 q 835 3 851 -7 q 811 32 819 14 l 721 249 l 249 249 l 158 32 q 134 3 150 14 q 99 -7 118 -7 q 53 11 71 -7 q 36 56 36 29 q 43 83 36 67 l 397 919 q 428 960 408 944 q 478 976 449 976 l 492 976 q 541 960 521 976 q 572 919 561 944 l 926 83 m 485 815 l 297 364 l 672 364 l 485 815 z "},"Ã":{"ha":968,"x_min":36,"x_max":933,"o":"m 711 1167 q 678 1076 711 1118 q 594 1035 644 1035 q 542 1044 567 1035 q 481 1069 517 1053 q 426 1093 449 1085 q 381 1101 404 1101 q 326 1057 344 1101 q 294 1032 318 1032 q 272 1041 282 1032 q 263 1064 263 1050 q 277 1124 263 1093 q 318 1175 292 1154 q 379 1196 344 1196 q 431 1188 407 1196 q 490 1163 456 1179 q 545 1139 522 1147 q 593 1131 568 1131 q 626 1140 614 1131 q 644 1168 638 1150 q 679 1197 656 1197 q 701 1188 693 1197 q 711 1167 710 1179 m 926 83 q 933 56 933 67 q 916 11 933 29 q 871 -7 899 -7 q 835 3 851 -7 q 811 32 819 14 l 721 249 l 249 249 l 158 32 q 134 3 150 14 q 99 -7 118 -7 q 53 11 71 -7 q 36 56 36 29 q 43 83 36 67 l 397 919 q 428 960 408 944 q 478 976 449 976 l 492 976 q 541 960 521 976 q 572 919 561 944 l 926 83 m 485 815 l 297 364 l 672 364 l 485 815 z "},"Ä":{"ha":968,"x_min":36,"x_max":933,"o":"m 36 0 m 926 83 q 933 56 933 67 q 916 11 933 29 q 871 -7 899 -7 q 835 3 851 -7 q 811 32 819 14 l 721 249 l 249 249 l 158 32 q 134 3 150 14 q 99 -7 118 -7 q 53 11 71 -7 q 36 56 36 29 q 43 83 36 67 l 397 919 q 428 960 408 944 q 478 976 449 976 l 492 976 q 541 960 521 976 q 572 919 561 944 l 926 83 m 485 815 l 297 364 l 672 364 l 485 815 m 368 1179 q 418 1158 397 1179 q 439 1108 439 1138 q 418 1058 439 1079 q 368 1038 397 1038 q 318 1058 339 1038 q 297 1108 297 1079 q 318 1158 297 1138 q 368 1179 339 1179 m 603 1179 q 653 1158 632 1179 q 674 1108 674 1138 q 653 1058 674 1079 q 603 1038 632 1038 q 553 1058 574 1038 q 532 1108 532 1079 q 553 1158 532 1138 q 603 1179 574 1179 z "},"Å":{"ha":968,"x_min":36,"x_max":933,"o":"m 485 1275 q 577 1237 539 1275 q 615 1144 615 1199 q 577 1052 615 1090 q 485 1014 539 1014 q 392 1052 431 1014 q 354 1144 354 1090 q 392 1237 354 1199 q 485 1275 431 1275 m 485 1076 q 533 1097 513 1076 q 553 1144 553 1117 q 533 1192 553 1172 q 485 1213 513 1213 q 437 1192 457 1213 q 417 1144 417 1172 q 437 1097 417 1117 q 485 1076 457 1076 m 926 83 q 933 56 933 67 q 916 11 933 29 q 871 -7 899 -7 q 835 3 851 -7 q 811 32 819 14 l 721 249 l 249 249 l 158 32 q 134 3 150 14 q 99 -7 118 -7 q 53 11 71 -7 q 36 56 36 29 q 43 83 36 67 l 397 919 q 428 960 408 944 q 478 976 449 976 l 492 976 q 541 960 521 976 q 572 919 561 944 l 926 83 m 485 815 l 297 364 l 672 364 l 485 815 z "},"Æ":{"ha":1444,"x_min":3,"x_max":1372,"o":"m 1313 118 q 1355 101 1338 118 q 1372 58 1372 83 q 1355 17 1372 33 q 1313 0 1338 0 l 756 0 q 711 18 729 0 q 693 63 693 36 l 693 249 l 265 249 l 124 29 q 67 -7 100 -7 q 22 11 40 -7 q 3 56 3 29 q 17 94 3 74 l 571 935 q 599 960 582 950 q 635 969 615 969 l 1313 969 q 1355 952 1338 969 q 1372 910 1372 935 q 1355 868 1372 885 q 1313 851 1338 851 l 819 851 l 819 544 l 1263 544 q 1305 527 1288 544 q 1322 485 1322 510 q 1305 443 1322 460 q 1263 426 1288 426 l 819 426 l 819 118 l 1313 118 m 658 851 l 340 364 l 693 364 l 693 851 l 658 851 z "},"Ç":{"ha":969,"x_min":78,"x_max":911,"o":"m 576 -82 q 653 -109 624 -82 q 683 -179 683 -136 q 644 -275 683 -243 q 529 -307 604 -307 q 404 -271 463 -307 q 394 -260 399 -267 q 389 -247 389 -254 q 396 -228 389 -236 q 415 -219 403 -219 q 429 -224 421 -219 q 511 -247 472 -247 q 590 -183 590 -247 q 576 -151 590 -162 q 540 -140 563 -140 q 479 -156 510 -140 q 465 -160 471 -160 q 448 -153 456 -160 q 440 -137 440 -147 q 446 -118 440 -126 l 513 -11 q 288 63 386 0 q 133 235 189 126 q 78 485 78 343 q 141 749 78 636 q 315 923 204 863 q 564 983 425 983 q 733 961 658 983 q 881 897 807 939 q 911 844 911 881 q 896 808 911 824 q 856 792 881 792 q 831 797 842 792 q 711 846 769 829 q 576 863 653 863 q 373 813 457 863 q 247 678 289 764 q 204 485 204 593 q 247 291 204 376 q 373 156 289 206 q 576 107 457 107 q 711 124 653 107 q 831 172 769 140 q 856 178 842 178 q 896 163 881 178 q 911 125 911 147 q 881 72 911 89 q 736 10 810 32 q 571 -14 663 -12 l 529 -87 q 576 -82 551 -82 z "},"È":{"ha":886,"x_min":135,"x_max":814,"o":"m 135 0 m 754 118 q 797 101 779 118 q 814 58 814 83 q 797 17 814 33 q 754 0 779 0 l 197 0 q 153 18 171 0 q 135 63 135 36 l 135 906 q 153 951 135 932 q 197 969 171 969 l 754 969 q 797 952 779 969 q 814 910 814 935 q 797 868 814 885 q 754 851 779 851 l 261 851 l 261 544 l 704 544 q 747 527 729 544 q 764 485 764 510 q 747 443 764 460 q 704 426 729 426 l 261 426 l 261 118 l 754 118 m 401 1242 q 447 1215 433 1242 l 518 1090 q 528 1064 528 1076 q 517 1037 528 1047 q 490 1026 507 1026 q 460 1042 472 1026 l 364 1156 q 350 1190 350 1171 q 365 1228 350 1214 q 401 1242 379 1242 z "},"É":{"ha":886,"x_min":135,"x_max":814,"o":"m 546 1242 q 583 1228 569 1242 q 597 1190 597 1214 q 583 1156 597 1171 l 488 1042 q 457 1026 475 1026 q 430 1037 440 1026 q 419 1064 419 1047 q 429 1090 419 1076 l 500 1215 q 546 1242 514 1242 m 754 118 q 797 101 779 118 q 814 58 814 83 q 797 17 814 33 q 754 0 779 0 l 197 0 q 153 18 171 0 q 135 63 135 36 l 135 906 q 153 951 135 932 q 197 969 171 969 l 754 969 q 797 952 779 969 q 814 910 814 935 q 797 868 814 885 q 754 851 779 851 l 261 851 l 261 544 l 704 544 q 747 527 729 544 q 764 485 764 510 q 747 443 764 460 q 704 426 729 426 l 261 426 l 261 118 l 754 118 z "},"Ê":{"ha":886,"x_min":135,"x_max":814,"o":"m 135 0 m 754 118 q 797 101 779 118 q 814 58 814 83 q 797 17 814 33 q 754 0 779 0 l 197 0 q 153 18 171 0 q 135 63 135 36 l 135 906 q 153 951 135 932 q 197 969 171 969 l 754 969 q 797 952 779 969 q 814 910 814 935 q 797 868 814 885 q 754 851 779 851 l 261 851 l 261 544 l 704 544 q 747 527 729 544 q 764 485 764 510 q 747 443 764 460 q 704 426 729 426 l 261 426 l 261 118 l 754 118 m 672 1067 q 661 1038 674 1051 q 631 1025 649 1025 q 606 1035 615 1025 l 485 1138 l 364 1035 q 339 1025 354 1025 q 308 1038 321 1025 q 297 1067 296 1051 q 308 1093 297 1082 l 403 1190 q 428 1211 415 1204 q 458 1218 440 1218 l 511 1218 q 542 1211 529 1218 q 567 1190 554 1204 l 661 1093 q 672 1067 672 1082 z "},"Ë":{"ha":886,"x_min":135,"x_max":814,"o":"m 353 1179 q 403 1158 382 1179 q 424 1108 424 1138 q 403 1058 424 1079 q 353 1038 382 1038 q 303 1058 324 1038 q 282 1108 282 1079 q 303 1158 282 1138 q 353 1179 324 1179 m 588 1179 q 638 1158 617 1179 q 658 1108 658 1138 q 638 1058 658 1079 q 588 1038 617 1038 q 538 1058 558 1038 q 517 1108 517 1079 q 538 1158 517 1138 q 588 1179 558 1179 m 754 118 q 797 101 779 118 q 814 58 814 83 q 797 17 814 33 q 754 0 779 0 l 197 0 q 153 18 171 0 q 135 63 135 36 l 135 906 q 153 951 135 932 q 197 969 171 969 l 754 969 q 797 952 779 969 q 814 910 814 935 q 797 868 814 885 q 754 851 779 851 l 261 851 l 261 544 l 704 544 q 747 527 729 544 q 764 485 764 510 q 747 443 764 460 q 704 426 729 426 l 261 426 l 261 118 l 754 118 z "},"Ì":{"ha":396,"x_min":78,"x_max":261,"o":"m 78 0 m 197 976 q 242 958 224 976 q 261 913 261 939 l 261 56 q 242 11 261 29 q 197 -7 224 -7 q 153 11 171 -7 q 135 56 135 29 l 135 913 q 153 958 135 939 q 197 976 171 976 m 129 1242 q 175 1215 161 1242 l 246 1090 q 256 1064 256 1076 q 245 1037 256 1047 q 218 1026 235 1026 q 188 1042 200 1026 l 92 1156 q 78 1190 78 1171 q 92 1228 78 1214 q 129 1242 107 1242 z "},"Í":{"ha":396,"x_min":135,"x_max":318,"o":"m 267 1242 q 304 1228 290 1242 q 318 1190 318 1214 q 304 1156 318 1171 l 208 1042 q 178 1026 196 1026 q 151 1037 161 1026 q 140 1064 140 1047 q 150 1090 140 1076 l 221 1215 q 267 1242 235 1242 m 197 976 q 242 958 224 976 q 261 913 261 939 l 261 56 q 242 11 261 29 q 197 -7 224 -7 q 153 11 171 -7 q 135 56 135 29 l 135 913 q 153 958 135 939 q 197 976 171 976 z "},"Î":{"ha":396,"x_min":8,"x_max":386,"o":"m 10 0 m 197 976 q 242 958 224 976 q 261 913 261 939 l 261 56 q 242 11 261 29 q 197 -7 224 -7 q 153 11 171 -7 q 135 56 135 29 l 135 913 q 153 958 135 939 q 197 976 171 976 m 385 1067 q 374 1038 386 1051 q 343 1025 361 1025 q 318 1035 328 1025 l 197 1138 l 76 1035 q 51 1025 67 1025 q 21 1038 33 1025 q 10 1067 8 1051 q 21 1093 10 1082 l 115 1190 q 140 1211 128 1204 q 171 1218 153 1218 l 224 1218 q 254 1211 242 1218 q 279 1190 267 1204 l 374 1093 q 385 1067 385 1082 z "},"Ï":{"ha":396,"x_min":10,"x_max":386,"o":"m 81 1179 q 131 1158 110 1179 q 151 1108 151 1138 q 131 1058 151 1079 q 81 1038 110 1038 q 31 1058 51 1038 q 10 1108 10 1079 q 31 1158 10 1138 q 81 1179 51 1179 m 315 1179 q 365 1158 344 1179 q 386 1108 386 1138 q 365 1058 386 1079 q 315 1038 344 1038 q 265 1058 286 1038 q 244 1108 244 1079 q 265 1158 244 1138 q 315 1179 286 1179 m 197 976 q 242 958 224 976 q 261 913 261 939 l 261 56 q 242 11 261 29 q 197 -7 224 -7 q 153 11 171 -7 q 135 56 135 29 l 135 913 q 153 958 135 939 q 197 976 171 976 z "},"Ð":{"ha":1051,"x_min":24,"x_max":976,"o":"m 486 969 q 755 899 644 969 q 921 718 865 829 q 976 485 976 607 q 921 251 976 363 q 755 70 865 140 q 486 0 644 0 l 207 0 q 163 18 181 0 q 144 63 144 36 l 144 438 l 69 438 q 37 451 50 438 q 24 483 24 464 q 37 517 24 503 q 69 531 50 531 l 144 531 l 144 906 q 163 951 144 932 q 207 969 181 969 l 486 969 m 471 118 q 671 165 585 118 q 804 294 757 211 q 851 485 851 376 q 804 676 851 593 q 671 805 757 758 q 471 851 585 851 l 271 851 l 271 531 l 433 531 q 467 517 453 531 q 481 483 481 503 q 467 451 481 464 q 433 438 453 438 l 271 438 l 271 118 l 471 118 z "},"Ñ":{"ha":1115,"x_min":135,"x_max":981,"o":"m 135 0 m 917 976 q 962 958 943 976 q 981 913 981 939 l 981 83 q 953 19 981 46 q 889 -7 926 -7 l 872 -7 q 831 3 850 -7 q 799 31 811 14 l 261 807 l 261 56 q 242 11 261 29 q 197 -7 224 -7 q 153 11 171 -7 q 135 56 135 29 l 135 885 q 161 949 135 922 q 225 976 188 976 l 243 976 q 319 935 288 976 l 854 163 l 854 913 q 872 958 854 939 q 917 976 890 976 m 789 1167 q 756 1076 789 1118 q 672 1035 722 1035 q 619 1044 644 1035 q 558 1069 594 1053 q 504 1093 526 1085 q 458 1101 482 1101 q 404 1057 422 1101 q 372 1032 396 1032 q 350 1041 360 1032 q 340 1064 340 1050 q 355 1124 340 1093 q 396 1175 369 1154 q 457 1196 422 1196 q 509 1188 485 1196 q 568 1163 533 1179 q 623 1139 600 1147 q 671 1131 646 1131 q 703 1140 692 1131 q 722 1168 715 1150 q 757 1197 733 1197 q 779 1188 771 1197 q 789 1167 788 1179 z "},"Ò":{"ha":1126,"x_min":76,"x_max":1051,"o":"m 76 0 m 564 983 q 819 919 710 983 q 988 742 928 856 q 1051 485 1049 629 q 988 227 1049 340 q 819 50 928 114 q 564 -14 710 -14 q 308 50 418 -14 q 139 226 199 114 q 76 485 79 339 q 139 743 79 631 q 308 919 199 856 q 564 983 418 983 m 564 104 q 757 154 675 104 q 882 290 839 204 q 925 485 925 376 q 882 679 925 593 q 757 815 839 765 q 564 865 675 865 q 370 815 451 865 q 246 679 289 765 q 203 485 203 593 q 246 290 203 376 q 370 154 289 204 q 564 104 451 104 m 499 1242 q 544 1215 531 1242 l 615 1090 q 625 1064 625 1076 q 615 1037 625 1047 q 588 1026 604 1026 q 557 1042 569 1026 l 461 1156 q 447 1190 447 1171 q 462 1228 447 1214 q 499 1242 476 1242 z "},"Ó":{"ha":1126,"x_min":76,"x_max":1051,"o":"m 629 1242 q 667 1228 653 1242 q 681 1190 681 1214 q 667 1156 681 1171 l 571 1042 q 540 1026 558 1026 q 513 1037 524 1026 q 503 1064 503 1047 q 513 1090 503 1076 l 583 1215 q 629 1242 597 1242 m 564 983 q 819 919 710 983 q 988 742 928 856 q 1051 485 1049 629 q 988 227 1049 340 q 819 50 928 114 q 564 -14 710 -14 q 308 50 418 -14 q 139 226 199 114 q 76 485 79 339 q 139 743 79 631 q 308 919 199 856 q 564 983 418 983 m 564 104 q 757 154 675 104 q 882 290 839 204 q 925 485 925 376 q 882 679 925 593 q 757 815 839 765 q 564 865 675 865 q 370 815 451 865 q 246 679 289 765 q 203 485 203 593 q 246 290 203 376 q 370 154 289 204 q 564 104 451 104 z "},"Ô":{"ha":1126,"x_min":76,"x_max":1051,"o":"m 76 0 m 564 983 q 819 919 710 983 q 988 742 928 856 q 1051 485 1049 629 q 988 227 1049 340 q 819 50 928 114 q 564 -14 710 -14 q 308 50 418 -14 q 139 226 199 114 q 76 485 79 339 q 139 743 79 631 q 308 919 199 856 q 564 983 418 983 m 564 104 q 757 154 675 104 q 882 290 839 204 q 925 485 925 376 q 882 679 925 593 q 757 815 839 765 q 564 865 675 865 q 370 815 451 865 q 246 679 289 765 q 203 485 203 593 q 246 290 203 376 q 370 154 289 204 q 564 104 451 104 m 751 1067 q 740 1038 753 1051 q 710 1025 728 1025 q 685 1035 694 1025 l 564 1138 l 443 1035 q 418 1025 433 1025 q 388 1038 400 1025 q 376 1067 375 1051 q 388 1093 376 1082 l 482 1190 q 507 1211 494 1204 q 538 1218 519 1218 l 590 1218 q 621 1211 608 1218 q 646 1190 633 1204 l 740 1093 q 751 1067 751 1082 z "},"Õ":{"ha":1126,"x_min":76,"x_max":1051,"o":"m 789 1167 q 756 1076 789 1118 q 672 1035 722 1035 q 619 1044 644 1035 q 558 1069 594 1053 q 504 1093 526 1085 q 458 1101 482 1101 q 404 1057 422 1101 q 372 1032 396 1032 q 350 1041 360 1032 q 340 1064 340 1050 q 355 1124 340 1093 q 396 1175 369 1154 q 457 1196 422 1196 q 509 1188 485 1196 q 568 1163 533 1179 q 623 1139 600 1147 q 671 1131 646 1131 q 703 1140 692 1131 q 722 1168 715 1150 q 757 1197 733 1197 q 779 1188 771 1197 q 789 1167 788 1179 m 564 983 q 819 919 710 983 q 988 742 928 856 q 1051 485 1049 629 q 988 227 1049 340 q 819 50 928 114 q 564 -14 710 -14 q 308 50 418 -14 q 139 226 199 114 q 76 485 79 339 q 139 743 79 631 q 308 919 199 856 q 564 983 418 983 m 564 104 q 757 154 675 104 q 882 290 839 204 q 925 485 925 376 q 882 679 925 593 q 757 815 839 765 q 564 865 675 865 q 370 815 451 865 q 246 679 289 765 q 203 485 203 593 q 246 290 203 376 q 370 154 289 204 q 564 104 451 104 z "},"Ö":{"ha":1126,"x_min":76,"x_max":1051,"o":"m 76 0 m 564 983 q 819 919 710 983 q 988 742 928 856 q 1051 485 1049 629 q 988 227 1049 340 q 819 50 928 114 q 564 -14 710 -14 q 308 50 418 -14 q 139 226 199 114 q 76 485 79 339 q 139 743 79 631 q 308 919 199 856 q 564 983 418 983 m 564 104 q 757 154 675 104 q 882 290 839 204 q 925 485 925 376 q 882 679 925 593 q 757 815 839 765 q 564 865 675 865 q 370 815 451 865 q 246 679 289 765 q 203 485 203 593 q 246 290 203 376 q 370 154 289 204 q 564 104 451 104 m 447 1179 q 497 1158 476 1179 q 518 1108 518 1138 q 497 1058 518 1079 q 447 1038 476 1038 q 397 1058 418 1038 q 376 1108 376 1079 q 397 1158 376 1138 q 447 1179 418 1179 m 682 1179 q 732 1158 711 1179 q 753 1108 753 1138 q 732 1058 753 1079 q 682 1038 711 1038 q 632 1058 653 1038 q 611 1108 611 1079 q 632 1158 611 1138 q 682 1179 653 1179 z "},"×":{"ha":782,"x_min":82,"x_max":699,"o":"m 135 667 q 172 650 156 667 l 390 432 l 608 650 q 646 667 625 667 q 683 651 668 667 q 699 614 699 635 q 682 576 699 593 l 464 358 l 682 140 q 699 103 699 124 q 683 66 699 82 q 646 50 668 50 q 608 67 625 50 l 390 285 l 172 67 q 135 50 156 50 q 97 66 113 50 q 82 103 82 82 q 99 140 82 124 l 317 358 l 99 576 q 82 614 82 593 q 97 651 82 635 q 135 667 113 667 z "},"Ø":{"ha":1126,"x_min":76,"x_max":1051,"o":"m 564 983 q 825 915 711 983 l 881 996 q 910 1010 890 1010 q 935 1000 925 1010 q 944 976 944 990 q 936 953 944 965 l 882 875 q 1005 708 961 808 q 1051 485 1049 607 q 988 227 1049 340 q 819 50 928 114 q 564 -14 710 -14 q 304 51 417 -14 l 249 -28 q 219 -42 239 -42 q 194 -32 204 -42 q 185 -8 185 -22 q 193 15 185 3 l 247 92 q 122 260 167 158 q 76 485 78 361 q 139 743 79 631 q 308 919 199 856 q 564 983 418 983 m 203 485 q 233 319 203 394 q 318 193 263 244 l 754 817 q 564 865 671 865 q 370 815 451 865 q 246 679 289 765 q 203 485 203 593 m 564 104 q 757 154 675 104 q 882 290 839 204 q 925 485 925 376 q 896 648 925 572 q 811 775 867 724 l 374 151 q 564 104 456 104 z "},"Ù":{"ha":1053,"x_min":128,"x_max":925,"o":"m 128 0 m 861 976 q 906 958 888 976 q 925 913 925 939 l 925 364 q 867 155 925 240 q 717 28 808 69 q 526 -14 625 -14 q 336 28 428 -14 q 186 155 244 69 q 128 364 128 240 l 128 913 q 146 958 128 939 q 190 976 164 976 q 235 958 217 976 q 254 913 254 939 l 254 360 q 292 218 254 276 q 393 131 331 160 q 526 101 456 101 q 660 131 597 101 q 760 218 722 160 q 799 360 799 276 l 799 913 q 817 958 799 939 q 861 976 835 976 m 469 1242 q 515 1215 501 1242 l 586 1090 q 596 1064 596 1076 q 585 1037 596 1047 q 558 1026 575 1026 q 528 1042 540 1026 l 432 1156 q 418 1190 418 1171 q 433 1228 418 1214 q 469 1242 447 1242 z "},"Ú":{"ha":1053,"x_min":128,"x_max":925,"o":"m 583 1242 q 621 1228 607 1242 q 635 1190 635 1214 q 621 1156 635 1171 l 525 1042 q 494 1026 513 1026 q 467 1037 478 1026 q 457 1064 457 1047 q 467 1090 457 1076 l 538 1215 q 583 1242 551 1242 m 861 976 q 906 958 888 976 q 925 913 925 939 l 925 364 q 867 155 925 240 q 717 28 808 69 q 526 -14 625 -14 q 336 28 428 -14 q 186 155 244 69 q 128 364 128 240 l 128 913 q 146 958 128 939 q 190 976 164 976 q 235 958 217 976 q 254 913 254 939 l 254 360 q 292 218 254 276 q 393 131 331 160 q 526 101 456 101 q 660 131 597 101 q 760 218 722 160 q 799 360 799 276 l 799 913 q 817 958 799 939 q 861 976 835 976 z "},"Û":{"ha":1053,"x_min":128,"x_max":925,"o":"m 128 0 m 861 976 q 906 958 888 976 q 925 913 925 939 l 925 364 q 867 155 925 240 q 717 28 808 69 q 526 -14 625 -14 q 336 28 428 -14 q 186 155 244 69 q 128 364 128 240 l 128 913 q 146 958 128 939 q 190 976 164 976 q 235 958 217 976 q 254 913 254 939 l 254 360 q 292 218 254 276 q 393 131 331 160 q 526 101 456 101 q 660 131 597 101 q 760 218 722 160 q 799 360 799 276 l 799 913 q 817 958 799 939 q 861 976 835 976 m 714 1067 q 703 1038 715 1051 q 672 1025 690 1025 q 647 1035 657 1025 l 526 1138 l 406 1035 q 381 1025 396 1025 q 350 1038 363 1025 q 339 1067 338 1051 q 350 1093 339 1082 l 444 1190 q 469 1211 457 1204 q 500 1218 482 1218 l 553 1218 q 583 1211 571 1218 q 608 1190 596 1204 l 703 1093 q 714 1067 714 1082 z "},"Ü":{"ha":1053,"x_min":128,"x_max":925,"o":"m 410 1179 q 460 1158 439 1179 q 481 1108 481 1138 q 460 1058 481 1079 q 410 1038 439 1038 q 360 1058 381 1038 q 339 1108 339 1079 q 360 1158 339 1138 q 410 1179 381 1179 m 644 1179 q 694 1158 674 1179 q 715 1108 715 1138 q 694 1058 715 1079 q 644 1038 674 1038 q 594 1058 615 1038 q 574 1108 574 1079 q 594 1158 574 1138 q 644 1179 615 1179 m 861 976 q 906 958 888 976 q 925 913 925 939 l 925 364 q 867 155 925 240 q 717 28 808 69 q 526 -14 625 -14 q 336 28 428 -14 q 186 155 244 69 q 128 364 128 240 l 128 913 q 146 958 128 939 q 190 976 164 976 q 235 958 217 976 q 254 913 254 939 l 254 360 q 292 218 254 276 q 393 131 331 160 q 526 101 456 101 q 660 131 597 101 q 760 218 722 160 q 799 360 799 276 l 799 913 q 817 958 799 939 q 861 976 835 976 z "},"Ý":{"ha":896,"x_min":40,"x_max":857,"o":"m 42 0 m 739 944 q 794 976 760 976 q 839 958 821 976 q 856 913 857 939 q 844 875 856 893 l 511 410 l 511 56 q 493 11 511 29 q 449 -7 475 -7 q 403 11 422 -7 q 385 56 385 29 l 385 410 l 53 875 q 42 913 42 893 q 58 958 40 939 q 103 976 76 976 q 158 944 138 976 l 449 522 l 739 944 m 518 1242 q 556 1228 542 1242 q 569 1190 569 1214 q 556 1156 569 1171 l 460 1042 q 429 1026 447 1026 q 402 1037 413 1026 q 392 1064 392 1047 q 401 1090 392 1076 l 472 1215 q 518 1242 486 1242 z "},"Þ":{"ha":932,"x_min":135,"x_max":885,"o":"m 514 814 q 729 769 646 814 q 849 656 813 725 q 885 506 885 586 q 849 356 885 425 q 729 242 813 286 q 514 197 646 197 l 261 197 l 261 56 q 242 11 261 29 q 197 -7 224 -7 q 153 11 171 -7 q 135 56 135 29 l 135 913 q 153 958 135 939 q 197 976 171 976 q 242 958 224 976 q 261 913 261 939 l 261 814 l 514 814 m 501 317 q 701 371 643 317 q 758 506 758 425 q 701 640 758 586 q 501 694 643 694 l 261 694 l 261 317 l 501 317 z "},"ß":{"ha":847,"x_min":110,"x_max":782,"o":"m 575 489 q 720 410 658 469 q 782 242 782 351 q 744 101 782 158 q 647 15 707 43 q 518 -14 588 -14 q 364 10 432 -14 q 319 63 319 25 q 335 101 319 86 q 374 117 350 117 q 394 113 385 117 q 497 99 436 99 q 604 135 553 99 q 656 257 656 171 q 588 383 656 336 q 417 429 521 429 q 378 443 392 429 q 364 481 364 457 q 378 515 364 501 q 417 532 393 529 q 551 586 501 542 q 601 697 601 631 q 553 820 601 775 q 422 865 506 865 q 289 819 342 865 q 236 660 236 772 l 236 57 q 217 13 236 31 q 172 -6 199 -6 q 128 13 146 -6 q 110 57 110 31 l 110 675 q 196 902 110 821 q 424 983 282 983 q 569 953 499 983 q 683 862 639 924 q 728 711 728 800 q 575 489 728 538 z "},"à":{"ha":771,"x_min":53,"x_max":667,"o":"m 53 0 m 376 722 q 538 683 472 722 q 635 583 604 644 q 667 449 667 521 l 667 56 q 648 11 667 29 q 603 -7 629 -7 q 558 11 576 -7 q 540 56 540 29 l 540 92 q 279 -14 438 -14 q 166 11 218 -14 q 83 84 114 36 q 53 194 53 132 q 134 358 53 297 q 372 419 215 419 l 540 419 l 540 431 q 495 563 540 522 q 354 603 450 603 q 260 594 301 603 q 169 569 219 586 q 151 567 158 567 q 115 582 131 567 q 100 619 100 597 q 136 672 100 657 q 376 722 254 722 m 326 97 q 444 127 388 97 q 540 201 501 157 l 540 318 l 389 318 q 179 208 179 318 q 213 128 179 158 q 326 97 247 97 m 314 1003 q 360 976 346 1003 l 431 851 q 440 825 440 838 q 430 798 440 808 q 403 788 419 788 q 372 803 385 788 l 276 917 q 263 951 263 932 q 277 989 263 975 q 314 1003 292 1003 z "},"á":{"ha":771,"x_min":53,"x_max":667,"o":"m 438 1003 q 475 989 461 1003 q 489 951 489 975 q 475 917 489 932 l 379 803 q 349 788 367 788 q 322 798 332 788 q 311 825 311 808 q 321 851 311 838 l 392 976 q 438 1003 406 1003 m 376 722 q 538 683 472 722 q 635 583 604 644 q 667 449 667 521 l 667 56 q 648 11 667 29 q 603 -7 629 -7 q 558 11 576 -7 q 540 56 540 29 l 540 92 q 279 -14 438 -14 q 166 11 218 -14 q 83 84 114 36 q 53 194 53 132 q 134 358 53 297 q 372 419 215 419 l 540 419 l 540 431 q 495 563 540 522 q 354 603 450 603 q 260 594 301 603 q 169 569 219 586 q 151 567 158 567 q 115 582 131 567 q 100 619 100 597 q 136 672 100 657 q 376 722 254 722 m 326 97 q 444 127 388 97 q 540 201 501 157 l 540 318 l 389 318 q 179 208 179 318 q 213 128 179 158 q 326 97 247 97 z "},"â":{"ha":771,"x_min":53,"x_max":667,"o":"m 53 0 m 376 722 q 538 683 472 722 q 635 583 604 644 q 667 449 667 521 l 667 56 q 648 11 667 29 q 603 -7 629 -7 q 558 11 576 -7 q 540 56 540 29 l 540 92 q 279 -14 438 -14 q 166 11 218 -14 q 83 84 114 36 q 53 194 53 132 q 134 358 53 297 q 372 419 215 419 l 540 419 l 540 431 q 495 563 540 522 q 354 603 450 603 q 260 594 301 603 q 169 569 219 586 q 151 567 158 567 q 115 582 131 567 q 100 619 100 597 q 136 672 100 657 q 376 722 254 722 m 326 97 q 444 127 388 97 q 540 201 501 157 l 540 318 l 389 318 q 179 208 179 318 q 213 128 179 158 q 326 97 247 97 m 567 828 q 556 799 568 813 q 525 786 543 786 q 500 796 510 786 l 379 899 l 258 796 q 233 786 249 786 q 203 799 215 786 q 192 828 190 813 q 203 854 192 843 l 297 951 q 322 972 310 965 q 353 979 335 979 l 406 979 q 436 972 424 979 q 461 951 449 965 l 556 854 q 567 828 567 843 z "},"ã":{"ha":771,"x_min":53,"x_max":667,"o":"m 600 928 q 567 838 600 879 q 483 796 533 796 q 431 805 456 796 q 369 831 406 814 q 315 854 338 846 q 269 863 293 863 q 215 818 233 863 q 183 793 207 793 q 161 802 171 793 q 151 825 151 811 q 166 885 151 854 q 207 936 181 915 q 268 957 233 957 q 320 949 296 957 q 379 924 344 940 q 434 900 411 908 q 482 892 457 892 q 515 901 503 892 q 533 929 526 911 q 568 958 544 958 q 590 949 582 958 q 600 928 599 940 m 376 722 q 538 683 472 722 q 635 583 604 644 q 667 449 667 521 l 667 56 q 648 11 667 29 q 603 -7 629 -7 q 558 11 576 -7 q 540 56 540 29 l 540 92 q 279 -14 438 -14 q 166 11 218 -14 q 83 84 114 36 q 53 194 53 132 q 134 358 53 297 q 372 419 215 419 l 540 419 l 540 431 q 495 563 540 522 q 354 603 450 603 q 260 594 301 603 q 169 569 219 586 q 151 567 158 567 q 115 582 131 567 q 100 619 100 597 q 136 672 100 657 q 376 722 254 722 m 326 97 q 444 127 388 97 q 540 201 501 157 l 540 318 l 389 318 q 179 208 179 318 q 213 128 179 158 q 326 97 247 97 z "},"ä":{"ha":771,"x_min":53,"x_max":667,"o":"m 53 0 m 376 722 q 538 683 472 722 q 635 583 604 644 q 667 449 667 521 l 667 56 q 648 11 667 29 q 603 -7 629 -7 q 558 11 576 -7 q 540 56 540 29 l 540 92 q 279 -14 438 -14 q 166 11 218 -14 q 83 84 114 36 q 53 194 53 132 q 134 358 53 297 q 372 419 215 419 l 540 419 l 540 431 q 495 563 540 522 q 354 603 450 603 q 260 594 301 603 q 169 569 219 586 q 151 567 158 567 q 115 582 131 567 q 100 619 100 597 q 136 672 100 657 q 376 722 254 722 m 326 97 q 444 127 388 97 q 540 201 501 157 l 540 318 l 389 318 q 179 208 179 318 q 213 128 179 158 q 326 97 247 97 m 264 940 q 314 919 293 940 q 335 869 335 899 q 314 819 335 840 q 264 799 293 799 q 214 819 235 799 q 193 869 193 840 q 214 919 193 899 q 264 940 235 940 m 499 940 q 549 919 528 940 q 569 869 569 899 q 549 819 569 840 q 499 799 528 799 q 449 819 469 799 q 428 869 428 840 q 449 919 428 899 q 499 940 469 940 z "},"å":{"ha":771,"x_min":53,"x_max":667,"o":"m 374 1026 q 466 988 428 1026 q 504 896 504 950 q 466 803 504 842 q 374 765 428 765 q 281 803 319 765 q 243 896 243 842 q 281 988 243 950 q 374 1026 319 1026 m 374 828 q 422 848 401 828 q 442 896 442 868 q 422 944 442 924 q 374 964 401 964 q 326 944 346 964 q 306 896 306 924 q 326 848 306 868 q 374 828 346 828 m 376 722 q 538 683 472 722 q 635 583 604 644 q 667 449 667 521 l 667 56 q 648 11 667 29 q 603 -7 629 -7 q 558 11 576 -7 q 540 56 540 29 l 540 92 q 279 -14 438 -14 q 166 11 218 -14 q 83 84 114 36 q 53 194 53 132 q 134 358 53 297 q 372 419 215 419 l 540 419 l 540 431 q 495 563 540 522 q 354 603 450 603 q 260 594 301 603 q 169 569 219 586 q 151 567 158 567 q 115 582 131 567 q 100 619 100 597 q 136 672 100 657 q 376 722 254 722 m 326 97 q 444 127 388 97 q 540 201 501 157 l 540 318 l 389 318 q 179 208 179 318 q 213 128 179 158 q 326 97 247 97 z "},"æ":{"ha":1256,"x_min":51,"x_max":1196,"o":"m 1196 374 q 1179 332 1196 350 q 1135 314 1163 314 l 657 314 q 728 160 668 215 q 903 104 788 104 q 1005 115 961 104 q 1090 147 1049 126 q 1115 153 1101 153 q 1154 138 1138 153 q 1171 99 1171 122 q 1135 47 1171 68 q 1028 1 1081 17 q 892 -14 975 -14 q 726 17 797 -14 q 610 107 656 49 q 488 13 565 39 q 324 -14 411 -14 q 187 11 249 -14 q 88 83 125 36 q 51 194 51 131 q 133 356 51 296 q 371 415 214 415 l 539 415 l 539 431 q 494 563 539 522 q 353 603 449 603 q 259 594 300 603 q 168 569 218 586 q 150 567 157 567 q 114 582 129 567 q 99 619 99 597 q 135 672 99 657 q 375 722 253 722 q 520 691 461 722 q 613 606 579 660 q 864 722 700 722 q 1040 677 965 722 q 1156 553 1115 632 q 1196 374 1196 474 m 1071 415 q 1035 528 1067 483 q 958 594 1004 574 q 864 615 913 615 q 769 594 815 615 q 692 528 724 574 q 657 415 661 483 l 1071 415 m 388 314 q 231 290 285 314 q 178 208 178 265 q 223 129 178 161 q 349 97 268 97 q 483 128 428 97 q 539 235 539 158 l 539 314 l 388 314 z "},"ç":{"ha":746,"x_min":64,"x_max":689,"o":"m 443 -82 q 520 -109 490 -82 q 550 -179 550 -136 q 510 -275 550 -243 q 396 -307 471 -307 q 271 -271 329 -307 q 260 -260 265 -267 q 256 -247 256 -254 q 263 -228 256 -236 q 282 -219 269 -219 q 296 -224 288 -219 q 378 -247 339 -247 q 457 -183 457 -247 q 443 -151 457 -162 q 407 -140 429 -140 q 346 -156 376 -140 q 332 -160 338 -160 q 315 -153 322 -160 q 307 -137 307 -147 q 313 -118 307 -126 l 379 -10 q 219 48 290 1 q 106 173 147 94 q 64 354 64 251 q 115 550 64 467 q 250 678 165 633 q 435 722 335 722 q 562 703 508 722 q 661 656 615 685 q 689 607 689 638 q 673 569 689 586 q 636 551 657 551 q 606 560 621 551 q 527 594 560 583 q 446 604 494 604 q 258 535 326 604 q 190 354 190 467 q 258 173 190 242 q 446 104 326 104 q 527 115 494 104 q 606 149 560 125 q 636 157 621 157 q 673 140 657 157 q 689 101 689 122 q 661 53 689 71 q 564 6 617 24 q 438 -14 511 -12 l 396 -87 q 443 -82 418 -82 z "},"è":{"ha":792,"x_min":68,"x_max":731,"o":"m 68 0 m 651 153 q 690 138 674 153 q 707 99 707 122 q 671 47 707 68 q 564 1 617 17 q 428 -14 511 -14 q 163 83 258 -14 q 68 354 68 179 q 104 536 68 453 q 215 671 140 619 q 400 722 290 722 q 578 674 503 722 q 692 547 653 626 q 731 372 731 467 q 713 328 731 346 q 667 310 696 310 l 196 310 q 268 158 207 213 q 439 104 329 104 q 541 115 497 104 q 626 147 585 126 q 651 153 638 153 m 400 615 q 307 594 353 615 q 231 526 261 572 q 196 413 200 481 l 606 413 q 570 526 601 481 q 493 594 539 572 q 400 615 447 615 m 342 1003 q 388 976 374 1003 l 458 851 q 468 825 468 838 q 458 798 468 808 q 431 788 447 788 q 400 803 413 788 l 304 917 q 290 951 290 932 q 305 989 290 975 q 342 1003 319 1003 z "},"é":{"ha":792,"x_min":68,"x_max":731,"o":"m 457 1003 q 494 989 481 1003 q 508 951 508 975 q 494 917 508 932 l 399 803 q 368 788 386 788 q 341 798 351 788 q 331 825 331 808 q 340 851 331 838 l 411 976 q 457 1003 425 1003 m 651 153 q 690 138 674 153 q 707 99 707 122 q 671 47 707 68 q 564 1 617 17 q 428 -14 511 -14 q 163 83 258 -14 q 68 354 68 179 q 104 536 68 453 q 215 671 140 619 q 400 722 290 722 q 578 674 503 722 q 692 547 653 626 q 731 372 731 467 q 713 328 731 346 q 667 310 696 310 l 196 310 q 268 158 207 213 q 439 104 329 104 q 541 115 497 104 q 626 147 585 126 q 651 153 638 153 m 400 615 q 307 594 353 615 q 231 526 261 572 q 196 413 200 481 l 606 413 q 570 526 601 481 q 493 594 539 572 q 400 615 447 615 z "},"ê":{"ha":792,"x_min":68,"x_max":731,"o":"m 68 0 m 651 153 q 690 138 674 153 q 707 99 707 122 q 671 47 707 68 q 564 1 617 17 q 428 -14 511 -14 q 163 83 258 -14 q 68 354 68 179 q 104 536 68 453 q 215 671 140 619 q 400 722 290 722 q 578 674 503 722 q 692 547 653 626 q 731 372 731 467 q 713 328 731 346 q 667 310 696 310 l 196 310 q 268 158 207 213 q 439 104 329 104 q 541 115 497 104 q 626 147 585 126 q 651 153 638 153 m 400 615 q 307 594 353 615 q 231 526 261 572 q 196 413 200 481 l 606 413 q 570 526 601 481 q 493 594 539 572 q 400 615 447 615 m 586 828 q 575 799 588 813 q 544 786 563 786 q 519 796 529 786 l 399 899 l 278 796 q 253 786 268 786 q 222 799 235 786 q 211 828 210 813 q 222 854 211 843 l 317 951 q 342 972 329 965 q 372 979 354 979 l 425 979 q 456 972 443 979 q 481 951 468 965 l 575 854 q 586 828 586 843 z "},"ë":{"ha":792,"x_min":68,"x_max":731,"o":"m 282 940 q 332 919 311 940 q 353 869 353 899 q 332 819 353 840 q 282 799 311 799 q 232 819 253 799 q 211 869 211 840 q 232 919 211 899 q 282 940 253 940 m 517 940 q 567 919 546 940 q 588 869 588 899 q 567 819 588 840 q 517 799 546 799 q 467 819 488 799 q 446 869 446 840 q 467 919 446 899 q 517 940 488 940 m 651 153 q 690 138 674 153 q 707 99 707 122 q 671 47 707 68 q 564 1 617 17 q 428 -14 511 -14 q 163 83 258 -14 q 68 354 68 179 q 104 536 68 453 q 215 671 140 619 q 400 722 290 722 q 578 674 503 722 q 692 547 653 626 q 731 372 731 467 q 713 328 731 346 q 667 310 696 310 l 196 310 q 268 158 207 213 q 439 104 329 104 q 541 115 497 104 q 626 147 585 126 q 651 153 638 153 m 400 615 q 307 594 353 615 q 231 526 261 572 q 196 413 200 481 l 606 413 q 570 526 601 481 q 493 594 539 572 q 400 615 447 615 z "},"ì":{"ha":357,"x_min":58,"x_max":242,"o":"m 110 1003 q 156 976 142 1003 l 226 851 q 236 825 236 838 q 226 798 236 808 q 199 788 215 788 q 168 803 181 788 l 72 917 q 58 951 58 932 q 73 989 58 975 q 110 1003 88 1003 m 178 715 q 224 697 206 715 q 242 651 242 679 l 242 56 q 223 11 242 29 q 178 -7 204 -7 q 133 11 151 -7 q 115 56 115 29 l 115 651 q 133 697 115 678 q 178 715 151 715 z "},"í":{"ha":357,"x_min":115,"x_max":299,"o":"m 247 1003 q 285 989 271 1003 q 299 951 299 975 q 285 917 299 932 l 189 803 q 158 788 176 788 q 131 798 142 788 q 121 825 121 808 q 131 851 121 838 l 201 976 q 247 1003 215 1003 m 178 715 q 224 697 206 715 q 242 651 242 679 l 242 56 q 223 11 242 29 q 178 -7 204 -7 q 133 11 151 -7 q 115 56 115 29 l 115 651 q 133 697 115 678 q 178 715 151 715 z "},"î":{"ha":357,"x_min":-11,"x_max":367,"o":"m 365 828 q 354 799 367 813 q 324 786 342 786 q 299 796 308 786 l 178 899 l 57 796 q 32 786 47 786 q 1 799 14 786 q -10 828 -11 813 q 1 854 -10 843 l 96 951 q 121 972 108 965 q 151 979 133 979 l 204 979 q 235 972 222 979 q 260 951 247 965 l 354 854 q 365 828 365 843 m 178 715 q 224 697 206 715 q 242 651 242 679 l 242 56 q 223 11 242 29 q 178 -7 204 -7 q 133 11 151 -7 q 115 56 115 29 l 115 651 q 133 697 115 678 q 178 715 151 715 z "},"ï":{"ha":357,"x_min":-10,"x_max":367,"o":"m 61 940 q 111 919 90 940 q 132 869 132 899 q 111 819 132 840 q 61 799 90 799 q 11 819 32 799 q -10 869 -10 840 q 11 919 -10 899 q 61 940 32 940 m 296 940 q 346 919 325 940 q 367 869 367 899 q 346 819 367 840 q 296 799 325 799 q 246 819 267 799 q 225 869 225 840 q 246 919 225 899 q 296 940 267 940 m 178 715 q 224 697 206 715 q 242 651 242 679 l 242 56 q 223 11 242 29 q 178 -7 204 -7 q 133 11 151 -7 q 115 56 115 29 l 115 651 q 133 697 115 678 q 178 715 151 715 z "},"ð":{"ha":832,"x_min":68,"x_max":758,"o":"m 503 885 q 687 657 615 783 q 758 381 758 531 q 674 97 758 207 q 413 -14 589 -14 q 231 31 310 -14 q 110 158 153 76 q 68 344 68 239 q 107 521 68 439 q 219 652 146 603 q 393 701 293 701 q 550 663 475 701 q 401 825 493 747 l 285 757 q 261 749 271 749 q 237 759 247 749 q 226 783 226 769 q 247 815 226 804 l 342 871 q 236 938 272 918 q 216 957 224 943 q 208 986 208 971 q 226 1028 208 1011 q 267 1044 243 1044 q 297 1036 282 1044 q 447 932 381 985 l 542 989 q 563 996 553 996 q 588 986 578 996 q 597 961 597 976 q 581 931 597 942 l 503 885 m 413 97 q 519 124 468 97 q 603 207 571 150 q 636 350 636 264 q 603 491 636 435 q 519 573 571 547 q 413 599 468 599 q 306 573 357 599 q 223 491 256 547 q 190 350 190 435 q 223 207 190 264 q 306 124 256 150 q 413 97 357 97 z "},"ñ":{"ha":846,"x_min":110,"x_max":743,"o":"m 110 0 m 494 722 q 627 686 571 722 q 713 588 683 650 q 743 450 743 525 l 743 56 q 724 11 743 29 q 679 -7 706 -7 q 635 11 653 -7 q 617 56 617 29 l 617 436 q 464 606 617 606 q 340 569 394 606 q 236 472 285 533 l 236 56 q 217 11 236 29 q 172 -7 199 -7 q 128 11 146 -7 q 110 56 110 29 l 110 651 q 128 697 110 678 q 172 715 146 715 q 217 697 199 715 q 236 651 236 678 l 236 594 q 350 688 289 653 q 494 722 411 722 m 656 928 q 622 838 656 879 q 539 796 589 796 q 486 805 511 796 q 425 831 461 814 q 371 854 393 846 q 325 863 349 863 q 271 818 289 863 q 239 793 263 793 q 217 802 226 793 q 207 825 207 811 q 222 885 207 854 q 263 936 236 915 q 324 957 289 957 q 376 949 351 957 q 435 924 400 940 q 490 900 467 908 q 538 892 513 892 q 570 901 558 892 q 589 929 582 911 q 624 958 600 958 q 646 949 638 958 q 656 928 654 940 z "},"ò":{"ha":844,"x_min":67,"x_max":778,"o":"m 67 0 m 422 722 q 608 676 528 722 q 733 547 689 631 q 778 354 778 463 q 733 162 778 246 q 608 32 689 78 q 422 -14 528 -14 q 235 32 315 -14 q 110 162 154 78 q 67 354 67 246 q 110 547 67 463 q 235 676 154 631 q 422 722 315 722 m 422 101 q 531 128 479 101 q 617 211 583 154 q 651 356 651 268 q 617 499 651 442 q 531 581 583 556 q 422 607 479 607 q 312 581 364 607 q 226 499 260 556 q 193 356 193 442 q 226 211 193 268 q 312 128 260 154 q 422 101 364 101 m 354 1003 q 400 976 386 1003 l 471 851 q 481 825 481 838 q 470 798 481 808 q 443 788 460 788 q 413 803 425 788 l 317 917 q 303 951 303 932 q 317 989 303 975 q 354 1003 332 1003 z "},"ó":{"ha":844,"x_min":67,"x_max":778,"o":"m 490 1003 q 528 989 514 1003 q 542 951 542 975 q 528 917 542 932 l 432 803 q 401 788 419 788 q 374 798 385 788 q 364 825 364 808 q 374 851 364 838 l 444 976 q 490 1003 458 1003 m 422 722 q 608 676 528 722 q 733 547 689 631 q 778 354 778 463 q 733 162 778 246 q 608 32 689 78 q 422 -14 528 -14 q 235 32 315 -14 q 110 162 154 78 q 67 354 67 246 q 110 547 67 463 q 235 676 154 631 q 422 722 315 722 m 422 101 q 531 128 479 101 q 617 211 583 154 q 651 356 651 268 q 617 499 651 442 q 531 581 583 556 q 422 607 479 607 q 312 581 364 607 q 226 499 260 556 q 193 356 193 442 q 226 211 193 268 q 312 128 260 154 q 422 101 364 101 z "},"ô":{"ha":844,"x_min":67,"x_max":778,"o":"m 67 0 m 422 722 q 608 676 528 722 q 733 547 689 631 q 778 354 778 463 q 733 162 778 246 q 608 32 689 78 q 422 -14 528 -14 q 235 32 315 -14 q 110 162 154 78 q 67 354 67 246 q 110 547 67 463 q 235 676 154 631 q 422 722 315 722 m 422 101 q 531 128 479 101 q 617 211 583 154 q 651 356 651 268 q 617 499 651 442 q 531 581 583 556 q 422 607 479 607 q 312 581 364 607 q 226 499 260 556 q 193 356 193 442 q 226 211 193 268 q 312 128 260 154 q 422 101 364 101 m 610 828 q 599 799 611 813 q 568 786 586 786 q 543 796 553 786 l 422 899 l 301 796 q 276 786 292 786 q 246 799 258 786 q 235 828 233 813 q 246 854 235 843 l 340 951 q 365 972 353 965 q 396 979 378 979 l 449 979 q 479 972 467 979 q 504 951 492 965 l 599 854 q 610 828 610 843 z "},"õ":{"ha":844,"x_min":67,"x_max":778,"o":"m 649 928 q 615 838 649 879 q 532 796 582 796 q 479 805 504 796 q 418 831 454 814 q 364 854 386 846 q 318 863 342 863 q 264 818 282 863 q 232 793 256 793 q 210 802 219 793 q 200 825 200 811 q 215 885 200 854 q 256 936 229 915 q 317 957 282 957 q 369 949 344 957 q 428 924 393 940 q 483 900 460 908 q 531 892 506 892 q 563 901 551 892 q 582 929 575 911 q 617 958 593 958 q 639 949 631 958 q 649 928 647 940 m 422 722 q 608 676 528 722 q 733 547 689 631 q 778 354 778 463 q 733 162 778 246 q 608 32 689 78 q 422 -14 528 -14 q 235 32 315 -14 q 110 162 154 78 q 67 354 67 246 q 110 547 67 463 q 235 676 154 631 q 422 722 315 722 m 422 101 q 531 128 479 101 q 617 211 583 154 q 651 356 651 268 q 617 499 651 442 q 531 581 583 556 q 422 607 479 607 q 312 581 364 607 q 226 499 260 556 q 193 356 193 442 q 226 211 193 268 q 312 128 260 154 q 422 101 364 101 z "},"ö":{"ha":844,"x_min":67,"x_max":778,"o":"m 67 0 m 422 722 q 608 676 528 722 q 733 547 689 631 q 778 354 778 463 q 733 162 778 246 q 608 32 689 78 q 422 -14 528 -14 q 235 32 315 -14 q 110 162 154 78 q 67 354 67 246 q 110 547 67 463 q 235 676 154 631 q 422 722 315 722 m 422 101 q 531 128 479 101 q 617 211 583 154 q 651 356 651 268 q 617 499 651 442 q 531 581 583 556 q 422 607 479 607 q 312 581 364 607 q 226 499 260 556 q 193 356 193 442 q 226 211 193 268 q 312 128 260 154 q 422 101 364 101 m 306 940 q 356 919 335 940 q 376 869 376 899 q 356 819 376 840 q 306 799 335 799 q 256 819 276 799 q 235 869 235 840 q 256 919 235 899 q 306 940 276 940 m 540 940 q 590 919 569 940 q 611 869 611 899 q 590 819 611 840 q 540 799 569 799 q 490 819 511 799 q 469 869 469 840 q 490 919 469 899 q 540 940 511 940 z "},"÷":{"ha":989,"x_min":101,"x_max":888,"o":"m 494 646 q 444 667 465 646 q 424 717 424 688 q 444 767 424 746 q 494 788 465 788 q 544 767 524 788 q 565 717 565 746 q 544 667 565 688 q 494 646 524 646 m 831 517 q 871 500 854 517 q 888 460 888 483 q 871 420 888 436 q 831 404 854 404 l 157 404 q 117 420 133 404 q 101 460 101 436 q 117 500 101 483 q 157 517 133 517 l 831 517 m 494 274 q 544 253 524 274 q 565 203 565 232 q 544 153 565 174 q 494 132 524 132 q 444 153 465 132 q 424 203 424 174 q 444 253 424 232 q 494 274 465 274 z "},"ø":{"ha":844,"x_min":67,"x_max":778,"o":"m 422 722 q 606 678 521 722 l 646 735 q 675 749 656 749 q 700 739 690 749 q 710 715 710 729 q 701 692 710 704 l 663 636 q 748 515 718 588 q 778 354 778 443 q 733 162 778 246 q 608 32 689 78 q 422 -14 528 -14 q 238 31 318 -14 l 196 -29 q 167 -43 186 -43 q 142 -33 151 -43 q 132 -10 132 -24 q 140 14 132 1 l 181 71 q 97 193 126 121 q 67 354 67 265 q 110 547 67 463 q 235 676 154 631 q 422 722 315 722 m 193 356 q 253 174 193 240 l 536 578 q 422 607 482 607 q 312 581 364 607 q 226 499 260 556 q 193 356 193 442 m 422 101 q 531 128 479 101 q 617 211 583 154 q 651 356 651 268 q 592 535 651 465 l 308 131 q 422 101 358 101 z "},"ù":{"ha":847,"x_min":104,"x_max":738,"o":"m 104 0 m 353 -14 q 220 22 276 -14 q 134 121 164 58 q 104 258 104 183 l 104 653 q 123 697 104 679 q 168 715 142 715 q 213 697 194 715 q 231 653 231 679 l 231 272 q 383 103 231 103 q 508 139 453 103 q 611 236 563 175 l 611 653 q 630 697 611 679 q 675 715 649 715 q 719 697 701 715 q 738 653 738 679 l 738 57 q 719 12 738 31 q 675 -7 701 -7 q 630 12 649 -7 q 611 57 611 31 l 611 114 q 497 21 558 56 q 353 -14 436 -14 m 353 1003 q 399 976 385 1003 l 469 851 q 479 825 479 838 q 469 798 479 808 q 442 788 458 788 q 411 803 424 788 l 315 917 q 301 951 301 932 q 316 989 301 975 q 353 1003 331 1003 z "},"ú":{"ha":847,"x_min":104,"x_max":738,"o":"m 489 1003 q 526 989 513 1003 q 540 951 540 975 q 526 917 540 932 l 431 803 q 400 788 418 788 q 373 798 383 788 q 363 825 363 808 q 372 851 363 838 l 443 976 q 489 1003 457 1003 m 353 -14 q 220 22 276 -14 q 134 121 164 58 q 104 258 104 183 l 104 653 q 123 697 104 679 q 168 715 142 715 q 213 697 194 715 q 231 653 231 679 l 231 272 q 383 103 231 103 q 508 139 453 103 q 611 236 563 175 l 611 653 q 630 697 611 679 q 675 715 649 715 q 719 697 701 715 q 738 653 738 679 l 738 57 q 719 12 738 31 q 675 -7 701 -7 q 630 12 649 -7 q 611 57 611 31 l 611 114 q 497 21 558 56 q 353 -14 436 -14 z "},"û":{"ha":847,"x_min":104,"x_max":738,"o":"m 104 0 m 353 -14 q 220 22 276 -14 q 134 121 164 58 q 104 258 104 183 l 104 653 q 123 697 104 679 q 168 715 142 715 q 213 697 194 715 q 231 653 231 679 l 231 272 q 383 103 231 103 q 508 139 453 103 q 611 236 563 175 l 611 653 q 630 697 611 679 q 675 715 649 715 q 719 697 701 715 q 738 653 738 679 l 738 57 q 719 12 738 31 q 675 -7 701 -7 q 630 12 649 -7 q 611 57 611 31 l 611 114 q 497 21 558 56 q 353 -14 436 -14 m 608 828 q 597 799 610 813 q 567 786 585 786 q 542 796 551 786 l 421 899 l 300 796 q 275 786 290 786 q 244 799 257 786 q 233 828 232 813 q 244 854 233 843 l 339 951 q 364 972 351 965 q 394 979 376 979 l 447 979 q 478 972 465 979 q 503 951 490 965 l 597 854 q 608 828 608 843 z "},"ü":{"ha":847,"x_min":104,"x_max":738,"o":"m 304 940 q 354 919 333 940 q 375 869 375 899 q 354 819 375 840 q 304 799 333 799 q 254 819 275 799 q 233 869 233 840 q 254 919 233 899 q 304 940 275 940 m 539 940 q 589 919 568 940 q 610 869 610 899 q 589 819 610 840 q 539 799 568 799 q 489 819 510 799 q 468 869 468 840 q 489 919 468 899 q 539 940 510 940 m 353 -14 q 220 22 276 -14 q 134 121 164 58 q 104 258 104 183 l 104 653 q 123 697 104 679 q 168 715 142 715 q 213 697 194 715 q 231 653 231 679 l 231 272 q 383 103 231 103 q 508 139 453 103 q 611 236 563 175 l 611 653 q 630 697 611 679 q 675 715 649 715 q 719 697 701 715 q 738 653 738 679 l 738 57 q 719 12 738 31 q 675 -7 701 -7 q 630 12 649 -7 q 611 57 611 31 l 611 114 q 497 21 558 56 q 353 -14 436 -14 z "},"ý":{"ha":740,"x_min":33,"x_max":707,"o":"m 33 0 m 707 651 q 703 628 707 639 l 324 -283 q 265 -326 304 -326 q 223 -308 240 -326 q 206 -265 206 -290 q 210 -243 206 -254 l 300 -11 l 39 625 q 33 651 33 639 q 51 697 33 678 q 96 715 69 715 q 131 704 115 715 q 154 676 147 693 l 368 146 l 586 674 q 644 715 604 715 q 689 697 671 715 q 707 651 707 678 m 438 1003 q 475 989 461 1003 q 489 951 489 975 q 475 917 489 932 l 379 803 q 349 788 367 788 q 322 798 332 788 q 311 825 311 808 q 321 851 311 838 l 392 976 q 438 1003 406 1003 z "},"þ":{"ha":876,"x_min":110,"x_max":810,"o":"m 474 722 q 637 678 560 722 q 762 551 714 635 q 810 354 810 467 q 762 158 810 242 q 637 30 714 74 q 474 -14 560 -14 q 236 92 338 -14 l 236 -262 q 218 -308 236 -290 q 172 -326 200 -326 q 128 -308 146 -326 q 110 -262 110 -289 l 110 957 q 128 1002 110 983 q 172 1021 146 1021 q 218 1003 200 1021 q 236 957 236 985 l 236 617 q 474 722 338 722 m 456 104 q 621 169 558 104 q 683 354 683 235 q 621 539 683 474 q 456 604 558 604 q 335 576 392 604 q 236 500 279 547 l 236 208 q 335 133 279 161 q 456 104 392 104 z "},"ÿ":{"ha":740,"x_min":33,"x_max":707,"o":"m 251 940 q 301 919 281 940 q 322 869 322 899 q 301 819 322 840 q 251 799 281 799 q 201 819 222 799 q 181 869 181 840 q 201 919 181 899 q 251 940 222 940 m 486 940 q 536 919 515 940 q 557 869 557 899 q 536 819 557 840 q 486 799 515 799 q 436 819 457 799 q 415 869 415 840 q 436 919 415 899 q 486 940 457 940 m 707 651 q 703 628 707 639 l 324 -283 q 265 -326 304 -326 q 223 -308 240 -326 q 206 -265 206 -290 q 210 -243 206 -254 l 300 -11 l 39 625 q 33 651 33 639 q 51 697 33 678 q 96 715 69 715 q 131 704 115 715 q 154 676 147 693 l 368 146 l 586 674 q 644 715 604 715 q 689 697 671 715 q 707 651 707 678 z "},"ſ":{"ha":399,"x_min":26,"x_max":524,"o":"m 403 907 q 317 881 346 907 q 289 785 289 854 l 289 56 q 270 11 289 29 q 225 -7 251 -7 q 181 11 199 -7 q 163 56 163 29 l 163 600 l 81 600 q 42 616 58 600 q 26 654 26 632 q 42 693 26 678 q 81 708 58 708 l 163 708 l 163 789 q 192 926 163 872 q 270 1003 222 979 q 371 1028 318 1028 q 492 1000 436 1028 q 515 980 506 993 q 524 951 524 967 q 508 915 524 931 q 472 899 493 899 q 440 903 457 899 q 403 907 407 907 z "},"ƒ":{"ha":560,"x_min":-74,"x_max":617,"o":"m 585 1018 q 608 998 599 1011 q 617 968 617 985 q 601 928 617 944 q 561 913 585 913 q 532 917 554 913 q 490 921 510 921 q 401 894 433 921 q 360 799 369 868 l 331 593 l 493 593 q 524 580 511 593 q 536 550 536 567 q 524 519 536 532 q 493 507 511 507 l 319 507 l 250 17 q 164 -160 233 -104 q 8 -217 94 -217 l -17 -217 q -57 -200 -40 -217 q -74 -160 -74 -183 q -57 -119 -74 -136 q -17 -101 -40 -101 l -7 -101 q 82 -75 50 -101 q 124 21 114 -49 l 192 507 l 83 507 q 53 519 65 507 q 40 550 40 532 q 53 581 40 568 q 83 593 65 593 l 204 593 l 233 803 q 320 980 250 924 q 476 1036 390 1036 q 585 1018 547 1036 z "},"Ǽ":{"ha":1444,"x_min":3,"x_max":1372,"o":"m 801 1242 q 839 1228 825 1242 q 853 1190 853 1214 q 839 1156 853 1171 l 743 1042 q 713 1026 731 1026 q 685 1037 696 1026 q 675 1064 675 1047 q 685 1090 675 1076 l 756 1215 q 801 1242 769 1242 m 1313 118 q 1355 101 1338 118 q 1372 58 1372 83 q 1355 17 1372 33 q 1313 0 1338 0 l 756 0 q 711 18 729 0 q 693 63 693 36 l 693 249 l 265 249 l 124 29 q 67 -7 100 -7 q 22 11 40 -7 q 3 56 3 29 q 17 94 3 74 l 571 935 q 599 960 582 950 q 635 969 615 969 l 1313 969 q 1355 952 1338 969 q 1372 910 1372 935 q 1355 868 1372 885 q 1313 851 1338 851 l 819 851 l 819 544 l 1263 544 q 1305 527 1288 544 q 1322 485 1322 510 q 1305 443 1322 460 q 1263 426 1288 426 l 819 426 l 819 118 l 1313 118 m 658 851 l 340 364 l 693 364 l 693 851 l 658 851 z "},"ǽ":{"ha":1256,"x_min":51,"x_max":1196,"o":"m 51 0 m 1196 374 q 1179 332 1196 350 q 1135 314 1163 314 l 657 314 q 728 160 668 215 q 903 104 788 104 q 1005 115 961 104 q 1090 147 1049 126 q 1115 153 1101 153 q 1154 138 1138 153 q 1171 99 1171 122 q 1135 47 1171 68 q 1028 1 1081 17 q 892 -14 975 -14 q 726 17 797 -14 q 610 107 656 49 q 488 13 565 39 q 324 -14 411 -14 q 187 11 249 -14 q 88 83 125 36 q 51 194 51 131 q 133 356 51 296 q 371 415 214 415 l 539 415 l 539 431 q 494 563 539 522 q 353 603 449 603 q 259 594 300 603 q 168 569 218 586 q 150 567 157 567 q 114 582 129 567 q 99 619 99 597 q 135 672 99 657 q 375 722 253 722 q 520 691 461 722 q 613 606 579 660 q 864 722 700 722 q 1040 677 965 722 q 1156 553 1115 632 q 1196 374 1196 474 m 1071 415 q 1035 528 1067 483 q 958 594 1004 574 q 864 615 913 615 q 769 594 815 615 q 692 528 724 574 q 657 415 661 483 l 1071 415 m 388 314 q 231 290 285 314 q 178 208 178 265 q 223 129 178 161 q 349 97 268 97 q 483 128 428 97 q 539 235 539 158 l 539 314 l 388 314 m 685 1003 q 722 989 708 1003 q 736 951 736 975 q 722 917 736 932 l 626 803 q 596 788 614 788 q 569 798 579 788 q 558 825 558 808 q 568 851 558 838 l 639 976 q 685 1003 653 1003 z "},"Ǿ":{"ha":1126,"x_min":76,"x_max":1051,"o":"m 629 1242 q 667 1228 653 1242 q 681 1190 681 1214 q 667 1156 681 1171 l 571 1042 q 540 1026 558 1026 q 513 1037 524 1026 q 503 1064 503 1047 q 513 1090 503 1076 l 583 1215 q 629 1242 597 1242 m 564 983 q 825 915 711 983 l 881 996 q 910 1010 890 1010 q 935 1000 925 1010 q 944 976 944 990 q 936 953 944 965 l 882 875 q 1005 708 961 808 q 1051 485 1049 607 q 988 227 1049 340 q 819 50 928 114 q 564 -14 710 -14 q 304 51 417 -14 l 249 -28 q 219 -42 239 -42 q 194 -32 204 -42 q 185 -8 185 -22 q 193 15 185 3 l 247 92 q 122 260 167 158 q 76 485 78 361 q 139 743 79 631 q 308 919 199 856 q 564 983 418 983 m 203 485 q 233 319 203 394 q 318 193 263 244 l 754 817 q 564 865 671 865 q 370 815 451 865 q 246 679 289 765 q 203 485 203 593 m 564 104 q 757 154 675 104 q 882 290 839 204 q 925 485 925 376 q 896 648 925 572 q 811 775 867 724 l 374 151 q 564 104 456 104 z "},"ǿ":{"ha":844,"x_min":67,"x_max":778,"o":"m 67 0 m 422 722 q 606 678 521 722 l 646 735 q 675 749 656 749 q 700 739 690 749 q 710 715 710 729 q 701 692 710 704 l 663 636 q 748 515 718 588 q 778 354 778 443 q 733 162 778 246 q 608 32 689 78 q 422 -14 528 -14 q 238 31 318 -14 l 196 -29 q 167 -43 186 -43 q 142 -33 151 -43 q 132 -10 132 -24 q 140 14 132 1 l 181 71 q 97 193 126 121 q 67 354 67 265 q 110 547 67 463 q 235 676 154 631 q 422 722 315 722 m 193 356 q 253 174 193 240 l 536 578 q 422 607 482 607 q 312 581 364 607 q 226 499 260 556 q 193 356 193 442 m 422 101 q 531 128 479 101 q 617 211 583 154 q 651 356 651 268 q 592 535 651 465 l 308 131 q 422 101 358 101 m 490 1003 q 528 989 514 1003 q 542 951 542 975 q 528 917 542 932 l 432 803 q 401 788 419 788 q 374 798 385 788 q 364 825 364 808 q 374 851 364 838 l 444 976 q 490 1003 458 1003 z "},"Ș":{"ha":857,"x_min":71,"x_max":796,"o":"m 207 708 q 240 627 207 658 q 322 578 272 596 q 456 542 371 561 q 633 489 565 515 q 748 407 700 463 q 796 257 796 351 q 751 117 796 179 q 626 21 707 56 q 440 -14 546 -14 q 110 53 264 -14 q 82 76 93 60 q 71 110 71 92 q 87 151 71 133 q 128 168 103 168 q 154 163 142 168 q 428 106 282 106 q 671 265 671 106 q 640 335 671 307 q 563 378 608 363 q 432 417 517 394 q 250 473 319 446 q 131 554 181 500 q 81 699 81 608 q 122 842 81 778 q 245 945 164 907 q 440 983 326 983 q 717 938 593 983 q 756 882 756 924 q 740 842 756 860 q 700 824 725 824 q 678 829 692 824 q 454 867 569 867 q 276 825 344 867 q 207 708 207 783 m 442 -65 q 490 -86 469 -65 q 511 -136 511 -107 l 511 -208 q 408 -390 511 -329 q 400 -395 406 -393 q 388 -397 394 -397 q 362 -386 372 -397 q 351 -360 351 -375 q 371 -328 351 -340 q 417 -285 401 -310 q 433 -212 433 -260 l 429 -212 q 379 -192 400 -212 q 358 -143 358 -172 l 358 -136 q 379 -86 358 -107 q 429 -65 400 -65 l 442 -65 z "},"ș":{"ha":667,"x_min":67,"x_max":611,"o":"m 193 510 q 232 449 193 468 q 353 411 271 429 q 486 370 435 390 q 574 307 538 350 q 611 192 611 264 q 541 44 611 103 q 343 -14 471 -14 q 90 49 204 -14 q 67 94 67 65 q 82 133 67 117 q 121 150 97 150 q 146 144 133 150 q 235 114 190 125 q 335 103 279 103 q 489 201 489 103 q 453 250 489 233 q 338 288 418 267 q 202 328 256 307 q 110 391 149 349 q 72 503 72 433 q 142 661 72 600 q 343 722 213 722 q 544 688 450 722 q 574 667 564 682 q 585 635 585 651 q 569 596 585 613 q 529 579 553 579 q 511 582 522 579 q 353 607 431 607 q 235 580 278 607 q 193 510 193 553 m 347 -65 q 396 -86 375 -65 q 417 -136 417 -107 l 417 -208 q 314 -390 417 -329 q 306 -395 311 -393 q 293 -397 300 -397 q 267 -386 278 -397 q 257 -360 257 -375 q 276 -328 257 -340 q 323 -285 307 -310 q 339 -212 339 -260 l 335 -212 q 285 -192 306 -212 q 264 -143 264 -172 l 264 -136 q 285 -86 264 -107 q 335 -65 306 -65 l 347 -65 z "},"Ț":{"ha":846,"x_min":18,"x_max":828,"o":"m 768 969 q 810 952 793 969 q 828 910 828 935 q 810 868 828 885 q 768 851 793 851 l 486 851 l 486 56 q 467 11 486 29 q 422 -7 449 -7 q 378 11 396 -7 q 360 56 360 29 l 360 851 l 76 851 q 35 868 51 851 q 18 910 18 885 q 35 952 18 935 q 76 969 51 969 l 768 969 m 429 -65 q 478 -86 457 -65 q 499 -136 499 -107 l 499 -208 q 396 -390 499 -329 q 388 -395 393 -393 q 375 -397 382 -397 q 349 -386 360 -397 q 339 -360 339 -375 q 358 -328 339 -340 q 405 -285 389 -310 q 421 -212 421 -260 l 417 -212 q 367 -192 388 -212 q 346 -143 346 -172 l 346 -136 q 367 -86 346 -107 q 417 -65 388 -65 l 429 -65 z "},"ț":{"ha":532,"x_min":29,"x_max":504,"o":"m 454 110 q 489 95 474 110 q 504 60 504 81 q 472 11 504 28 q 357 -14 418 -14 q 154 169 154 -14 l 154 600 l 56 600 q 37 608 44 600 q 29 626 29 615 q 42 650 29 640 l 231 835 q 254 847 243 847 q 273 839 265 847 q 281 819 281 831 l 281 708 l 438 708 q 476 693 461 708 q 492 654 492 678 q 476 616 492 632 q 438 600 461 600 l 281 600 l 281 181 q 306 112 281 126 q 371 97 332 97 q 426 106 399 97 q 438 108 432 107 q 454 110 444 110 m 272 -65 q 321 -86 300 -65 q 342 -136 342 -107 l 342 -208 q 239 -390 342 -329 q 231 -395 236 -393 q 218 -397 225 -397 q 192 -386 203 -397 q 182 -360 182 -375 q 201 -328 182 -340 q 248 -285 232 -310 q 264 -212 264 -260 l 260 -212 q 210 -192 231 -212 q 189 -143 189 -172 l 189 -136 q 210 -86 189 -107 q 260 -65 231 -65 l 272 -65 z "},"ȷ":{"ha":357,"x_min":-64,"x_max":242,"o":"m 178 714 q 224 696 206 714 q 242 650 242 678 l 242 -143 q 198 -281 242 -229 q 60 -333 154 -333 q -28 -321 10 -333 q -54 -302 -44 -315 q -64 -271 -64 -289 q -49 -234 -64 -250 q -11 -218 -33 -218 q 10 -220 -3 -218 q 31 -222 22 -222 q 94 -207 74 -222 q 115 -140 115 -192 l 115 650 q 133 695 115 676 q 178 714 151 714 z "},"ˆ":{"ha":568,"x_min":93,"x_max":471,"o":"m 469 828 q 458 799 471 813 q 428 786 446 786 q 403 796 413 786 l 282 899 l 161 796 q 136 786 151 786 q 106 799 118 786 q 94 828 93 813 q 106 854 94 843 l 200 951 q 225 972 213 965 q 256 979 238 979 l 308 979 q 339 972 326 979 q 364 951 351 965 l 458 854 q 469 828 469 843 z "},"ˇ":{"ha":543,"x_min":93,"x_max":471,"o":"m 469 938 q 458 911 469 922 l 364 814 q 339 793 351 800 q 308 786 326 786 l 256 786 q 225 793 238 786 q 200 814 213 800 l 106 911 q 94 938 94 922 q 106 966 93 953 q 136 979 118 979 q 161 969 151 979 l 282 867 l 403 969 q 428 979 413 979 q 458 966 446 979 q 469 938 471 953 z "},"˘":{"ha":535,"x_min":68,"x_max":465,"o":"m 383 949 q 422 975 396 975 q 453 963 442 975 q 465 932 465 950 q 461 913 465 921 q 385 830 438 860 q 267 800 333 800 q 148 830 200 800 q 72 913 96 860 q 68 932 68 921 q 80 963 68 950 q 111 975 92 975 q 150 949 138 975 q 196 899 165 917 q 267 881 226 881 q 338 899 307 881 q 383 949 368 917 z "},"˙":{"ha":317,"x_min":88,"x_max":229,"o":"m 158 940 q 208 919 188 940 q 229 869 229 899 q 208 819 229 840 q 158 799 188 799 q 108 819 129 799 q 88 869 88 840 q 108 919 88 899 q 158 940 129 940 z "},"˚":{"ha":375,"x_min":60,"x_max":321,"o":"m 190 1026 q 283 988 244 1026 q 321 896 321 950 q 283 803 321 842 q 190 765 244 765 q 98 803 136 765 q 60 896 60 842 q 98 988 60 950 q 190 1026 136 1026 m 190 828 q 238 848 218 828 q 258 896 258 868 q 238 944 258 924 q 190 964 218 964 q 142 944 163 964 q 122 896 122 924 q 142 848 122 868 q 190 828 163 828 z "},"˛":{"ha":488,"x_min":96,"x_max":360,"o":"m 329 -193 q 351 -201 343 -193 q 360 -224 360 -210 q 344 -249 360 -237 q 225 -282 294 -282 q 134 -250 172 -282 q 96 -165 96 -218 q 137 -66 96 -104 q 244 0 178 -28 l 353 0 q 242 -58 289 -24 q 197 -139 196 -93 q 268 -204 197 -204 q 317 -196 289 -204 q 329 -193 325 -193 z "},"˜":{"ha":600,"x_min":76,"x_max":525,"o":"m 525 928 q 492 838 525 879 q 408 796 458 796 q 356 805 381 796 q 294 831 331 814 q 240 854 263 846 q 194 863 218 863 q 140 818 158 863 q 108 793 132 793 q 86 802 96 793 q 76 825 76 811 q 91 885 76 854 q 132 936 106 915 q 193 957 158 957 q 245 949 221 957 q 304 924 269 940 q 359 900 336 908 q 407 892 382 892 q 440 901 428 892 q 458 929 451 911 q 493 958 469 958 q 515 949 507 958 q 525 928 524 940 z "},"˝":{"ha":554,"x_min":67,"x_max":458,"o":"m 193 1003 q 231 989 217 1003 q 244 951 244 975 q 231 917 244 932 l 135 803 q 104 788 122 788 q 77 798 88 788 q 67 825 67 808 q 76 851 67 838 l 147 976 q 193 1003 161 1003 m 407 1003 q 444 989 431 1003 q 458 951 458 975 q 444 917 458 932 l 349 803 q 318 788 336 788 q 291 798 301 788 q 281 825 281 808 q 290 851 281 838 l 361 976 q 407 1003 375 1003 z "},"Ω":{"ha":1097,"x_min":75,"x_max":1022,"o":"m 549 857 q 369 808 446 857 q 251 676 292 758 q 210 497 210 593 q 419 119 210 240 q 442 96 433 111 q 451 64 451 81 q 432 19 451 38 q 386 0 413 0 l 129 0 q 91 16 107 0 q 75 54 75 32 q 91 93 75 78 q 129 108 107 108 l 269 108 q 96 513 96 251 q 151 737 96 628 q 310 915 207 846 q 549 983 414 983 q 787 915 683 983 q 946 737 890 846 q 1001 513 1001 628 q 828 108 1001 251 l 968 108 q 1007 93 992 108 q 1022 54 1022 78 q 1007 16 1022 32 q 968 0 992 0 l 711 0 q 665 19 685 0 q 646 64 646 38 q 655 96 646 81 q 678 119 664 111 q 888 497 888 240 q 847 676 888 593 q 728 808 806 758 q 549 857 651 857 z "},"π":{"ha":881,"x_min":22,"x_max":856,"o":"m 800 708 q 840 692 824 708 q 856 653 856 676 q 840 615 856 631 q 800 599 824 599 l 717 599 l 717 53 q 699 10 717 28 q 657 -7 682 -7 q 615 10 632 -7 q 597 53 597 28 l 597 599 l 353 599 q 269 38 344 304 q 248 6 264 18 q 211 -7 232 -7 q 168 10 186 -7 q 150 53 150 28 q 157 82 150 65 q 214 311 200 196 q 233 599 228 426 l 203 599 q 97 586 139 599 q 74 581 81 581 q 38 596 54 581 q 22 631 22 611 q 31 657 22 644 q 51 676 39 669 q 203 708 115 708 l 800 708 z "},"–":{"ha":950,"x_min":96,"x_max":854,"o":"m 797 446 q 838 429 821 446 q 854 389 854 413 q 838 349 854 365 q 797 333 821 333 l 151 333 q 112 349 128 333 q 96 389 96 365 q 112 429 96 413 q 151 446 128 446 l 797 446 z "},"—":{"ha":1238,"x_min":96,"x_max":1142,"o":"m 1085 446 q 1125 429 1108 446 q 1142 389 1142 413 q 1125 349 1142 365 q 1085 333 1108 333 l 151 333 q 112 349 128 333 q 96 389 96 365 q 112 429 96 413 q 151 446 128 446 l 1085 446 z "},"‘":{"ha":354,"x_min":92,"x_max":269,"o":"m 169 663 q 115 685 138 663 q 92 740 92 708 l 92 822 q 206 1025 92 956 q 229 1032 215 1032 q 258 1019 246 1032 q 269 990 269 1007 q 249 956 269 968 q 196 907 214 935 q 178 826 178 879 l 183 826 q 238 803 215 826 q 261 749 261 781 l 261 740 q 238 685 261 708 q 183 663 215 663 l 169 663 z "},"’":{"ha":331,"x_min":88,"x_max":265,"o":"m 188 1032 q 242 1009 219 1032 q 265 954 265 986 l 265 872 q 151 669 265 739 q 128 663 140 663 q 99 675 111 663 q 88 704 88 688 q 108 739 88 726 q 161 788 143 760 q 179 868 179 815 l 174 868 q 119 891 142 868 q 96 946 96 914 l 96 954 q 119 1009 96 986 q 174 1032 142 1032 l 188 1032 z "},"‚":{"ha":361,"x_min":88,"x_max":265,"o":"m 188 160 q 242 137 219 160 q 265 82 265 114 l 265 0 q 151 -203 265 -133 q 128 -210 140 -210 q 99 -197 111 -210 q 88 -168 88 -185 q 108 -133 88 -146 q 161 -85 143 -112 q 179 -4 179 -57 l 174 -4 q 119 19 142 -4 q 96 74 96 42 l 96 82 q 119 137 96 114 q 174 160 142 160 l 188 160 z "},"“":{"ha":607,"x_min":92,"x_max":521,"o":"m 169 663 q 115 685 138 663 q 92 740 92 708 l 92 822 q 206 1025 92 956 q 229 1032 215 1032 q 258 1019 246 1032 q 269 990 269 1007 q 249 956 269 968 q 196 907 214 935 q 178 826 178 879 l 183 826 q 238 803 215 826 q 261 749 261 781 l 261 740 q 238 685 261 708 q 183 663 215 663 l 169 663 m 421 663 q 366 685 389 663 q 343 740 343 708 l 343 822 q 457 1025 343 956 q 481 1032 467 1032 q 509 1019 497 1032 q 521 990 521 1007 q 500 956 521 968 q 447 907 465 935 q 429 826 429 879 l 435 826 q 490 803 467 826 q 513 749 513 781 l 513 740 q 490 685 513 708 q 435 663 467 663 l 421 663 z "},"”":{"ha":583,"x_min":88,"x_max":517,"o":"m 188 1032 q 242 1009 219 1032 q 265 954 265 986 l 265 872 q 151 669 265 739 q 128 663 140 663 q 99 675 111 663 q 88 704 88 688 q 108 739 88 726 q 161 788 143 760 q 179 868 179 815 l 174 868 q 119 891 142 868 q 96 946 96 914 l 96 954 q 119 1009 96 986 q 174 1032 142 1032 l 188 1032 m 439 1032 q 494 1009 471 1032 q 517 954 517 986 l 517 872 q 403 669 517 739 q 379 663 393 663 q 351 675 363 663 q 339 704 339 688 q 360 739 339 726 q 413 788 394 760 q 431 868 431 815 l 425 868 q 370 891 393 868 q 347 946 347 914 l 347 954 q 370 1009 347 986 q 425 1032 393 1032 l 439 1032 z "},"„":{"ha":614,"x_min":88,"x_max":517,"o":"m 188 160 q 242 137 219 160 q 265 82 265 114 l 265 0 q 151 -203 265 -133 q 128 -210 140 -210 q 99 -197 111 -210 q 88 -168 88 -185 q 108 -133 88 -146 q 161 -85 143 -112 q 179 -4 179 -57 l 174 -4 q 119 19 142 -4 q 96 74 96 42 l 96 82 q 119 137 96 114 q 174 160 142 160 l 188 160 m 439 160 q 494 137 471 160 q 517 82 517 114 l 517 0 q 403 -203 517 -133 q 379 -210 393 -210 q 351 -197 363 -210 q 339 -168 339 -185 q 360 -133 339 -146 q 413 -85 394 -112 q 431 -4 431 -57 l 425 -4 q 370 19 393 -4 q 347 74 347 42 l 347 82 q 370 137 347 114 q 425 160 393 160 l 439 160 z "},"†":{"ha":701,"x_min":49,"x_max":654,"o":"m 579 674 q 633 663 611 674 q 654 631 654 653 q 633 599 654 610 q 579 588 611 588 l 525 588 q 407 601 493 588 l 403 601 q 387 594 392 601 q 383 578 382 588 q 391 525 386 565 q 396 460 396 485 l 381 -54 q 380 -79 381 -58 q 372 -115 379 -100 q 351 -129 365 -129 q 328 -111 333 -129 q 323 -76 324 -93 q 322 -54 322 -58 l 307 460 q 312 525 307 485 q 319 578 317 565 l 319 582 q 313 598 319 593 q 296 601 306 603 q 178 588 210 588 l 124 588 q 70 599 92 588 q 49 631 49 610 q 70 663 49 653 q 124 674 92 674 l 178 674 q 296 661 218 674 l 300 661 q 316 668 311 661 q 319 685 321 675 q 306 803 306 771 l 306 860 q 317 910 306 886 q 351 935 328 935 q 386 910 375 935 q 397 860 397 886 l 397 803 q 383 685 397 771 l 383 681 q 390 665 383 669 q 407 661 397 660 q 525 674 485 674 l 579 674 z "},"‡":{"ha":738,"x_min":67,"x_max":672,"o":"m 597 217 q 651 206 629 217 q 672 174 672 196 q 651 142 672 153 q 597 131 629 131 l 543 131 q 425 143 503 131 l 421 143 q 405 136 410 143 q 401 119 400 129 q 415 1 415 33 l 415 -56 q 404 -106 415 -82 q 369 -131 393 -131 q 335 -106 346 -131 q 324 -56 324 -82 l 324 1 q 338 119 324 33 l 338 124 q 331 140 338 135 q 314 143 324 144 q 196 131 236 131 l 142 131 q 88 142 110 131 q 67 174 67 153 q 88 206 67 196 q 142 217 110 217 l 196 217 q 314 203 228 217 l 318 203 q 334 210 329 203 q 338 226 339 217 q 331 313 336 249 q 325 403 325 378 q 331 492 325 428 q 338 579 336 557 l 338 583 q 331 599 338 594 q 314 603 324 604 q 196 589 228 589 l 142 589 q 88 600 110 589 q 67 632 67 611 q 88 665 67 654 q 142 675 110 675 l 196 675 q 314 663 236 675 l 318 663 q 334 669 329 663 q 338 686 339 676 q 324 804 324 772 l 324 861 q 335 912 324 888 q 369 936 346 936 q 404 912 393 936 q 415 861 415 888 l 415 804 q 401 686 415 772 l 401 682 q 408 666 401 671 q 425 663 415 661 q 543 675 503 675 l 597 675 q 651 665 629 675 q 672 632 672 654 q 651 600 672 611 q 597 589 629 589 l 543 589 q 425 603 511 589 l 421 603 q 405 596 410 603 q 401 579 400 589 q 408 492 403 557 q 414 403 414 428 q 408 313 414 378 q 401 226 403 249 l 401 222 q 408 206 401 211 q 425 203 415 201 q 543 217 511 217 l 597 217 z "},"•":{"ha":524,"x_min":78,"x_max":446,"o":"m 263 731 q 355 706 313 731 q 422 638 397 681 q 446 546 446 596 q 422 453 446 496 q 355 386 397 411 q 263 361 313 361 q 170 386 213 361 q 103 453 128 411 q 78 546 78 496 q 103 638 78 596 q 170 706 128 681 q 263 731 213 731 z "},"…":{"ha":1344,"x_min":96,"x_max":1247,"o":"m 188 160 q 242 137 219 160 q 265 82 265 114 l 265 74 q 242 19 265 42 q 188 -4 219 -4 l 174 -4 q 119 19 142 -4 q 96 74 96 42 l 96 82 q 119 137 96 114 q 174 160 142 160 l 188 160 m 681 160 q 735 137 713 160 q 758 82 758 114 l 758 74 q 735 19 758 42 q 681 -4 713 -4 l 667 -4 q 612 19 635 -4 q 589 74 589 42 l 589 82 q 612 137 589 114 q 667 160 635 160 l 681 160 m 1169 160 q 1224 137 1201 160 q 1247 82 1247 114 l 1247 74 q 1224 19 1247 42 q 1169 -4 1201 -4 l 1156 -4 q 1101 19 1124 -4 q 1078 74 1078 42 l 1078 82 q 1101 137 1078 114 q 1156 160 1124 160 l 1169 160 z "},"‹":{"ha":524,"x_min":75,"x_max":421,"o":"m 421 82 q 406 43 421 58 q 367 28 390 28 q 328 43 340 28 l 100 294 q 75 354 75 322 q 100 414 75 386 l 328 665 q 367 681 340 681 q 406 665 390 681 q 421 626 421 650 q 408 590 421 606 l 186 354 l 408 118 q 421 82 421 104 z "},"›":{"ha":524,"x_min":103,"x_max":449,"o":"m 103 82 q 115 118 103 104 l 338 354 l 115 590 q 103 626 103 606 q 118 665 103 650 q 157 681 133 681 q 196 665 183 681 l 424 414 q 449 354 449 386 q 424 294 449 322 l 196 43 q 157 28 183 28 q 118 43 133 28 q 103 82 103 58 z "},"⁄":{"ha":278,"x_min":-194,"x_max":474,"o":"m -147 -33 q -181 -20 -167 -33 q -194 14 -194 -7 q -187 39 -194 25 l 388 986 q 426 1006 399 1006 q 460 992 446 1006 q 474 958 474 979 q 467 933 474 947 l -108 -14 q -147 -33 -119 -33 z "},"€":{"ha":947,"x_min":58,"x_max":885,"o":"m 828 136 q 868 119 851 136 q 885 81 885 103 q 853 31 885 47 q 650 -14 761 -14 q 372 78 489 -14 q 207 318 254 169 l 108 318 q 73 333 88 318 q 58 368 58 347 q 73 404 58 389 q 108 419 88 419 l 185 419 q 179 485 179 461 q 185 550 179 506 l 108 550 q 73 565 88 550 q 58 600 58 579 q 73 635 58 621 q 108 650 88 650 l 207 650 q 372 892 254 800 q 650 983 489 983 q 853 939 761 983 q 885 889 885 924 q 868 850 885 867 q 828 833 851 833 q 801 840 818 833 q 650 864 738 864 q 463 806 547 864 q 339 650 379 749 l 738 650 q 773 635 758 650 q 788 600 788 621 q 773 565 788 581 q 738 550 758 550 l 310 550 q 306 485 306 519 q 310 419 306 451 l 668 419 q 704 404 689 419 q 719 368 719 389 q 705 332 719 346 q 668 318 690 318 l 339 318 q 463 163 379 221 q 650 106 547 106 q 801 129 738 106 q 828 136 819 136 z "},"™":{"ha":1324,"x_min":79,"x_max":1197,"o":"m 1061 936 q 1083 962 1068 951 q 1115 972 1097 972 l 1139 972 q 1181 955 1164 972 q 1197 914 1197 938 l 1197 485 q 1185 453 1197 467 q 1153 440 1172 440 q 1122 453 1135 440 q 1108 485 1108 467 l 1108 849 l 954 475 q 933 450 947 460 q 900 440 918 440 q 867 450 882 440 q 846 475 853 460 l 692 849 l 692 485 q 679 453 692 467 q 647 440 667 440 q 616 453 629 440 q 603 485 603 467 l 603 914 q 619 955 603 938 q 661 972 636 972 l 685 972 q 717 962 703 972 q 739 936 732 951 l 900 538 l 1061 936 m 486 969 q 515 958 503 969 q 526 929 526 946 q 515 901 526 913 q 486 889 503 889 l 346 889 l 346 483 q 333 453 346 465 q 301 440 321 440 q 271 453 283 440 q 258 483 258 465 l 258 889 l 119 889 q 91 901 103 889 q 79 929 79 913 q 91 958 79 946 q 119 969 103 969 l 486 969 z "},"Ω":{"ha":1097,"x_min":75,"x_max":1022,"o":"m 549 857 q 369 808 446 857 q 251 676 292 758 q 210 497 210 593 q 419 119 210 240 q 442 96 433 111 q 451 64 451 81 q 432 19 451 38 q 386 0 413 0 l 129 0 q 91 16 107 0 q 75 54 75 32 q 91 93 75 78 q 129 108 107 108 l 269 108 q 96 513 96 251 q 151 737 96 628 q 310 915 207 846 q 549 983 414 983 q 787 915 683 983 q 946 737 890 846 q 1001 513 1001 628 q 828 108 1001 251 l 968 108 q 1007 93 992 108 q 1022 54 1022 78 q 1007 16 1022 32 q 968 0 992 0 l 711 0 q 665 19 685 0 q 646 64 646 38 q 655 96 646 81 q 678 119 664 111 q 888 497 888 240 q 847 676 888 593 q 728 808 806 758 q 549 857 651 857 z "},"∂":{"ha":951,"x_min":58,"x_max":864,"o":"m 492 1047 q 695 985 611 1047 q 822 822 779 924 q 864 601 864 719 q 811 281 864 419 q 652 64 758 142 q 393 -14 546 -14 q 203 31 278 -14 q 93 146 128 76 q 58 289 58 215 q 107 463 58 385 q 243 585 156 540 q 444 631 331 631 q 606 594 529 631 q 736 504 683 558 q 742 592 742 547 q 676 830 742 732 q 474 928 611 928 q 331 910 394 928 q 311 907 322 907 q 272 923 288 907 q 256 963 256 939 q 265 993 256 979 q 292 1014 275 1007 q 492 1047 381 1047 m 403 97 q 617 185 543 97 q 718 392 692 272 q 604 489 674 451 q 454 526 535 526 q 260 466 335 526 q 185 301 185 406 q 209 201 185 247 q 283 126 233 154 q 403 97 332 97 z "},"∆":{"ha":1001,"x_min":94,"x_max":908,"o":"m 897 147 q 908 97 908 119 q 878 28 908 56 q 806 0 849 0 l 197 0 q 124 28 154 0 q 94 97 94 56 q 106 147 94 119 l 404 897 q 501 969 432 969 q 599 897 571 969 l 897 147 m 501 847 l 203 99 l 800 99 l 501 847 z "},"∏":{"ha":1029,"x_min":50,"x_max":979,"o":"m 919 969 q 962 952 944 969 q 979 910 979 935 q 962 867 979 885 q 919 850 944 850 l 817 850 l 817 -100 q 799 -142 817 -125 q 757 -160 782 -160 q 715 -142 732 -160 q 697 -100 697 -125 l 697 850 l 332 850 l 332 -100 q 315 -142 332 -125 q 272 -160 297 -160 q 230 -142 247 -160 q 213 -100 213 -125 l 213 850 l 110 850 q 67 867 85 850 q 50 910 50 885 q 67 952 50 935 q 110 969 85 969 l 919 969 z "},"∑":{"ha":876,"x_min":57,"x_max":819,"o":"m 144 -143 q 83 -117 108 -143 q 57 -54 57 -90 q 83 10 57 -21 l 461 414 l 83 818 q 57 882 57 849 q 83 944 57 918 q 144 971 108 971 l 758 971 q 801 953 783 971 q 819 910 819 935 q 801 867 819 885 q 758 850 783 850 l 213 850 l 561 482 q 588 414 588 453 q 561 346 588 375 l 213 -22 l 758 -22 q 801 -40 783 -22 q 819 -82 819 -57 q 801 -125 819 -107 q 758 -143 783 -143 l 144 -143 z "},"−":{"ha":989,"x_min":101,"x_max":888,"o":"m 831 515 q 871 499 854 515 q 888 458 888 482 q 871 419 888 435 q 831 403 854 403 l 157 403 q 117 419 133 403 q 101 458 101 435 q 117 499 101 482 q 157 515 133 515 l 831 515 z "},"√":{"ha":861,"x_min":10,"x_max":871,"o":"m 833 969 q 860 958 849 969 q 871 932 871 947 q 860 906 871 917 q 833 896 849 896 l 710 896 l 439 47 q 415 13 433 26 q 375 0 397 0 l 369 0 q 330 14 347 0 q 304 51 313 28 l 146 483 l 68 453 q 50 449 56 449 q 22 461 33 449 q 10 490 10 474 q 43 529 10 515 l 157 575 q 181 581 171 581 q 211 572 200 581 q 231 540 222 563 l 369 147 l 625 914 q 649 954 633 939 q 690 969 665 969 l 833 969 z "},"∞":{"ha":1338,"x_min":90,"x_max":1247,"o":"m 979 635 q 1137 591 1076 635 q 1222 483 1197 547 q 1247 354 1247 419 q 1222 225 1247 289 q 1137 117 1197 161 q 979 74 1076 74 q 808 126 879 74 q 671 268 738 178 l 667 268 q 531 127 603 181 q 358 74 458 74 q 201 117 261 74 q 115 225 140 161 q 90 354 90 289 q 115 483 90 419 q 201 591 140 547 q 358 635 261 635 q 530 581 458 635 q 667 440 601 528 l 671 440 q 809 583 739 531 q 979 635 879 635 m 372 181 q 479 209 432 181 q 556 272 526 238 q 619 354 586 307 q 513 478 569 428 q 372 528 457 528 q 246 476 290 528 q 201 354 201 425 q 246 232 201 283 q 372 181 290 181 m 965 181 q 1092 232 1047 181 q 1136 354 1136 283 q 1092 476 1136 425 q 965 528 1047 528 q 859 500 906 528 q 783 438 813 472 q 718 354 753 404 q 784 270 756 303 q 860 209 813 238 q 965 181 907 181 z "},"∫":{"ha":515,"x_min":1,"x_max":514,"o":"m 467 1099 q 501 1081 489 1094 q 514 1049 514 1068 q 499 1014 514 1029 q 464 999 483 999 q 453 999 460 999 q 436 1000 447 1000 q 375 985 396 1000 q 350 921 354 969 l 285 -25 q 234 -155 279 -106 q 100 -204 189 -204 q 42 -199 78 -204 q 13 -181 24 -196 q 1 -149 1 -167 q 15 -113 1 -128 q 51 -99 29 -99 q 63 -99 56 -99 q 81 -100 69 -100 q 142 -85 121 -100 q 165 -22 163 -71 l 232 924 q 281 1054 236 1006 q 417 1103 326 1103 q 467 1099 444 1103 z "},"≈":{"ha":938,"x_min":115,"x_max":826,"o":"m 826 579 q 824 564 826 572 q 756 465 801 499 q 651 432 711 432 q 556 447 601 432 q 446 489 511 461 q 360 524 396 513 q 290 536 324 536 q 189 465 215 536 q 175 447 185 454 q 154 440 165 440 q 127 452 139 440 q 115 479 115 464 q 119 494 115 486 q 290 626 176 626 q 385 612 340 626 q 496 569 431 597 q 582 534 546 546 q 651 522 618 522 q 750 590 725 522 q 765 610 754 603 q 788 618 775 618 q 815 606 803 618 q 826 579 826 594 m 826 322 q 824 307 826 315 q 756 208 801 242 q 651 175 711 175 q 556 190 601 175 q 446 232 511 204 q 360 267 396 256 q 290 279 324 279 q 189 208 215 279 q 175 190 185 197 q 154 183 165 183 q 127 195 139 183 q 115 222 115 207 q 119 238 115 229 q 290 369 176 369 q 385 355 340 369 q 496 313 431 340 q 582 277 546 289 q 651 265 618 265 q 750 333 725 265 q 765 353 754 346 q 788 361 775 361 q 815 349 803 361 q 826 322 826 338 z "},"≠":{"ha":956,"x_min":82,"x_max":868,"o":"m 136 561 q 98 577 114 561 q 82 615 82 593 q 98 654 82 639 q 136 669 114 669 l 558 669 l 678 858 q 692 872 683 867 q 713 876 701 876 q 742 865 729 876 q 754 840 754 854 q 747 811 754 824 l 657 669 l 814 669 q 853 654 838 669 q 868 615 868 639 q 853 577 868 593 q 814 561 838 561 l 588 561 l 460 358 l 814 358 q 853 343 838 358 q 868 304 868 328 q 853 266 868 282 q 814 250 838 250 l 390 250 l 268 56 q 253 42 263 47 q 233 38 244 38 q 204 49 217 38 q 192 74 192 60 q 199 103 192 90 l 292 250 l 136 250 q 98 266 114 250 q 82 304 82 282 q 98 343 82 328 q 136 358 114 358 l 361 358 l 489 561 l 136 561 z "},"≤":{"ha":875,"x_min":81,"x_max":769,"o":"m 713 157 q 690 161 701 157 l 136 410 q 99 440 113 421 q 86 482 86 458 l 86 493 q 99 535 86 517 q 136 565 113 554 l 690 814 q 713 818 701 818 q 752 802 736 818 q 768 763 768 786 q 758 731 768 746 q 731 710 747 717 l 231 488 l 731 265 q 758 244 747 258 q 768 213 768 229 q 752 173 768 189 q 713 157 736 157 m 718 101 q 754 86 739 101 q 769 50 769 71 q 754 15 769 29 q 718 0 739 0 l 131 0 q 95 15 110 0 q 81 50 81 29 q 95 86 81 71 q 131 101 110 101 l 718 101 z "},"≥":{"ha":875,"x_min":106,"x_max":794,"o":"m 163 157 q 123 173 139 157 q 107 213 107 189 q 117 244 107 229 q 144 265 128 258 l 644 488 l 144 710 q 117 731 128 717 q 107 763 107 746 q 123 802 107 786 q 163 818 139 818 q 185 814 175 818 l 739 565 q 776 535 763 554 q 789 493 789 517 l 789 482 q 776 440 789 458 q 739 410 763 421 l 185 161 q 163 157 175 157 m 744 101 q 780 86 765 101 q 794 50 794 71 q 780 15 794 29 q 744 0 765 0 l 157 0 q 121 15 136 0 q 106 50 106 29 q 121 86 106 71 q 157 101 136 101 l 744 101 z "},"◊":{"ha":869,"x_min":56,"x_max":814,"o":"m 429 -146 q 388 -135 407 -146 q 358 -107 369 -125 l 67 372 q 56 415 56 392 q 67 458 56 439 l 358 938 q 388 966 369 956 q 429 976 407 976 l 440 976 q 481 966 463 976 q 511 938 500 956 l 803 458 q 814 415 814 439 q 803 372 814 392 l 511 -107 q 481 -135 500 -125 q 440 -146 463 -146 l 429 -146 m 435 871 l 164 415 l 435 -40 l 706 415 l 435 871 z "},"ﬀ":{"ha":1075,"x_min":26,"x_max":1071,"o":"m 950 907 q 865 881 893 907 q 836 785 836 854 l 836 708 l 1010 708 q 1049 693 1033 708 q 1064 654 1064 678 q 1049 616 1064 632 q 1010 600 1033 600 l 836 600 l 836 56 q 817 11 836 29 q 772 -7 799 -7 q 728 11 746 -7 q 710 56 710 29 l 710 600 l 289 600 l 289 56 q 270 11 289 29 q 225 -7 251 -7 q 181 11 199 -7 q 163 56 163 29 l 163 600 l 81 600 q 42 616 58 600 q 26 654 26 632 q 42 693 26 678 q 81 708 58 708 l 163 708 l 163 789 q 192 926 163 872 q 270 1003 222 979 q 371 1028 318 1028 q 492 1000 436 1028 q 515 980 506 993 q 524 951 524 967 q 508 915 524 931 q 472 899 493 899 q 440 903 457 899 q 403 907 407 907 q 317 881 346 907 q 289 785 289 854 l 289 708 l 710 708 l 710 789 q 740 926 710 872 q 817 1003 769 979 q 918 1028 865 1028 q 1039 1000 983 1028 q 1062 980 1053 993 q 1071 951 1071 967 q 1056 915 1071 931 q 1019 899 1040 899 q 988 903 1004 899 q 950 907 954 907 z "},"ﬁ":{"ha":890,"x_min":26,"x_max":788,"o":"m 715 708 q 758 688 742 706 q 775 644 775 671 l 775 56 q 756 11 775 29 q 711 -7 738 -7 q 667 11 685 -7 q 649 56 649 29 l 649 600 l 289 600 l 289 56 q 270 11 289 29 q 225 -7 251 -7 q 181 11 199 -7 q 163 56 163 29 l 163 600 l 81 600 q 42 616 58 600 q 26 654 26 632 q 42 693 26 678 q 81 708 58 708 l 163 708 l 163 789 q 192 926 163 872 q 270 1003 222 979 q 371 1028 318 1028 q 492 1000 436 1028 q 515 980 506 993 q 524 951 524 967 q 508 915 524 931 q 472 899 493 899 q 440 903 457 899 q 403 907 407 907 q 317 881 346 907 q 289 785 289 854 l 289 708 l 715 708 m 788 924 q 767 874 788 894 q 717 853 746 853 l 708 853 q 658 874 679 853 q 638 924 638 894 l 638 929 q 658 979 638 958 q 708 1000 679 1000 l 717 1000 q 767 979 746 1000 q 788 929 788 958 l 788 924 z "},"ﬂ":{"ha":894,"x_min":26,"x_max":774,"o":"m 403 907 q 317 881 346 907 q 289 785 289 854 l 289 708 l 463 708 q 501 693 486 708 q 517 654 517 678 q 501 616 517 632 q 463 600 486 600 l 289 600 l 289 56 q 270 11 289 29 q 225 -7 251 -7 q 181 11 199 -7 q 163 56 163 29 l 163 600 l 81 600 q 42 616 58 600 q 26 654 26 632 q 42 693 26 678 q 81 708 58 708 l 163 708 l 163 789 q 192 926 163 872 q 270 1003 222 979 q 371 1028 318 1028 q 492 1000 436 1028 q 515 980 506 993 q 524 951 524 967 q 508 915 524 931 q 472 899 493 899 q 440 903 457 899 q 403 907 407 907 m 710 1021 q 756 1003 738 1021 q 774 957 774 985 l 774 56 q 755 11 774 29 q 710 -7 736 -7 q 665 11 683 -7 q 647 56 647 29 l 647 957 q 665 1002 647 983 q 710 1021 683 1021 z "},"ﬃ":{"ha":1438,"x_min":26,"x_max":1335,"o":"m 1258 708 q 1304 690 1286 708 q 1322 644 1322 672 l 1322 56 q 1303 11 1322 29 q 1258 -7 1285 -7 q 1214 11 1232 -7 q 1196 56 1196 29 l 1196 600 l 836 600 l 836 56 q 817 11 836 29 q 772 -7 799 -7 q 728 11 746 -7 q 710 56 710 29 l 710 600 l 289 600 l 289 56 q 270 11 289 29 q 225 -7 251 -7 q 181 11 199 -7 q 163 56 163 29 l 163 600 l 81 600 q 42 616 58 600 q 26 654 26 632 q 42 693 26 678 q 81 708 58 708 l 163 708 l 163 789 q 192 926 163 872 q 270 1003 222 979 q 371 1028 318 1028 q 492 1000 436 1028 q 515 980 506 993 q 524 951 524 967 q 508 915 524 931 q 472 899 493 899 q 440 903 457 899 q 403 907 407 907 q 317 881 346 907 q 289 785 289 854 l 289 708 l 710 708 l 710 789 q 740 926 710 872 q 817 1003 769 979 q 918 1028 865 1028 q 1039 1000 983 1028 q 1062 980 1053 993 q 1071 951 1071 967 q 1056 915 1071 931 q 1019 899 1040 899 q 988 903 1004 899 q 950 907 954 907 q 865 881 893 907 q 836 785 836 854 l 836 708 l 1258 708 m 1335 924 q 1314 874 1335 894 q 1264 853 1293 853 l 1256 853 q 1206 874 1226 853 q 1185 924 1185 894 l 1185 929 q 1206 979 1185 958 q 1256 1000 1226 1000 l 1264 1000 q 1314 979 1293 1000 q 1335 929 1335 958 l 1335 924 z "},"ﬄ":{"ha":1442,"x_min":26,"x_max":1321,"o":"m 950 907 q 865 881 893 907 q 836 785 836 854 l 836 708 l 1010 708 q 1049 693 1033 708 q 1064 654 1064 678 q 1049 616 1064 632 q 1010 600 1033 600 l 836 600 l 836 56 q 817 11 836 29 q 772 -7 799 -7 q 728 11 746 -7 q 710 56 710 29 l 710 600 l 289 600 l 289 56 q 270 11 289 29 q 225 -7 251 -7 q 181 11 199 -7 q 163 56 163 29 l 163 600 l 81 600 q 42 616 58 600 q 26 654 26 632 q 42 693 26 678 q 81 708 58 708 l 163 708 l 163 789 q 192 926 163 872 q 270 1003 222 979 q 371 1028 318 1028 q 492 1000 436 1028 q 515 980 506 993 q 524 951 524 967 q 508 915 524 931 q 472 899 493 899 q 440 903 457 899 q 403 907 407 907 q 317 881 346 907 q 289 785 289 854 l 289 708 l 710 708 l 710 789 q 740 926 710 872 q 817 1003 769 979 q 918 1028 865 1028 q 1039 1000 983 1028 q 1062 980 1053 993 q 1071 951 1071 967 q 1056 915 1071 931 q 1019 899 1040 899 q 988 903 1004 899 q 950 907 954 907 m 1257 1021 q 1303 1003 1285 1021 q 1321 957 1321 985 l 1321 56 q 1302 11 1321 29 q 1257 -7 1283 -7 q 1213 11 1231 -7 q 1194 56 1194 29 l 1194 957 q 1213 1002 1194 983 q 1257 1021 1231 1021 z "},"ﬆ":{"ha":1169,"x_min":67,"x_max":1142,"o":"m 1092 110 q 1126 95 1111 110 q 1142 60 1142 81 q 1110 11 1142 28 q 994 -14 1056 -14 q 792 169 792 -14 l 792 600 l 707 600 q 669 616 685 600 q 653 654 653 632 q 669 693 653 678 q 707 708 685 708 l 792 708 l 792 825 q 755 936 792 890 q 635 982 718 982 q 524 940 568 982 q 479 825 479 899 q 557 682 479 731 q 577 660 569 674 q 585 635 585 647 q 569 596 585 613 q 529 579 553 579 q 511 582 522 579 q 353 607 431 607 q 235 580 278 607 q 193 510 193 553 q 232 449 193 468 q 353 411 271 429 q 486 370 435 390 q 574 307 538 350 q 611 192 611 264 q 541 44 611 103 q 343 -14 471 -14 q 90 49 204 -14 q 67 94 67 65 q 82 133 67 117 q 121 150 97 150 q 146 144 133 150 q 235 114 190 125 q 335 103 279 103 q 489 201 489 103 q 453 250 489 233 q 338 288 418 267 q 202 328 256 307 q 110 391 149 349 q 72 503 72 433 q 142 661 72 600 q 343 722 213 722 q 449 713 390 722 q 413 835 413 764 q 480 1008 413 942 q 665 1075 547 1075 q 801 1039 744 1075 q 888 942 858 1003 q 918 811 918 882 l 918 708 l 1075 708 q 1114 693 1099 708 q 1129 654 1129 678 q 1114 616 1129 632 q 1075 600 1099 600 l 918 600 l 918 181 q 944 112 918 126 q 1008 97 969 97 q 1064 106 1036 97 q 1076 108 1069 107 q 1092 110 1082 110 z "},"א":{"ha":914,"x_min":86,"x_max":835,"o":"m 821 97 q 835 58 835 82 q 811 8 835 28 q 776 -4 797 -4 q 724 19 744 -4 l 339 465 l 207 36 q 185 6 201 15 q 149 -4 169 -4 q 103 13 119 -4 q 86 54 86 29 q 90 78 86 68 l 246 572 l 115 724 q 101 764 101 739 q 121 810 101 792 q 163 825 140 825 q 211 803 192 825 l 544 418 l 717 789 q 771 824 732 824 q 801 817 785 824 q 835 765 835 800 q 826 732 835 749 l 629 318 l 821 97 z "},"ב":{"ha":890,"x_min":74,"x_max":853,"o":"m 796 111 q 836 95 819 111 q 853 56 853 79 q 836 16 853 32 q 796 0 819 0 l 129 0 q 90 17 107 0 q 74 56 74 33 q 90 95 74 79 q 129 111 107 111 l 599 111 l 599 524 q 581 640 599 599 q 522 699 563 681 q 407 717 481 717 q 297 709 353 717 q 146 683 242 701 q 102 692 122 679 q 78 729 82 706 q 90 769 75 751 q 128 793 104 788 q 413 828 276 828 q 596 797 528 828 q 694 699 664 765 q 725 524 725 633 l 725 111 l 796 111 z "},"ג":{"ha":565,"x_min":28,"x_max":446,"o":"m 243 826 q 344 813 301 826 q 416 752 386 800 q 446 607 446 704 l 446 57 q 427 12 446 31 q 382 -7 408 -7 q 338 12 356 -7 q 319 57 319 31 l 319 149 q 216 40 271 85 q 97 -4 161 -4 q 48 12 68 -4 q 28 57 28 28 q 42 96 28 79 q 81 115 57 113 q 217 164 158 124 q 319 275 275 204 l 319 617 q 300 699 319 678 q 238 719 281 719 q 198 714 222 719 q 154 700 174 708 q 139 697 146 697 q 108 711 122 697 q 93 749 93 725 q 124 799 93 783 q 181 818 146 810 q 243 826 215 826 z "},"ד":{"ha":815,"x_min":39,"x_max":751,"o":"m 694 819 q 735 803 718 819 q 751 764 751 788 q 735 724 751 740 q 694 708 718 708 l 632 708 q 582 479 582 635 l 582 56 q 563 11 582 29 q 518 -7 544 -7 q 474 11 492 -7 q 456 56 456 29 l 456 485 q 515 708 456 636 l 94 708 q 56 725 72 708 q 39 764 39 742 q 56 803 39 788 q 94 819 72 819 l 694 819 z "},"ה":{"ha":917,"x_min":89,"x_max":806,"o":"m 160 683 q 116 692 136 679 q 92 729 96 706 q 103 769 89 751 q 142 793 118 788 q 300 817 217 808 q 451 825 383 825 q 658 794 581 825 q 770 698 735 764 q 806 524 806 632 l 806 57 q 788 12 806 31 q 743 -7 769 -7 q 698 12 717 -7 q 679 57 679 31 l 679 524 q 657 638 679 597 q 585 697 635 679 q 446 714 535 714 q 160 683 324 714 m 193 494 q 238 476 219 494 q 257 431 257 457 l 257 57 q 239 12 257 31 q 194 -7 221 -7 q 149 12 168 -7 q 131 57 131 31 l 131 431 q 149 476 131 457 q 193 494 167 494 z "},"ו":{"ha":371,"x_min":122,"x_max":249,"o":"m 185 825 q 230 806 211 825 q 249 761 249 788 l 249 57 q 231 12 249 31 q 186 -7 213 -7 q 141 12 160 -7 q 122 57 122 31 l 122 761 q 140 806 122 788 q 185 825 158 825 z "},"ז":{"ha":578,"x_min":65,"x_max":542,"o":"m 485 819 q 525 803 508 819 q 542 764 542 788 q 525 724 542 740 q 485 708 508 708 l 386 708 q 336 479 336 635 l 336 56 q 317 11 336 29 q 272 -7 299 -7 q 228 11 246 -7 q 210 56 210 29 l 210 485 q 269 708 210 636 l 121 708 q 82 725 99 708 q 65 764 65 742 q 82 803 65 788 q 121 819 99 819 l 485 819 z "},"ח":{"ha":949,"x_min":93,"x_max":832,"o":"m 557 819 q 760 751 688 819 q 832 524 832 682 l 832 57 q 814 12 832 31 q 769 -7 796 -7 q 724 12 743 -7 q 706 57 706 31 l 706 524 q 667 669 706 629 q 557 708 628 708 l 326 708 q 291 607 300 664 q 282 472 282 550 l 282 57 q 264 12 282 31 q 219 -7 246 -7 q 174 12 193 -7 q 156 57 156 31 l 156 479 q 171 605 156 542 q 215 708 186 668 l 153 708 q 110 724 128 708 q 93 764 93 740 q 110 803 93 788 q 153 819 128 819 l 557 819 z "},"ט":{"ha":967,"x_min":107,"x_max":871,"o":"m 871 339 q 776 83 871 172 q 501 -7 681 -7 q 213 84 318 -7 q 107 339 107 175 l 107 764 q 125 809 107 790 q 169 828 143 828 q 215 809 196 828 q 233 764 233 790 l 233 339 q 304 163 233 222 q 501 104 375 104 q 680 163 615 104 q 744 339 744 222 l 744 613 q 722 692 744 668 q 650 715 700 715 q 574 686 611 715 q 515 599 538 657 q 495 572 508 582 q 464 561 482 561 q 424 578 439 561 q 408 619 408 594 q 411 639 408 625 q 465 740 425 697 q 555 804 504 782 q 654 826 606 826 q 811 781 751 826 q 871 604 871 736 l 871 339 z "},"י":{"ha":354,"x_min":114,"x_max":240,"o":"m 176 825 q 222 806 203 825 q 240 761 240 788 l 240 393 q 222 348 240 367 q 178 329 204 329 q 133 348 151 329 q 114 393 114 367 l 114 761 q 132 806 114 788 q 176 825 150 825 z "},"ך":{"ha":735,"x_min":47,"x_max":628,"o":"m 107 708 q 65 724 82 708 q 47 764 47 740 q 65 803 47 788 q 107 819 82 819 l 353 819 q 556 751 483 819 q 628 524 628 682 l 628 -204 q 610 -249 628 -231 q 565 -268 592 -268 q 520 -249 539 -268 q 501 -204 501 -231 l 501 524 q 463 669 501 629 q 353 708 424 708 l 107 708 z "},"כ":{"ha":794,"x_min":65,"x_max":710,"o":"m 365 819 q 625 721 540 819 q 710 410 710 622 q 625 99 710 197 q 365 0 540 0 l 125 0 q 83 16 100 0 q 65 56 65 32 q 83 95 65 79 q 125 111 100 111 l 365 111 q 528 183 474 111 q 583 410 583 256 q 528 636 583 564 q 365 708 474 708 l 125 708 q 83 724 100 708 q 65 764 65 740 q 83 803 65 788 q 125 819 100 819 l 365 819 z "},"ל":{"ha":750,"x_min":63,"x_max":678,"o":"m 351 32 q 328 6 343 15 q 296 -3 314 -3 q 251 16 268 -3 q 235 61 235 35 q 242 90 235 74 l 547 708 l 125 708 q 77 722 92 708 q 63 768 63 736 l 63 956 q 81 1001 63 982 q 122 1019 99 1019 q 165 1001 146 1019 q 183 956 183 982 l 183 819 l 597 819 q 655 795 632 819 q 678 733 678 771 q 664 676 678 704 l 351 32 z "},"ם":{"ha":958,"x_min":85,"x_max":847,"o":"m 572 819 q 775 751 703 819 q 847 524 847 682 l 847 56 q 831 16 847 32 q 790 0 814 0 l 194 0 q 156 17 172 0 q 139 56 139 33 l 139 451 q 155 594 139 518 q 203 708 171 671 l 144 708 q 102 724 119 708 q 85 764 85 740 q 102 803 85 788 q 144 819 119 819 l 572 819 m 721 524 q 682 669 721 629 q 572 708 643 708 l 318 708 q 265 451 265 635 l 265 111 l 721 111 l 721 524 z "},"מ":{"ha":964,"x_min":122,"x_max":853,"o":"m 576 828 q 783 744 713 828 q 853 499 853 661 l 853 56 q 838 15 853 29 q 796 0 824 0 l 483 0 q 444 17 461 0 q 428 56 428 33 q 444 95 428 79 q 483 111 461 111 l 726 111 l 726 485 q 710 623 726 574 q 658 693 694 672 q 554 714 621 714 q 388 672 476 714 q 249 576 299 629 l 249 56 q 230 11 249 29 q 185 -7 211 -7 q 140 11 158 -7 q 122 56 122 29 l 122 763 q 140 808 122 789 q 185 826 158 826 q 230 808 211 826 q 249 763 249 789 l 249 699 q 394 789 303 750 q 576 828 486 828 z "},"ן":{"ha":374,"x_min":124,"x_max":250,"o":"m 186 825 q 231 806 213 825 q 250 761 250 788 l 250 -204 q 232 -249 250 -231 q 188 -268 214 -268 q 142 -249 161 -268 q 124 -204 124 -231 l 124 761 q 142 806 124 788 q 186 825 160 825 z "},"נ":{"ha":489,"x_min":19,"x_max":376,"o":"m 293 819 q 352 799 328 819 q 376 746 376 778 l 376 282 q 353 117 376 178 q 280 28 331 56 q 143 0 229 0 l 79 0 q 37 16 54 0 q 19 56 19 32 q 37 95 19 79 q 79 111 54 111 l 143 111 q 226 150 201 111 q 250 282 250 189 l 250 708 l 146 708 q 103 724 121 708 q 86 764 86 740 q 103 803 86 788 q 146 819 121 819 l 293 819 z "},"ס":{"ha":922,"x_min":69,"x_max":850,"o":"m 508 819 q 850 403 850 819 q 757 98 850 210 q 481 -14 664 -14 q 206 97 297 -14 q 114 403 114 208 q 131 558 114 476 q 181 708 149 640 l 125 708 q 86 725 103 708 q 69 764 69 742 q 86 803 69 788 q 125 819 103 819 l 508 819 m 481 96 q 725 403 725 96 q 678 633 725 558 q 508 708 631 708 l 300 708 q 254 568 269 650 q 239 403 239 486 q 297 174 239 251 q 481 96 356 96 z "},"ע":{"ha":794,"x_min":33,"x_max":699,"o":"m 636 826 q 681 808 663 826 q 699 763 699 789 l 699 506 q 635 185 699 299 q 424 21 572 71 l 110 -86 q 89 -90 99 -90 q 56 -80 71 -90 q 36 -53 42 -69 q 33 -33 33 -47 q 44 -1 33 -17 q 72 19 54 14 l 264 83 l 81 746 q 78 761 78 757 q 97 806 78 786 q 143 825 117 825 q 181 813 164 825 q 204 779 199 800 l 383 124 l 408 132 q 534 251 496 161 q 572 506 572 340 l 572 763 q 591 808 572 789 q 636 826 610 826 z "},"ף":{"ha":846,"x_min":44,"x_max":758,"o":"m 397 828 q 670 717 582 828 q 758 403 758 607 l 758 -204 q 740 -249 758 -231 q 696 -268 722 -268 q 651 -249 669 -268 q 632 -204 632 -231 l 632 403 q 576 642 632 567 q 397 718 521 718 q 231 665 292 718 q 171 521 171 613 q 306 357 171 357 q 342 362 328 357 q 358 368 356 367 q 388 376 378 376 q 422 362 407 376 q 438 325 438 347 q 408 279 438 294 q 292 249 354 249 q 124 300 204 249 q 44 510 44 351 q 86 676 44 604 q 208 788 128 749 q 397 828 288 828 z "},"פ":{"ha":872,"x_min":67,"x_max":801,"o":"m 413 828 q 700 717 599 828 q 801 417 801 607 q 691 94 801 203 q 364 -15 581 -15 q 178 6 260 -15 q 146 25 158 10 q 133 60 133 40 q 153 103 133 88 q 199 115 174 119 q 289 99 254 104 q 364 94 324 94 q 603 172 529 94 q 676 417 676 249 q 609 641 676 564 q 413 718 542 718 q 251 673 310 718 q 192 546 192 628 q 233 435 192 461 q 321 408 274 408 q 376 419 340 408 q 417 428 410 428 q 449 416 436 428 q 461 382 461 404 q 413 319 461 339 q 307 300 365 300 q 144 347 221 300 q 67 535 67 393 q 157 749 67 671 q 413 828 247 828 z "},"ץ":{"ha":731,"x_min":50,"x_max":668,"o":"m 636 817 q 668 765 668 801 q 661 732 668 750 l 410 207 l 574 -186 q 578 -207 578 -197 q 560 -251 578 -232 q 517 -271 542 -271 q 481 -259 497 -271 q 457 -229 464 -247 l 54 740 q 50 760 50 749 q 60 795 50 778 q 88 819 71 813 q 113 824 100 824 q 148 813 132 824 q 171 783 164 801 l 349 354 l 551 789 q 606 824 567 824 q 636 817 619 824 z "},"צ":{"ha":851,"x_min":54,"x_max":768,"o":"m 744 110 q 768 56 768 82 q 761 31 768 44 q 733 7 753 14 q 681 0 713 0 l 129 0 q 90 17 107 0 q 74 56 74 33 q 90 95 74 79 q 129 111 107 111 l 583 111 l 68 728 q 54 764 54 746 q 81 815 54 793 q 117 828 97 828 q 168 803 149 828 l 482 425 l 642 789 q 668 817 651 810 q 697 825 681 825 q 728 817 714 825 q 753 792 743 808 q 760 763 760 775 q 753 733 760 750 l 568 322 l 744 110 z "},"ק":{"ha":881,"x_min":79,"x_max":769,"o":"m 686 819 q 745 799 721 819 q 769 746 769 778 l 769 296 q 695 67 769 139 q 494 -4 621 -4 q 393 6 442 -4 q 357 26 371 11 q 343 63 343 42 q 363 105 343 88 q 408 117 383 122 q 448 110 428 113 q 494 107 468 107 q 643 296 643 107 l 643 708 l 139 708 q 97 724 114 708 q 79 764 79 740 q 97 803 79 788 q 139 819 114 819 l 686 819 m 168 508 q 213 490 194 508 q 232 444 232 471 l 232 -204 q 214 -249 232 -231 q 169 -268 196 -268 q 124 -249 143 -268 q 106 -204 106 -231 l 106 444 q 124 490 106 471 q 168 508 142 508 z "},"ר":{"ha":783,"x_min":46,"x_max":672,"o":"m 115 689 q 72 699 90 685 q 49 736 53 713 q 60 777 46 758 q 99 800 75 796 q 360 825 235 825 q 543 794 475 825 q 642 699 611 764 q 672 524 672 633 l 672 58 q 654 13 672 32 q 610 -6 636 -6 q 565 13 583 -6 q 546 58 546 32 l 546 524 q 528 639 546 599 q 469 697 510 679 q 354 714 428 714 q 246 708 300 714 q 115 689 192 701 z "},"ש":{"ha":1083,"x_min":106,"x_max":978,"o":"m 915 826 q 960 808 942 826 q 978 763 978 789 l 978 375 q 542 -7 978 -7 q 106 375 106 -7 l 106 763 q 124 808 106 789 q 168 826 142 826 q 213 808 194 826 q 232 763 232 789 l 232 375 q 309 169 232 235 q 542 104 386 104 q 774 169 697 104 q 851 375 851 235 l 851 763 q 870 808 851 789 q 915 826 889 826 m 542 258 q 497 277 515 258 q 478 322 478 296 l 479 763 q 497 808 479 789 q 542 826 515 826 q 587 808 568 826 q 606 763 606 789 l 604 322 q 586 277 604 296 q 542 258 568 258 z "},"ת":{"ha":969,"x_min":40,"x_max":860,"o":"m 585 819 q 788 751 715 819 q 860 524 860 682 l 860 57 q 842 12 860 31 q 797 -7 824 -7 q 752 12 771 -7 q 733 57 733 31 l 733 524 q 694 669 733 629 q 585 708 656 708 l 354 708 q 332 616 336 665 q 328 488 328 567 l 328 56 q 311 16 328 32 q 271 0 294 0 l 96 0 q 57 17 74 0 q 40 56 40 33 q 57 95 40 79 q 96 111 74 111 l 201 111 l 201 493 q 238 708 201 629 l 161 708 q 119 724 136 708 q 101 764 101 740 q 119 803 101 788 q 161 819 136 819 l 585 819 z "},"׳":{"ha":263,"x_min":57,"x_max":231,"o":"m 185 894 q 219 874 207 888 q 231 842 231 860 q 225 817 231 828 l 149 633 q 131 612 143 619 q 104 604 119 604 q 86 607 97 604 q 57 654 57 618 q 58 672 57 665 l 103 854 q 124 887 108 875 q 161 899 139 899 q 185 894 172 899 z "},"״":{"ha":432,"x_min":56,"x_max":401,"o":"m 364 896 q 392 874 382 889 q 401 842 401 860 q 397 817 401 829 l 321 633 q 303 612 315 619 q 279 604 292 604 q 264 607 275 604 q 246 623 253 611 q 239 650 239 635 q 240 667 239 661 l 286 850 q 308 885 292 872 q 344 899 324 899 q 364 896 350 899 m 181 894 q 208 875 199 889 q 218 844 218 861 q 213 817 218 829 l 138 633 q 120 612 131 619 q 97 604 110 604 q 82 607 93 604 q 63 622 69 611 q 56 649 56 633 q 58 667 56 656 l 103 850 q 124 885 108 872 q 160 897 139 897 q 181 894 167 897 z "},"־":{"ha":453,"x_min":61,"x_max":392,"o":"m 335 819 q 375 803 358 819 q 392 764 392 788 q 375 724 392 740 q 335 708 358 708 l 117 708 q 78 725 94 708 q 61 764 61 742 q 78 803 61 788 q 117 819 94 819 l 335 819 z "},"₪":{"ha":1224,"x_min":124,"x_max":1121,"o":"m 1058 826 q 1103 808 1085 826 q 1121 763 1121 789 l 1121 347 q 1033 86 1121 172 q 768 0 944 0 l 506 0 q 438 19 460 0 q 415 81 415 38 l 415 488 q 433 533 415 514 q 478 551 451 551 q 523 533 504 551 q 542 488 542 514 l 542 110 l 768 110 q 938 168 882 110 q 994 347 994 226 l 994 763 q 1013 808 994 789 q 1058 826 1032 826 m 186 -7 q 142 12 160 -7 q 124 57 124 31 l 124 757 q 142 803 124 788 q 192 819 161 819 l 546 819 q 758 753 686 819 q 829 556 829 686 l 829 332 q 811 287 829 306 q 767 268 793 268 q 722 287 740 268 q 703 332 703 306 l 703 556 q 546 708 703 708 l 250 708 l 250 57 q 231 12 250 31 q 186 -7 213 -7 z "},"ְ":{"ha":0,"x_min":322,"x_max":415,"o":"m 369 -201 q 335 -189 349 -201 q 322 -156 322 -176 q 335 -122 322 -135 q 369 -108 349 -108 q 403 -122 390 -108 q 415 -156 415 -135 q 403 -189 415 -176 q 369 -201 390 -201 m 369 -342 q 335 -329 349 -342 q 322 -296 322 -317 q 335 -262 322 -275 q 369 -249 349 -249 q 403 -262 390 -249 q 415 -296 415 -275 q 403 -329 415 -317 q 369 -342 390 -342 z "},"ֱ":{"ha":0,"x_min":158,"x_max":575,"o":"m 206 -201 q 172 -189 185 -201 q 158 -156 158 -176 q 172 -122 158 -135 q 206 -108 185 -108 q 239 -122 226 -108 q 251 -156 251 -135 q 239 -189 251 -176 q 206 -201 226 -201 m 369 -201 q 335 -189 349 -201 q 322 -156 322 -176 q 335 -122 322 -135 q 369 -108 349 -108 q 403 -122 390 -108 q 415 -156 415 -135 q 403 -189 415 -176 q 369 -201 390 -201 m 529 -201 q 495 -189 508 -201 q 482 -156 482 -176 q 495 -122 482 -135 q 529 -108 508 -108 q 563 -122 550 -108 q 575 -156 575 -135 q 563 -189 575 -176 q 529 -201 550 -201 m 286 -331 q 253 -318 265 -331 q 240 -285 240 -306 q 253 -251 240 -264 q 286 -237 265 -237 q 319 -251 307 -237 q 332 -285 332 -264 q 319 -318 332 -306 q 286 -331 307 -331 m 529 -342 q 495 -329 508 -342 q 482 -296 482 -317 q 495 -262 482 -275 q 529 -249 508 -249 q 563 -262 550 -249 q 575 -296 575 -275 q 563 -329 575 -317 q 529 -342 550 -342 z "},"ֲ":{"ha":0,"x_min":151,"x_max":582,"o":"m 536 -201 q 502 -189 515 -201 q 489 -156 489 -176 q 502 -122 489 -135 q 536 -108 515 -108 q 569 -122 557 -108 q 582 -156 582 -135 q 569 -189 582 -176 q 536 -201 557 -201 m 185 -193 q 158 -185 164 -193 q 151 -156 151 -178 q 158 -124 151 -132 q 185 -117 164 -117 l 381 -117 q 406 -124 401 -117 q 411 -156 411 -132 q 406 -186 411 -179 q 381 -193 401 -193 l 185 -193 m 536 -342 q 502 -329 515 -342 q 489 -296 489 -317 q 502 -262 489 -275 q 536 -249 515 -249 q 569 -262 557 -249 q 582 -296 582 -275 q 569 -329 582 -317 q 536 -342 557 -342 z "},"ֳ":{"ha":0,"x_min":172,"x_max":575,"o":"m 529 -201 q 495 -189 508 -201 q 482 -156 482 -176 q 495 -122 482 -135 q 529 -108 508 -108 q 563 -122 550 -108 q 575 -156 575 -135 q 563 -189 575 -176 q 529 -201 550 -201 m 388 -117 q 413 -124 408 -117 q 418 -156 418 -132 q 413 -186 418 -179 q 388 -193 408 -193 l 322 -193 q 337 -275 331 -228 q 343 -339 343 -322 q 297 -367 343 -367 q 251 -339 251 -367 q 258 -275 251 -322 q 272 -193 264 -228 l 206 -193 q 178 -185 185 -193 q 172 -156 172 -178 q 178 -124 172 -132 q 206 -117 185 -117 l 388 -117 m 529 -249 q 563 -262 550 -249 q 575 -296 575 -275 q 563 -329 575 -317 q 529 -342 550 -342 q 495 -329 508 -342 q 482 -296 482 -317 q 495 -262 482 -275 q 529 -249 508 -249 z "},"ִ":{"ha":0,"x_min":317,"x_max":414,"o":"m 367 -206 q 331 -192 344 -206 q 317 -157 317 -179 q 331 -122 317 -135 q 367 -108 344 -108 q 401 -122 388 -108 q 414 -157 414 -135 q 401 -192 414 -179 q 367 -206 388 -206 z "},"ֵ":{"ha":0,"x_min":242,"x_max":492,"o":"m 289 -201 q 255 -189 268 -201 q 242 -156 242 -176 q 255 -122 242 -135 q 289 -108 268 -108 q 322 -122 310 -108 q 335 -156 335 -135 q 322 -189 335 -176 q 289 -201 310 -201 m 446 -201 q 412 -189 425 -201 q 399 -156 399 -176 q 412 -122 399 -135 q 446 -108 425 -108 q 479 -122 467 -108 q 492 -156 492 -135 q 479 -189 492 -176 q 446 -201 467 -201 z "},"ֶ":{"ha":0,"x_min":242,"x_max":492,"o":"m 289 -201 q 255 -189 268 -201 q 242 -156 242 -176 q 255 -122 242 -135 q 289 -108 268 -108 q 322 -122 310 -108 q 335 -156 335 -135 q 322 -189 335 -176 q 289 -201 310 -201 m 446 -201 q 412 -189 425 -201 q 399 -156 399 -176 q 412 -122 399 -135 q 446 -108 425 -108 q 479 -122 467 -108 q 492 -156 492 -135 q 479 -189 492 -176 q 446 -201 467 -201 m 367 -331 q 333 -318 346 -331 q 321 -285 321 -306 q 333 -251 321 -264 q 367 -237 346 -237 q 400 -251 388 -237 q 413 -285 413 -264 q 400 -318 413 -306 q 367 -331 388 -331 z "},"ַ":{"ha":0,"x_min":235,"x_max":494,"o":"m 268 -193 q 241 -185 247 -193 q 235 -156 235 -178 q 241 -124 235 -132 q 268 -117 247 -117 l 464 -117 q 490 -124 485 -117 q 494 -156 494 -132 q 490 -186 494 -179 q 464 -193 485 -193 l 268 -193 z "},"ָ":{"ha":0,"x_min":243,"x_max":489,"o":"m 458 -117 q 484 -124 479 -117 q 489 -156 489 -132 q 484 -186 489 -179 q 458 -193 479 -193 l 394 -193 q 408 -268 403 -226 q 414 -325 414 -310 q 368 -353 414 -353 q 322 -325 322 -353 q 328 -268 322 -310 q 342 -193 333 -226 l 276 -193 q 249 -185 256 -193 q 243 -156 243 -178 q 249 -124 243 -132 q 276 -117 256 -117 l 458 -117 z "},"ֹ":{"ha":0,"x_min":296,"x_max":399,"o":"m 349 939 q 310 953 325 939 q 296 990 296 967 q 310 1028 296 1014 q 349 1042 325 1042 q 385 1027 371 1042 q 399 990 399 1013 q 385 953 399 968 q 349 939 371 939 z "},"ֻ":{"ha":0,"x_min":314,"x_max":600,"o":"m 361 -197 q 327 -185 340 -197 q 314 -151 314 -172 q 327 -117 314 -131 q 361 -104 340 -104 q 394 -117 382 -104 q 407 -151 407 -131 q 394 -185 407 -172 q 361 -197 382 -197 m 458 -297 q 424 -285 438 -297 q 411 -251 411 -272 q 424 -217 411 -231 q 458 -204 438 -204 q 492 -217 479 -204 q 504 -251 504 -231 q 492 -285 504 -272 q 458 -297 479 -297 m 554 -397 q 521 -385 533 -397 q 508 -351 508 -372 q 521 -317 508 -331 q 554 -304 533 -304 q 588 -317 575 -304 q 600 -351 600 -331 q 588 -385 600 -372 q 554 -397 575 -397 z "},"ּ":{"ha":0,"x_min":296,"x_max":399,"o":"m 349 365 q 310 379 325 365 q 296 417 296 393 q 310 454 296 440 q 349 468 325 468 q 385 453 371 468 q 399 417 399 439 q 385 380 399 394 q 349 365 371 365 z "},"ׁ":{"ha":0,"x_min":296,"x_max":399,"o":"m 349 939 q 310 953 325 939 q 296 990 296 967 q 310 1028 296 1014 q 349 1042 325 1042 q 385 1027 371 1042 q 399 990 399 1013 q 385 953 399 968 q 349 939 371 939 z "},"ׂ":{"ha":0,"x_min":296,"x_max":399,"o":"m 349 939 q 310 953 325 939 q 296 990 296 967 q 310 1028 296 1014 q 349 1042 325 1042 q 385 1027 371 1042 q 399 990 399 1013 q 385 953 399 968 q 349 939 371 939 z "}}}
